<svg width="128" height="128" viewBox="0 0 128 128" fill="none" xmlns="http://www.w3.org/2000/svg">
<g clip-path="url(#clip0_11_148)">
<rect width="128" height="128" fill="white"/>
<rect width="128" height="128" rx="30" fill="#2D69EB"/>
<g clip-path="url(#clip1_11_148)">
<path d="M94.05 60.6575C93.7942 60.6578 93.5408 60.6075 93.3045 60.5097C93.0681 60.4119 92.8533 60.2685 92.6725 60.0875L67.9225 35.3375C67.6016 34.9646 67.4335 34.4843 67.4519 33.9927C67.4703 33.5011 67.6739 33.0346 68.0217 32.6867C68.3696 32.3389 68.836 32.1354 69.3276 32.117C69.8192 32.0986 70.2996 32.2666 70.6725 32.5875L95.4225 57.3375C95.6948 57.6104 95.8801 57.9578 95.9551 58.336C96.03 58.7141 95.9912 59.106 95.8435 59.462C95.6958 59.8181 95.4459 60.1225 95.1254 60.3366C94.8048 60.5507 94.428 60.665 94.0425 60.665L94.05 60.6575Z" fill="white"/>
<path d="M94.05 76.4425C93.7942 76.4428 93.5408 76.3925 93.3045 76.2947C93.0681 76.1969 92.8533 76.0534 92.6725 75.8725L52.1275 35.3275C51.8066 34.9546 51.6385 34.4742 51.6569 33.9827C51.6753 33.4911 51.8789 33.0246 52.2267 32.6767C52.5746 32.3289 53.041 32.1254 53.5326 32.107C54.0242 32.0886 54.5046 32.2566 54.8775 32.5775L95.43 73.115C95.7023 73.3879 95.8877 73.7353 95.9626 74.1134C96.0375 74.4916 95.9987 74.8835 95.851 75.2395C95.7034 75.5956 95.4534 75.8999 95.1329 76.1141C94.8123 76.3282 94.4355 76.4425 94.05 76.4425Z" fill="white"/>
<path d="M56 96C55.7438 96.0006 55.49 95.9505 55.2531 95.8527C55.0163 95.7549 54.8011 95.6112 54.62 95.43L32.57 73.3875C32.2491 73.0146 32.081 72.5342 32.0994 72.0427C32.1178 71.5511 32.3214 71.0846 32.6692 70.7367C33.0171 70.3889 33.4836 70.1854 33.9751 70.167C34.4667 70.1486 34.9471 70.3166 35.32 70.6375L57.3625 92.68C57.6313 92.9522 57.8141 93.2974 57.8881 93.6726C57.9622 94.0479 57.9242 94.4367 57.779 94.7905C57.6338 95.1444 57.3877 95.4477 57.0714 95.6628C56.7551 95.8778 56.3825 95.9951 56 96Z" fill="white"/>
<path d="M94.05 60.6575C93.7942 60.6578 93.5408 60.6075 93.3045 60.5097C93.0681 60.4119 92.8533 60.2685 92.6725 60.0875L67.9225 35.3375C67.6016 34.9646 67.4335 34.4843 67.4519 33.9927C67.4703 33.5011 67.6739 33.0346 68.0217 32.6867C68.3696 32.3389 68.836 32.1354 69.3276 32.117C69.8192 32.0986 70.2996 32.2666 70.6725 32.5875L95.4225 57.3375C95.6948 57.6104 95.8801 57.9578 95.9551 58.336C96.03 58.7141 95.9912 59.106 95.8435 59.462C95.6958 59.8181 95.4459 60.1225 95.1254 60.3366C94.8048 60.5507 94.428 60.665 94.0425 60.665L94.05 60.6575Z" fill="white"/>
<path d="M94.05 76.4425C93.7942 76.4428 93.5408 76.3925 93.3045 76.2947C93.0681 76.1969 92.8533 76.0534 92.6725 75.8725L52.1275 35.3275C51.8066 34.9546 51.6385 34.4742 51.6569 33.9827C51.6753 33.4911 51.8789 33.0246 52.2267 32.6767C52.5746 32.3289 53.041 32.1254 53.5326 32.107C54.0242 32.0886 54.5046 32.2566 54.8775 32.5775L95.43 73.115C95.7023 73.3879 95.8877 73.7353 95.9626 74.1134C96.0375 74.4916 95.9987 74.8835 95.851 75.2395C95.7034 75.5956 95.4534 75.8999 95.1329 76.1141C94.8123 76.3282 94.4355 76.4425 94.05 76.4425Z" fill="white"/>
<path d="M90.8 95.575C90.5417 95.5757 90.2859 95.5247 90.0477 95.4251C89.8094 95.3255 89.5934 95.1793 89.4125 94.995C85.7825 91.315 84.645 88.69 83.545 86.1525C82.5275 83.8025 81.5675 81.5825 78.3125 78.3275C75.0575 75.0725 72.84 74.115 70.5 73.0975C67.9175 71.98 65.25 70.825 61.47 67.045C57.69 63.265 56.525 60.5975 55.4075 58.015C54.39 55.665 53.43 53.4475 50.1775 50.1925C46.925 46.9375 44.705 45.98 42.355 44.9625C39.7725 43.845 37.105 42.6925 33.325 38.9125C33.24 38.8275 33.1625 38.7475 33.075 38.6625L32.97 38.555C32.6093 38.1834 32.411 37.6837 32.4187 37.1659C32.4265 36.648 32.6396 36.1545 33.0112 35.7938C33.3829 35.4331 33.8826 35.2348 34.4004 35.2425C34.9182 35.2503 35.4118 35.4634 35.7725 35.835L35.8875 35.955L36.0825 36.155C39.3325 39.405 41.555 40.3675 43.9025 41.385C46.485 42.5 49.1525 43.655 52.935 47.435C56.7175 51.215 57.87 53.885 58.985 56.4675C60.0025 58.815 60.9625 61.035 64.215 64.2875C67.4675 67.54 69.69 68.5025 72.0375 69.52C74.62 70.635 77.2875 71.79 81.07 75.57C84.8525 79.35 86.005 82.02 87.125 84.6025C88.125 86.9125 89.07 89.1025 92.1875 92.255C92.4577 92.5287 92.6409 92.8762 92.7142 93.2537C92.7874 93.6313 92.7473 94.0221 92.599 94.3769C92.4507 94.7318 92.2008 95.0349 91.8807 95.2481C91.5606 95.4612 91.1846 95.575 90.8 95.575Z" fill="white"/>
<path d="M73.235 96C72.8908 96.0006 72.5527 95.91 72.2549 95.7374C71.9572 95.5648 71.7105 95.3164 71.54 95.0175C70.9217 93.8965 70.3982 92.7257 69.975 91.5175C69.2075 89.48 68.5425 87.72 65.955 85.13C63.3675 82.54 61.6075 81.88 59.57 81.11C57.42 80.3 54.9825 79.3825 51.8 76.2C48.6175 73.0175 47.6975 70.58 46.8875 68.43C46.12 66.3925 45.4575 64.6325 42.8675 62.0425C40.2775 59.4525 38.5175 58.7925 36.48 58.0225C35.2715 57.5998 34.1007 57.0763 32.98 56.4575C32.7579 56.3304 32.563 56.1609 32.4064 55.9585C32.2498 55.7561 32.1347 55.5249 32.0675 55.278C32.0003 55.0311 31.9823 54.7734 32.0147 54.5196C32.0471 54.2658 32.1292 54.0208 32.2562 53.7987C32.3833 53.5766 32.5528 53.3817 32.7552 53.2252C32.9576 53.0686 33.1888 52.9534 33.4357 52.8862C33.6826 52.819 33.9403 52.8011 34.1941 52.8335C34.4479 52.8659 34.6929 52.9479 34.915 53.075C35.8581 53.5873 36.8413 54.0221 37.855 54.375C40.005 55.1875 42.4425 56.105 45.625 59.29C48.8075 62.475 49.7275 64.9075 50.5375 67.0575C51.305 69.095 51.97 70.8575 54.5575 73.445C57.145 76.0325 58.905 76.695 60.945 77.465C63.0925 78.275 65.53 79.1925 68.7125 82.375C71.895 85.5575 72.815 88 73.625 90.145C73.9777 91.1591 74.4133 92.1424 74.9275 93.085C75.0963 93.3814 75.1844 93.717 75.183 94.0581C75.1816 94.3993 75.0907 94.7341 74.9194 95.0291C74.7481 95.3241 74.5024 95.5691 74.2068 95.7394C73.9112 95.9098 73.5761 95.9996 73.235 96Z" fill="white"/>
<path d="M90.8 95.575C90.5418 95.5757 90.286 95.5247 90.0477 95.4251C89.8094 95.3255 89.5935 95.1792 89.4125 94.995C85.7825 91.315 84.645 88.69 83.545 86.1525C82.5275 83.8025 81.5675 81.5825 78.3125 78.3275C75.0575 75.0725 72.84 74.115 70.5 73.0975C67.9175 71.98 65.25 70.825 61.47 67.045C57.69 63.265 56.525 60.5975 55.4075 58.015C54.39 55.665 53.43 53.4475 50.1775 50.1925C46.925 46.9375 44.705 45.98 42.355 44.9625C39.7725 43.845 37.105 42.69 33.325 38.9125C33.0041 38.5396 32.8361 38.0592 32.8545 37.5676C32.8729 37.076 33.0764 36.6095 33.4242 36.2617C33.7721 35.9138 34.2386 35.7103 34.7302 35.6919C35.2217 35.6735 35.7021 35.8416 36.075 36.1625C39.325 39.4125 41.5475 40.375 43.895 41.3925C46.4775 42.5075 49.145 43.6625 52.9275 47.4425C56.71 51.2225 57.8625 53.8925 58.9775 56.475C59.995 58.8225 60.955 61.0425 64.2075 64.295C67.46 67.5475 69.6825 68.51 72.03 69.5275C74.6125 70.6425 77.28 71.7975 81.0625 75.5775C84.845 79.3575 85.9975 82.0275 87.1175 84.61C88.1175 86.92 89.0625 89.11 92.18 92.2625C92.4502 92.5362 92.6335 92.8836 92.7067 93.2612C92.7799 93.6388 92.7399 94.0295 92.5915 94.3844C92.4432 94.7393 92.1933 95.0423 91.8732 95.2555C91.5531 95.4687 91.1771 95.5824 90.7925 95.5825L90.8 95.575Z" fill="white"/>
<path d="M73.235 96C72.8908 96.0006 72.5527 95.91 72.2549 95.7374C71.9572 95.5648 71.7105 95.3164 71.54 95.0175C70.9217 93.8965 70.3982 92.7257 69.975 91.5175C69.2075 89.48 68.5425 87.72 65.955 85.13C63.3675 82.54 61.6075 81.88 59.57 81.11C57.42 80.3 54.9825 79.3825 51.8 76.2C48.6175 73.0175 47.6975 70.58 46.8875 68.43C46.12 66.3925 45.4575 64.6325 42.8675 62.0425C40.2775 59.4525 38.5175 58.7925 36.48 58.0225C35.2715 57.5998 34.1007 57.0763 32.98 56.4575C32.7579 56.3304 32.563 56.1609 32.4064 55.9585C32.2498 55.7561 32.1347 55.5249 32.0675 55.278C32.0003 55.0311 31.9823 54.7734 32.0147 54.5196C32.0471 54.2658 32.1292 54.0208 32.2562 53.7987C32.3833 53.5766 32.5528 53.3817 32.7552 53.2252C32.9576 53.0686 33.1888 52.9534 33.4357 52.8862C33.6826 52.819 33.9403 52.8011 34.1941 52.8335C34.4479 52.8659 34.6929 52.9479 34.915 53.075C35.8581 53.5873 36.8413 54.0221 37.855 54.375C40.005 55.1875 42.4425 56.105 45.625 59.29C48.8075 62.475 49.7275 64.9075 50.5375 67.0575C51.305 69.095 51.97 70.8575 54.5575 73.445C57.145 76.0325 58.905 76.695 60.945 77.465C63.0925 78.275 65.53 79.1925 68.7125 82.375C71.895 85.5575 72.815 88 73.625 90.145C73.9777 91.1591 74.4133 92.1424 74.9275 93.085C75.0963 93.3814 75.1844 93.717 75.183 94.0581C75.1816 94.3993 75.0907 94.7341 74.9194 95.0291C74.7481 95.3241 74.5024 95.5691 74.2068 95.7394C73.9112 95.9098 73.5761 95.9996 73.235 96Z" fill="white"/>
</g>
</g>
<defs>
<clipPath id="clip0_11_148">
<rect width="128" height="128" fill="white"/>
</clipPath>
<clipPath id="clip1_11_148">
<rect width="64" height="64" fill="white" transform="translate(32 32)"/>
</clipPath>
</defs>
</svg>
