<svg width="512" height="512" viewBox="0 0 512 512" fill="none" xmlns="http://www.w3.org/2000/svg">
<g clip-path="url(#clip0_1_2)">
<rect width="512" height="512" fill="white"/>
<rect width="512" height="512" rx="75" fill="#2D69EB"/>
<g clip-path="url(#clip1_1_2)">
<path d="M376.2 242.63C375.177 242.631 374.163 242.43 373.218 242.039C372.272 241.648 371.413 241.074 370.69 240.35L271.69 141.35C270.407 139.858 269.734 137.937 269.808 135.971C269.881 134.004 270.695 132.138 272.087 130.747C273.478 129.355 275.344 128.541 277.311 128.468C279.277 128.394 281.198 129.066 282.69 130.35L381.69 229.35C382.779 230.441 383.521 231.831 383.82 233.344C384.12 234.856 383.965 236.424 383.374 237.848C382.783 239.272 381.784 240.49 380.502 241.346C379.219 242.203 377.712 242.66 376.17 242.66L376.2 242.63Z" fill="white"/>
<path d="M376.2 305.77C375.177 305.771 374.163 305.57 373.218 305.179C372.272 304.788 371.413 304.214 370.69 303.49L208.51 141.31C207.227 139.818 206.554 137.897 206.628 135.931C206.701 133.964 207.515 132.098 208.907 130.707C210.298 129.315 212.164 128.501 214.131 128.428C216.097 128.354 218.018 129.026 219.51 130.31L381.72 292.46C382.809 293.551 383.551 294.941 383.85 296.454C384.15 297.966 383.995 299.534 383.404 300.958C382.813 302.382 381.814 303.6 380.532 304.456C379.249 305.313 377.742 305.77 376.2 305.77Z" fill="white"/>
<path d="M224 384C222.975 384.002 221.96 383.802 221.013 383.411C220.065 383.019 219.205 382.445 218.48 381.72L130.28 293.55C128.996 292.058 128.324 290.137 128.398 288.171C128.471 286.204 129.285 284.338 130.677 282.947C132.068 281.555 133.934 280.741 135.901 280.668C137.867 280.594 139.788 281.266 141.28 282.55L229.45 370.72C230.525 371.809 231.256 373.189 231.552 374.69C231.849 376.192 231.697 377.747 231.116 379.162C230.535 380.577 229.551 381.791 228.285 382.651C227.02 383.511 225.53 383.98 224 384Z" fill="white"/>
<path d="M376.2 242.63C375.177 242.631 374.163 242.43 373.218 242.039C372.272 241.648 371.413 241.074 370.69 240.35L271.69 141.35C270.407 139.858 269.734 137.937 269.808 135.971C269.881 134.004 270.695 132.138 272.087 130.747C273.478 129.355 275.344 128.541 277.311 128.468C279.277 128.394 281.198 129.066 282.69 130.35L381.69 229.35C382.779 230.441 383.521 231.831 383.82 233.344C384.12 234.856 383.965 236.424 383.374 237.848C382.783 239.272 381.784 240.49 380.502 241.346C379.219 242.203 377.712 242.66 376.17 242.66L376.2 242.63Z" fill="white"/>
<path d="M376.2 305.77C375.177 305.771 374.163 305.57 373.218 305.179C372.272 304.788 371.413 304.214 370.69 303.49L208.51 141.31C207.227 139.818 206.554 137.897 206.628 135.931C206.701 133.964 207.515 132.098 208.907 130.707C210.298 129.315 212.164 128.501 214.131 128.428C216.097 128.354 218.018 129.026 219.51 130.31L381.72 292.46C382.809 293.551 383.551 294.941 383.85 296.454C384.15 297.966 383.995 299.534 383.404 300.958C382.813 302.382 381.814 303.6 380.532 304.456C379.249 305.313 377.742 305.77 376.2 305.77Z" fill="white"/>
<path d="M363.2 382.3C362.167 382.303 361.144 382.099 360.191 381.7C359.238 381.302 358.374 380.717 357.65 379.98C343.13 365.26 338.58 354.76 334.18 344.61C330.11 335.21 326.27 326.33 313.25 313.31C300.23 300.29 291.36 296.46 282 292.39C271.67 287.92 261 283.3 245.88 268.18C230.76 253.06 226.1 242.39 221.63 232.06C217.56 222.66 213.72 213.79 200.71 200.77C187.7 187.75 178.82 183.92 169.42 179.85C159.09 175.38 148.42 170.77 133.3 155.65C132.96 155.31 132.65 154.99 132.3 154.65L131.88 154.22C130.437 152.733 129.644 150.735 129.675 148.663C129.706 146.592 130.558 144.618 132.045 143.175C133.532 141.732 135.53 140.939 137.602 140.97C139.673 141.001 141.647 141.853 143.09 143.34L143.55 143.82L144.33 144.62C157.33 157.62 166.22 161.47 175.61 165.54C185.94 170 196.61 174.62 211.74 189.74C226.87 204.86 231.48 215.54 235.94 225.87C240.01 235.26 243.85 244.14 256.86 257.15C269.87 270.16 278.76 274.01 288.15 278.08C298.48 282.54 309.15 287.16 324.28 302.28C339.41 317.4 344.02 328.08 348.5 338.41C352.5 347.65 356.28 356.41 368.75 369.02C369.831 370.115 370.564 371.505 370.857 373.015C371.15 374.525 370.989 376.088 370.396 377.508C369.803 378.927 368.803 380.139 367.523 380.992C366.242 381.845 364.738 382.3 363.2 382.3Z" fill="white"/>
<path d="M292.94 384C291.563 384.002 290.211 383.64 289.02 382.95C287.829 382.259 286.842 381.266 286.16 380.07C283.687 375.586 281.593 370.903 279.9 366.07C276.83 357.92 274.17 350.88 263.82 340.52C253.47 330.16 246.43 327.52 238.28 324.44C229.68 321.2 219.93 317.53 207.2 304.8C194.47 292.07 190.79 282.32 187.55 273.72C184.48 265.57 181.83 258.53 171.47 248.17C161.11 237.81 154.07 235.17 145.92 232.09C141.086 230.399 136.403 228.305 131.92 225.83C131.032 225.322 130.252 224.644 129.626 223.834C128.999 223.025 128.539 222.1 128.27 221.112C128.001 220.125 127.929 219.094 128.059 218.078C128.189 217.063 128.517 216.083 129.025 215.195C129.533 214.307 130.211 213.527 131.021 212.901C131.83 212.274 132.755 211.814 133.743 211.545C134.73 211.276 135.761 211.204 136.777 211.334C137.792 211.464 138.772 211.792 139.66 212.3C143.432 214.349 147.365 216.089 151.42 217.5C160.02 220.75 169.77 224.42 182.5 237.16C195.23 249.9 198.91 259.63 202.15 268.23C205.22 276.38 207.88 283.43 218.23 293.78C228.58 304.13 235.62 306.78 243.78 309.86C252.37 313.1 262.12 316.77 274.85 329.5C287.58 342.23 291.26 352 294.5 360.58C295.911 364.636 297.653 368.57 299.71 372.34C300.385 373.526 300.738 374.868 300.732 376.233C300.726 377.597 300.363 378.936 299.678 380.117C298.992 381.297 298.01 382.276 296.827 382.958C295.645 383.639 294.305 383.999 292.94 384Z" fill="white"/>
<path d="M363.2 382.3C362.167 382.303 361.144 382.099 360.191 381.7C359.238 381.302 358.374 380.717 357.65 379.98C343.13 365.26 338.58 354.76 334.18 344.61C330.11 335.21 326.27 326.33 313.25 313.31C300.23 300.29 291.36 296.46 282 292.39C271.67 287.92 261 283.3 245.88 268.18C230.76 253.06 226.1 242.39 221.63 232.06C217.56 222.66 213.72 213.79 200.71 200.77C187.7 187.75 178.82 183.92 169.42 179.85C159.09 175.38 148.42 170.76 133.3 155.65C132.016 154.158 131.344 152.237 131.418 150.271C131.491 148.304 132.305 146.438 133.697 145.047C135.088 143.655 136.954 142.841 138.921 142.768C140.887 142.694 142.808 143.367 144.3 144.65C157.3 157.65 166.19 161.5 175.58 165.57C185.91 170.03 196.58 174.65 211.71 189.77C226.84 204.89 231.45 215.57 235.91 225.9C239.98 235.29 243.82 244.17 256.83 257.18C269.84 270.19 278.73 274.04 288.12 278.11C298.45 282.57 309.12 287.19 324.25 302.31C339.38 317.43 343.99 328.11 348.47 338.44C352.47 347.68 356.25 356.44 368.72 369.05C369.801 370.145 370.534 371.535 370.827 373.045C371.12 374.555 370.959 376.118 370.366 377.538C369.773 378.957 368.773 380.169 367.493 381.022C366.212 381.875 364.708 382.33 363.17 382.33L363.2 382.3Z" fill="white"/>
<path d="M292.94 384C291.563 384.002 290.211 383.64 289.02 382.95C287.829 382.259 286.842 381.266 286.16 380.07C283.687 375.586 281.593 370.903 279.9 366.07C276.83 357.92 274.17 350.88 263.82 340.52C253.47 330.16 246.43 327.52 238.28 324.44C229.68 321.2 219.93 317.53 207.2 304.8C194.47 292.07 190.79 282.32 187.55 273.72C184.48 265.57 181.83 258.53 171.47 248.17C161.11 237.81 154.07 235.17 145.92 232.09C141.086 230.399 136.403 228.305 131.92 225.83C131.032 225.322 130.252 224.644 129.626 223.834C128.999 223.025 128.539 222.1 128.27 221.112C128.001 220.125 127.929 219.094 128.059 218.078C128.189 217.063 128.517 216.083 129.025 215.195C129.533 214.307 130.211 213.527 131.021 212.901C131.83 212.274 132.755 211.814 133.743 211.545C134.73 211.276 135.761 211.204 136.777 211.334C137.792 211.464 138.772 211.792 139.66 212.3C143.432 214.349 147.365 216.089 151.42 217.5C160.02 220.75 169.77 224.42 182.5 237.16C195.23 249.9 198.91 259.63 202.15 268.23C205.22 276.38 207.88 283.43 218.23 293.78C228.58 304.13 235.62 306.78 243.78 309.86C252.37 313.1 262.12 316.77 274.85 329.5C287.58 342.23 291.26 352 294.5 360.58C295.911 364.636 297.653 368.57 299.71 372.34C300.385 373.526 300.738 374.868 300.732 376.233C300.726 377.597 300.363 378.936 299.678 380.117C298.992 381.297 298.01 382.276 296.827 382.958C295.645 383.639 294.305 383.999 292.94 384Z" fill="white"/>
</g>
</g>
<defs>
<clipPath id="clip0_1_2">
<rect width="512" height="512" fill="white"/>
</clipPath>
<clipPath id="clip1_1_2">
<rect width="256" height="256" fill="white" transform="translate(128 128)"/>
</clipPath>
</defs>
</svg>
