<svg width="256" height="256" viewBox="0 0 256 256" fill="none" xmlns="http://www.w3.org/2000/svg">
<g clip-path="url(#clip0_17_14)">
<rect width="256" height="256" fill="white"/>
<rect width="256" height="256" rx="37.5" fill="#2D69EB"/>
<g clip-path="url(#clip1_17_14)">
<path d="M188.1 121.315C187.588 121.315 187.082 121.215 186.609 121.019C186.136 120.824 185.707 120.537 185.345 120.175L135.845 70.675C135.203 69.9292 134.867 68.9685 134.904 67.9853C134.941 67.0021 135.348 66.0691 136.043 65.3734C136.739 64.6777 137.672 64.2707 138.655 64.2339C139.638 64.1971 140.599 64.5332 141.345 65.175L190.845 114.675C191.39 115.221 191.76 115.916 191.91 116.672C192.06 117.428 191.982 118.212 191.687 118.924C191.392 119.636 190.892 120.245 190.251 120.673C189.61 121.101 188.856 121.33 188.085 121.33L188.1 121.315Z" fill="white"/>
<path d="M188.1 152.885C187.588 152.886 187.082 152.785 186.609 152.589C186.136 152.394 185.707 152.107 185.345 151.745L104.255 70.655C103.613 69.9093 103.277 68.9485 103.314 67.9653C103.351 66.9821 103.758 66.0492 104.453 65.3535C105.149 64.6578 106.082 64.2507 107.065 64.2139C108.048 64.1771 109.009 64.5133 109.755 65.155L190.86 146.23C191.405 146.776 191.775 147.471 191.925 148.227C192.075 148.983 191.997 149.767 191.702 150.479C191.407 151.191 190.907 151.8 190.266 152.228C189.625 152.656 188.871 152.885 188.1 152.885Z" fill="white"/>
<path d="M112 192C111.488 192.001 110.98 191.901 110.506 191.705C110.033 191.51 109.602 191.222 109.24 190.86L65.14 146.775C64.4983 146.029 64.1621 145.068 64.1989 144.085C64.2357 143.102 64.6427 142.169 65.3385 141.473C66.0342 140.778 66.9671 140.371 67.9503 140.334C68.9335 140.297 69.8942 140.633 70.64 141.275L114.725 185.36C115.263 185.904 115.628 186.595 115.776 187.345C115.924 188.096 115.848 188.873 115.558 189.581C115.268 190.289 114.775 190.895 114.143 191.326C113.51 191.756 112.765 191.99 112 192Z" fill="white"/>
<path d="M188.1 121.315C187.588 121.315 187.082 121.215 186.609 121.019C186.136 120.824 185.707 120.537 185.345 120.175L135.845 70.675C135.203 69.9292 134.867 68.9685 134.904 67.9853C134.941 67.0021 135.348 66.0691 136.043 65.3734C136.739 64.6777 137.672 64.2707 138.655 64.2339C139.638 64.1971 140.599 64.5332 141.345 65.175L190.845 114.675C191.39 115.221 191.76 115.916 191.91 116.672C192.06 117.428 191.982 118.212 191.687 118.924C191.392 119.636 190.892 120.245 190.251 120.673C189.61 121.101 188.856 121.33 188.085 121.33L188.1 121.315Z" fill="white"/>
<path d="M188.1 152.885C187.588 152.886 187.082 152.785 186.609 152.589C186.136 152.394 185.707 152.107 185.345 151.745L104.255 70.655C103.613 69.9093 103.277 68.9485 103.314 67.9653C103.351 66.9821 103.758 66.0492 104.453 65.3535C105.149 64.6578 106.082 64.2507 107.065 64.2139C108.048 64.1771 109.009 64.5133 109.755 65.155L190.86 146.23C191.405 146.776 191.775 147.471 191.925 148.227C192.075 148.983 191.997 149.767 191.702 150.479C191.407 151.191 190.907 151.8 190.266 152.228C189.625 152.656 188.871 152.885 188.1 152.885Z" fill="white"/>
<path d="M181.6 191.15C181.083 191.151 180.572 191.049 180.095 190.85C179.619 190.651 179.187 190.359 178.825 189.99C171.565 182.63 169.29 177.38 167.09 172.305C165.055 167.605 163.135 163.165 156.625 156.655C150.115 150.145 145.68 148.23 141 146.195C135.835 143.96 130.5 141.65 122.94 134.09C115.38 126.53 113.05 121.195 110.815 116.03C108.78 111.33 106.86 106.895 100.355 100.385C93.85 93.875 89.41 91.96 84.71 89.925C79.545 87.69 74.21 85.385 66.65 77.825C66.48 77.655 66.325 77.495 66.15 77.325L65.94 77.11C65.2186 76.3667 64.822 75.3673 64.8375 74.3317C64.8529 73.296 65.2792 72.3089 66.0225 71.5875C66.7657 70.8661 67.7651 70.4695 68.8008 70.485C69.8365 70.5005 70.8236 70.9267 71.545 71.67L71.775 71.91L72.165 72.31C78.665 78.81 83.11 80.735 87.805 82.77C92.97 85 98.305 87.31 105.87 94.87C113.435 102.43 115.74 107.77 117.97 112.935C120.005 117.63 121.925 122.07 128.43 128.575C134.935 135.08 139.38 137.005 144.075 139.04C149.24 141.27 154.575 143.58 162.14 151.14C169.705 158.7 172.01 164.04 174.25 169.205C176.25 173.825 178.14 178.205 184.375 184.51C184.915 185.057 185.282 185.752 185.428 186.507C185.575 187.263 185.495 188.044 185.198 188.754C184.901 189.464 184.402 190.07 183.761 190.496C183.121 190.922 182.369 191.15 181.6 191.15Z" fill="white"/>
<path d="M146.47 192C145.782 192.001 145.105 191.82 144.51 191.475C143.914 191.13 143.421 190.633 143.08 190.035C141.843 187.793 140.796 185.451 139.95 183.035C138.415 178.96 137.085 175.44 131.91 170.26C126.735 165.08 123.215 163.76 119.14 162.22C114.84 160.6 109.965 158.765 103.6 152.4C97.235 146.035 95.395 141.16 93.775 136.86C92.24 132.785 90.915 129.265 85.735 124.085C80.555 118.905 77.035 117.585 72.96 116.045C70.543 115.2 68.2015 114.153 65.96 112.915C65.5158 112.661 65.126 112.322 64.8128 111.917C64.4997 111.512 64.2693 111.05 64.1349 110.556C64.0005 110.062 63.9647 109.547 64.0295 109.039C64.0942 108.532 64.2584 108.042 64.5125 107.597C64.7666 107.153 65.1057 106.763 65.5104 106.45C65.9152 106.137 66.3777 105.907 66.8714 105.772C67.3652 105.638 67.8806 105.602 68.3883 105.667C68.8959 105.732 69.3858 105.896 69.83 106.15C71.7162 107.175 73.6827 108.044 75.71 108.75C80.01 110.375 84.885 112.21 91.25 118.58C97.615 124.95 99.455 129.815 101.075 134.115C102.61 138.19 103.94 141.715 109.115 146.89C114.29 152.065 117.81 153.39 121.89 154.93C126.185 156.55 131.06 158.385 137.425 164.75C143.79 171.115 145.63 176 147.25 180.29C147.955 182.318 148.827 184.285 149.855 186.17C150.193 186.763 150.369 187.434 150.366 188.116C150.363 188.799 150.181 189.468 149.839 190.058C149.496 190.648 149.005 191.138 148.414 191.479C147.822 191.82 147.152 191.999 146.47 192Z" fill="white"/>
<path d="M181.6 191.15C181.084 191.151 180.572 191.049 180.095 190.85C179.619 190.651 179.187 190.359 178.825 189.99C171.565 182.63 169.29 177.38 167.09 172.305C165.055 167.605 163.135 163.165 156.625 156.655C150.115 150.145 145.68 148.23 141 146.195C135.835 143.96 130.5 141.65 122.94 134.09C115.38 126.53 113.05 121.195 110.815 116.03C108.78 111.33 106.86 106.895 100.355 100.385C93.85 93.875 89.41 91.96 84.71 89.925C79.545 87.69 74.21 85.38 66.65 77.825C66.0083 77.0792 65.6721 76.1185 65.7089 75.1353C65.7457 74.1521 66.1528 73.2192 66.8485 72.5235C67.5442 71.8277 68.4771 71.4207 69.4603 71.3839C70.4435 71.3471 71.4043 71.6833 72.15 72.325C78.65 78.825 83.095 80.75 87.79 82.785C92.955 85.015 98.29 87.325 105.855 94.885C113.42 102.445 115.725 107.785 117.955 112.95C119.99 117.645 121.91 122.085 128.415 128.59C134.92 135.095 139.365 137.02 144.06 139.055C149.225 141.285 154.56 143.595 162.125 151.155C169.69 158.715 171.995 164.055 174.235 169.22C176.235 173.84 178.125 178.22 184.36 184.525C184.9 185.072 185.267 185.767 185.413 186.522C185.56 187.278 185.48 188.059 185.183 188.769C184.886 189.479 184.387 190.085 183.746 190.511C183.106 190.937 182.354 191.165 181.585 191.165L181.6 191.15Z" fill="white"/>
<path d="M146.47 192C145.782 192.001 145.105 191.82 144.51 191.475C143.914 191.13 143.421 190.633 143.08 190.035C141.843 187.793 140.796 185.451 139.95 183.035C138.415 178.96 137.085 175.44 131.91 170.26C126.735 165.08 123.215 163.76 119.14 162.22C114.84 160.6 109.965 158.765 103.6 152.4C97.235 146.035 95.395 141.16 93.775 136.86C92.24 132.785 90.915 129.265 85.735 124.085C80.555 118.905 77.035 117.585 72.96 116.045C70.543 115.2 68.2015 114.153 65.96 112.915C65.5158 112.661 65.126 112.322 64.8128 111.917C64.4997 111.512 64.2693 111.05 64.1349 110.556C64.0005 110.062 63.9647 109.547 64.0295 109.039C64.0942 108.532 64.2584 108.042 64.5125 107.597C64.7666 107.153 65.1057 106.763 65.5104 106.45C65.9152 106.137 66.3777 105.907 66.8714 105.772C67.3652 105.638 67.8806 105.602 68.3883 105.667C68.8959 105.732 69.3858 105.896 69.83 106.15C71.7162 107.175 73.6827 108.044 75.71 108.75C80.01 110.375 84.885 112.21 91.25 118.58C97.615 124.95 99.455 129.815 101.075 134.115C102.61 138.19 103.94 141.715 109.115 146.89C114.29 152.065 117.81 153.39 121.89 154.93C126.185 156.55 131.06 158.385 137.425 164.75C143.79 171.115 145.63 176 147.25 180.29C147.955 182.318 148.827 184.285 149.855 186.17C150.193 186.763 150.369 187.434 150.366 188.116C150.363 188.799 150.181 189.468 149.839 190.058C149.496 190.648 149.005 191.138 148.414 191.479C147.822 191.82 147.152 191.999 146.47 192Z" fill="white"/>
</g>
</g>
<defs>
<clipPath id="clip0_17_14">
<rect width="256" height="256" fill="white"/>
</clipPath>
<clipPath id="clip1_17_14">
<rect width="128" height="128" fill="white" transform="translate(64 64)"/>
</clipPath>
</defs>
</svg>
