<svg width="192" height="192" viewBox="0 0 192 192" fill="none" xmlns="http://www.w3.org/2000/svg">
<g clip-path="url(#clip0_11_124)">
<rect width="192" height="192" fill="white"/>
<rect width="192" height="192" rx="45" fill="#2D69EB"/>
<g clip-path="url(#clip1_11_124)">
<path d="M141.075 90.9862C140.691 90.9866 140.311 90.9113 139.957 90.7645C139.602 90.6178 139.28 90.4026 139.009 90.1312L101.884 53.0062C101.402 52.4469 101.15 51.7263 101.178 50.9889C101.206 50.2515 101.511 49.5518 102.033 49.0301C102.554 48.5083 103.254 48.203 103.991 48.1754C104.729 48.1478 105.449 48.3999 106.009 48.8812L143.134 86.0062C143.542 86.4155 143.82 86.9367 143.933 87.5039C144.045 88.0711 143.987 88.6589 143.765 89.193C143.544 89.7271 143.169 90.1836 142.688 90.5048C142.207 90.826 141.642 90.9974 141.064 90.9975L141.075 90.9862Z" fill="white"/>
<path d="M141.075 114.664C140.691 114.664 140.311 114.589 139.957 114.442C139.602 114.295 139.28 114.08 139.009 113.809L78.1913 52.9913C77.7099 52.4319 77.4578 51.7114 77.4854 50.974C77.513 50.2366 77.8183 49.5369 78.3401 49.0151C78.8619 48.4933 79.5616 48.188 80.299 48.1604C81.0364 48.1328 81.7569 48.385 82.3163 48.8663L143.145 109.673C143.553 110.082 143.831 110.603 143.944 111.17C144.056 111.737 143.998 112.325 143.777 112.859C143.555 113.393 143.18 113.85 142.699 114.171C142.218 114.492 141.653 114.664 141.075 114.664Z" fill="white"/>
<path d="M84 144C83.6157 144.001 83.2349 143.926 82.8797 143.779C82.5245 143.632 82.2017 143.417 81.93 143.145L48.855 110.081C48.3737 109.522 48.1216 108.801 48.1492 108.064C48.1768 107.327 48.4821 106.627 49.0038 106.105C49.5256 105.583 50.2253 105.278 50.9627 105.25C51.7001 105.223 52.4207 105.475 52.98 105.956L86.0438 139.02C86.4469 139.428 86.7211 139.946 86.8322 140.509C86.9432 141.072 86.8863 141.655 86.6685 142.186C86.4507 142.717 86.0815 143.172 85.6071 143.494C85.1326 143.817 84.5737 143.993 84 144Z" fill="white"/>
<path d="M141.075 90.9862C140.691 90.9866 140.311 90.9113 139.957 90.7645C139.602 90.6178 139.28 90.4026 139.009 90.1312L101.884 53.0062C101.402 52.4469 101.15 51.7263 101.178 50.9889C101.206 50.2515 101.511 49.5518 102.033 49.0301C102.554 48.5083 103.254 48.203 103.991 48.1754C104.729 48.1478 105.449 48.3999 106.009 48.8812L143.134 86.0062C143.542 86.4155 143.82 86.9367 143.933 87.5039C144.045 88.0711 143.987 88.6589 143.765 89.193C143.544 89.7271 143.169 90.1836 142.688 90.5048C142.207 90.826 141.642 90.9974 141.064 90.9975L141.075 90.9862Z" fill="white"/>
<path d="M141.075 114.664C140.691 114.664 140.311 114.589 139.957 114.442C139.602 114.295 139.28 114.08 139.009 113.809L78.1913 52.9913C77.7099 52.4319 77.4578 51.7114 77.4854 50.974C77.513 50.2366 77.8183 49.5369 78.3401 49.0151C78.8619 48.4933 79.5616 48.188 80.299 48.1604C81.0364 48.1328 81.7569 48.385 82.3163 48.8663L143.145 109.673C143.553 110.082 143.831 110.603 143.944 111.17C144.056 111.737 143.998 112.325 143.777 112.859C143.555 113.393 143.18 113.85 142.699 114.171C142.218 114.492 141.653 114.664 141.075 114.664Z" fill="white"/>
<path d="M136.2 143.362C135.813 143.363 135.429 143.287 135.072 143.138C134.714 142.988 134.39 142.769 134.119 142.492C128.674 136.972 126.968 133.035 125.318 129.229C123.791 125.704 122.351 122.374 117.469 117.491C112.586 112.609 109.26 111.172 105.75 109.646C101.876 107.97 97.875 106.237 92.205 100.567C86.535 94.8975 84.7875 90.8962 83.1113 87.0225C81.585 83.4975 80.145 80.1712 75.2663 75.2887C70.3875 70.4062 67.0575 68.97 63.5325 67.4437C59.6588 65.7675 55.6575 64.0387 49.9875 58.3687C49.86 58.2412 49.7438 58.1212 49.6125 57.9937L49.455 57.8325C48.914 57.275 48.6165 56.5255 48.6281 55.7487C48.6397 54.972 48.9594 54.2316 49.5169 53.6906C50.0743 53.1496 50.8239 52.8521 51.6006 52.8637C52.3774 52.8753 53.1177 53.195 53.6588 53.7525L53.8313 53.9325L54.1238 54.2325C58.9988 59.1075 62.3325 60.5512 65.8538 62.0775C69.7275 63.75 73.7288 65.4825 79.4025 71.1525C85.0763 76.8225 86.805 80.8275 88.4775 84.7012C90.0038 88.2225 91.4438 91.5525 96.3225 96.4312C101.201 101.31 104.535 102.754 108.056 104.28C111.93 105.952 115.931 107.685 121.605 113.355C127.279 119.025 129.008 123.03 130.688 126.904C132.188 130.369 133.605 133.654 138.281 138.382C138.687 138.793 138.961 139.314 139.071 139.881C139.181 140.447 139.121 141.033 138.899 141.565C138.676 142.098 138.301 142.552 137.821 142.872C137.341 143.192 136.777 143.362 136.2 143.362Z" fill="white"/>
<path d="M109.853 144C109.336 144.001 108.829 143.865 108.382 143.606C107.936 143.347 107.566 142.975 107.31 142.526C106.383 140.845 105.597 139.089 104.962 137.276C103.811 134.22 102.814 131.58 98.9325 127.695C95.0513 123.81 92.4112 122.82 89.355 121.665C86.13 120.45 82.4737 119.074 77.7 114.3C72.9262 109.526 71.5462 105.87 70.3312 102.645C69.18 99.5888 68.1863 96.9488 64.3013 93.0638C60.4163 89.1788 57.7762 88.1888 54.72 87.0338C52.9073 86.3998 51.1511 85.6145 49.47 84.6863C49.1369 84.4957 48.8445 84.2414 48.6097 83.9378C48.3748 83.6342 48.202 83.2874 48.1012 82.917C48.0004 82.5467 47.9735 82.1602 48.0221 81.7794C48.0707 81.3987 48.1938 81.0313 48.3844 80.6981C48.575 80.365 48.8293 80.0726 49.1329 79.8378C49.4364 79.6029 49.7833 79.4302 50.1536 79.3294C50.5239 79.2286 50.9105 79.2017 51.2912 79.2503C51.6719 79.2988 52.0394 79.4219 52.3725 79.6125C53.7872 80.381 55.262 81.0332 56.7825 81.5625C60.0075 82.7813 63.6638 84.1575 68.4375 88.935C73.2112 93.7125 74.5913 97.3613 75.8063 100.586C76.9575 103.643 77.955 106.286 81.8363 110.168C85.7175 114.049 88.3575 115.043 91.4175 116.198C94.6387 117.413 98.295 118.789 103.069 123.563C107.843 128.336 109.222 132 110.438 135.218C110.967 136.739 111.62 138.214 112.391 139.628C112.644 140.072 112.777 140.576 112.774 141.087C112.772 141.599 112.636 142.101 112.379 142.544C112.122 142.986 111.754 143.354 111.31 143.609C110.867 143.865 110.364 143.999 109.853 144Z" fill="white"/>
<path d="M136.2 143.363C135.813 143.364 135.429 143.287 135.072 143.138C134.714 142.988 134.39 142.769 134.119 142.493C128.674 136.973 126.967 133.035 125.317 129.229C123.791 125.704 122.351 122.374 117.469 117.491C112.586 112.609 109.26 111.173 105.75 109.646C101.876 107.97 97.875 106.238 92.205 100.568C86.535 94.8975 84.7875 90.8963 83.1113 87.0225C81.585 83.4975 80.145 80.1713 75.2663 75.2888C70.3875 70.4063 67.0575 68.97 63.5325 67.4438C59.6588 65.7675 55.6575 64.035 49.9875 58.3688C49.5062 57.8094 49.2541 57.0889 49.2817 56.3515C49.3093 55.6141 49.6146 54.9144 50.1363 54.3926C50.6581 53.8708 51.3578 53.5655 52.0952 53.5379C52.8326 53.5103 53.5532 53.7625 54.1125 54.2438C58.9875 59.1188 62.3213 60.5625 65.8425 62.0888C69.7163 63.7613 73.7175 65.4938 79.3913 71.1638C85.065 76.8338 86.7938 80.8388 88.4663 84.7125C89.9925 88.2338 91.4325 91.5638 96.3113 96.4425C101.19 101.321 104.524 102.765 108.045 104.291C111.919 105.964 115.92 107.696 121.594 113.366C127.268 119.036 128.996 123.041 130.676 126.915C132.176 130.38 133.594 133.665 138.27 138.394C138.675 138.804 138.95 139.326 139.06 139.892C139.17 140.458 139.11 141.044 138.887 141.577C138.665 142.109 138.29 142.564 137.81 142.883C137.33 143.203 136.766 143.374 136.189 143.374L136.2 143.363Z" fill="white"/>
<path d="M109.853 144C109.336 144.001 108.829 143.865 108.382 143.606C107.936 143.347 107.566 142.975 107.31 142.526C106.383 140.845 105.597 139.089 104.962 137.276C103.811 134.22 102.814 131.58 98.9325 127.695C95.0513 123.81 92.4112 122.82 89.355 121.665C86.13 120.45 82.4737 119.074 77.7 114.3C72.9262 109.526 71.5462 105.87 70.3312 102.645C69.18 99.5888 68.1863 96.9488 64.3013 93.0638C60.4163 89.1788 57.7762 88.1888 54.72 87.0338C52.9073 86.3998 51.1511 85.6145 49.47 84.6863C49.1369 84.4957 48.8445 84.2414 48.6097 83.9378C48.3748 83.6342 48.202 83.2874 48.1012 82.917C48.0004 82.5467 47.9735 82.1602 48.0221 81.7794C48.0707 81.3987 48.1938 81.0313 48.3844 80.6981C48.575 80.365 48.8293 80.0726 49.1329 79.8378C49.4364 79.6029 49.7833 79.4302 50.1536 79.3294C50.5239 79.2286 50.9105 79.2017 51.2912 79.2503C51.6719 79.2988 52.0394 79.4219 52.3725 79.6125C53.7872 80.381 55.262 81.0332 56.7825 81.5625C60.0075 82.7813 63.6638 84.1575 68.4375 88.935C73.2112 93.7125 74.5913 97.3613 75.8063 100.586C76.9575 103.643 77.955 106.286 81.8363 110.168C85.7175 114.049 88.3575 115.043 91.4175 116.198C94.6387 117.413 98.295 118.789 103.069 123.563C107.843 128.336 109.222 132 110.438 135.218C110.967 136.739 111.62 138.214 112.391 139.628C112.644 140.072 112.777 140.576 112.774 141.087C112.772 141.599 112.636 142.101 112.379 142.544C112.122 142.986 111.754 143.354 111.31 143.609C110.867 143.865 110.364 143.999 109.853 144Z" fill="white"/>
</g>
</g>
<defs>
<clipPath id="clip0_11_124">
<rect width="192" height="192" fill="white"/>
</clipPath>
<clipPath id="clip1_11_124">
<rect width="96" height="96" fill="white" transform="translate(48 48)"/>
</clipPath>
</defs>
</svg>
