<svg width="144" height="144" viewBox="0 0 144 144" fill="none" xmlns="http://www.w3.org/2000/svg">
<g clip-path="url(#clip0_11_136)">
<rect width="144" height="144" fill="white"/>
<rect width="144" height="144" rx="21" fill="#2D69EB"/>
<g clip-path="url(#clip1_11_136)">
<path d="M105.806 68.2397C105.518 68.2399 105.233 68.1834 104.968 68.0734C104.702 67.9634 104.46 67.802 104.257 67.5984L76.4128 39.7547C76.0518 39.3352 75.8627 38.7947 75.8834 38.2417C75.9041 37.6887 76.1331 37.1639 76.5244 36.7725C76.9158 36.3812 77.4406 36.1522 77.9936 36.1315C78.5466 36.1108 79.0871 36.2999 79.5066 36.6609L107.35 64.5047C107.657 64.8116 107.865 65.2025 107.949 65.6279C108.034 66.0533 107.99 66.4942 107.824 66.8948C107.658 67.2953 107.377 67.6377 107.016 67.8786C106.655 68.1195 106.231 68.2481 105.798 68.2481L105.806 68.2397Z" fill="white"/>
<path d="M105.806 85.9978C105.518 85.9981 105.233 85.9416 104.968 85.8316C104.702 85.7215 104.46 85.5601 104.257 85.3566L58.6434 39.7434C58.2824 39.3239 58.0934 38.7835 58.1141 38.2305C58.1348 37.6774 58.3637 37.1526 58.7551 36.7613C59.1464 36.37 59.6712 36.141 60.2242 36.1203C60.7773 36.0996 61.3177 36.2887 61.7372 36.6497L107.359 82.2544C107.665 82.5613 107.874 82.9522 107.958 83.3776C108.042 83.803 107.999 84.2439 107.832 84.6445C107.666 85.0451 107.385 85.3874 107.024 85.6283C106.664 85.8692 106.24 85.9978 105.806 85.9978Z" fill="white"/>
<path d="M63 108C62.7117 108.001 62.4262 107.944 62.1598 107.834C61.8933 107.724 61.6513 107.563 61.4475 107.359L36.6412 82.5609C36.2803 82.1414 36.0912 81.601 36.1119 81.048C36.1326 80.4949 36.3615 79.9702 36.7529 79.5788C37.1442 79.1875 37.669 78.9585 38.222 78.9378C38.7751 78.9171 39.3155 79.1062 39.735 79.4672L64.5328 104.265C64.8352 104.571 65.0408 104.96 65.1241 105.382C65.2074 105.804 65.1647 106.241 65.0014 106.639C64.838 107.037 64.5611 107.379 64.2053 107.621C63.8494 107.863 63.4303 107.994 63 108Z" fill="white"/>
<path d="M105.806 68.2397C105.518 68.2399 105.233 68.1834 104.968 68.0734C104.702 67.9634 104.46 67.802 104.257 67.5984L76.4128 39.7547C76.0518 39.3352 75.8627 38.7947 75.8834 38.2417C75.9041 37.6887 76.1331 37.1639 76.5244 36.7725C76.9158 36.3812 77.4406 36.1522 77.9936 36.1315C78.5466 36.1108 79.0871 36.2999 79.5066 36.6609L107.35 64.5047C107.657 64.8116 107.865 65.2025 107.949 65.6279C108.034 66.0533 107.99 66.4942 107.824 66.8948C107.658 67.2953 107.377 67.6377 107.016 67.8786C106.655 68.1195 106.231 68.2481 105.798 68.2481L105.806 68.2397Z" fill="white"/>
<path d="M105.806 85.9978C105.518 85.9981 105.233 85.9416 104.968 85.8316C104.702 85.7215 104.46 85.5601 104.257 85.3566L58.6434 39.7434C58.2824 39.3239 58.0934 38.7835 58.1141 38.2305C58.1348 37.6774 58.3637 37.1526 58.7551 36.7613C59.1464 36.37 59.6712 36.141 60.2242 36.1203C60.7773 36.0996 61.3177 36.2887 61.7372 36.6497L107.359 82.2544C107.665 82.5613 107.874 82.9522 107.958 83.3776C108.042 83.803 107.999 84.2439 107.832 84.6445C107.666 85.0451 107.385 85.3874 107.024 85.6283C106.664 85.8692 106.24 85.9978 105.806 85.9978Z" fill="white"/>
<path d="M102.15 107.522C101.859 107.523 101.572 107.465 101.304 107.353C101.036 107.241 100.793 107.077 100.589 106.869C96.5053 102.729 95.2256 99.7763 93.9881 96.9216C92.8434 94.2778 91.7635 91.7803 88.1016 88.1185C84.4397 84.4566 81.945 83.3794 79.3125 82.2347C76.4072 80.9775 73.4063 79.6781 69.1538 75.4256C64.9013 71.1731 63.5906 68.1722 62.3334 65.2669C61.1888 62.6231 60.1088 60.1285 56.4497 56.4666C52.7906 52.8047 50.2931 51.7275 47.6494 50.5828C44.7441 49.3256 41.7431 48.0291 37.4906 43.7766C37.395 43.681 37.3078 43.591 37.2094 43.4953L37.0913 43.3744C36.6855 42.9563 36.4624 42.3941 36.4711 41.8116C36.4798 41.229 36.7196 40.6738 37.1377 40.268C37.5558 39.8622 38.1179 39.6391 38.7005 39.6478C39.283 39.6565 39.8383 39.8963 40.2441 40.3144L40.3734 40.4494L40.5928 40.6744C44.2491 44.3306 46.7494 45.4135 49.3903 46.5581C52.2956 47.8125 55.2966 49.1119 59.5519 53.3644C63.8072 57.6169 65.1038 60.6206 66.3581 63.526C67.5028 66.1669 68.5828 68.6644 72.2419 72.3235C75.9009 75.9825 78.4013 77.0653 81.0422 78.21C83.9475 79.4644 86.9484 80.7638 91.2038 85.0163C95.4591 89.2688 96.7556 92.2725 98.0156 95.1778C99.1406 97.7766 100.204 100.24 103.711 103.787C104.015 104.095 104.221 104.486 104.303 104.91C104.386 105.335 104.341 105.775 104.174 106.174C104.007 106.573 103.726 106.914 103.366 107.154C103.006 107.394 102.583 107.522 102.15 107.522Z" fill="white"/>
<path d="M82.3894 108C82.0022 108.001 81.6218 107.899 81.2868 107.705C80.9519 107.51 80.6744 107.231 80.4825 106.895C79.7869 105.634 79.198 104.316 78.7219 102.957C77.8584 100.665 77.1103 98.685 74.1994 95.7712C71.2884 92.8575 69.3084 92.115 67.0163 91.2487C64.5975 90.3375 61.8553 89.3053 58.275 85.725C54.6947 82.1447 53.6597 79.4025 52.7484 76.9837C51.885 74.6916 51.1397 72.7116 48.2259 69.7978C45.3122 66.8841 43.3322 66.1416 41.04 65.2753C39.6805 64.7998 38.3634 64.2109 37.1025 63.5147C36.8526 63.3717 36.6334 63.181 36.4572 62.9533C36.2811 62.7257 36.1515 62.4655 36.0759 62.1878C36.0003 61.91 35.9802 61.6201 36.0166 61.3346C36.053 61.049 36.1454 60.7735 36.2883 60.5236C36.4312 60.2737 36.622 60.0545 36.8496 59.8783C37.0773 59.7022 37.3375 59.5726 37.6152 59.497C37.893 59.4214 38.1829 59.4012 38.4684 59.4377C38.754 59.4741 39.0295 59.5664 39.2794 59.7094C40.3404 60.2858 41.4465 60.7749 42.5869 61.1719C45.0056 62.0859 47.7478 63.1181 51.3281 66.7012C54.9084 70.2844 55.9434 73.0209 56.8547 75.4397C57.7181 77.7319 58.4663 79.7147 61.3772 82.6256C64.2881 85.5366 66.2681 86.2819 68.5631 87.1481C70.9791 88.0594 73.7213 89.0916 77.3016 92.6719C80.8819 96.2522 81.9169 99 82.8281 101.413C83.2249 102.554 83.715 103.66 84.2934 104.721C84.4834 105.054 84.5825 105.432 84.5809 105.815C84.5793 106.199 84.477 106.576 84.2843 106.908C84.0916 107.24 83.8152 107.515 83.4827 107.707C83.1502 107.899 82.7732 108 82.3894 108Z" fill="white"/>
<path d="M102.15 107.522C101.859 107.523 101.572 107.465 101.304 107.353C101.036 107.241 100.793 107.077 100.589 106.869C96.5053 102.729 95.2256 99.7763 93.9881 96.9216C92.8434 94.2778 91.7634 91.7803 88.1016 88.1185C84.4397 84.4566 81.945 83.3794 79.3125 82.2347C76.4072 80.9775 73.4063 79.6781 69.1538 75.4256C64.9013 71.1731 63.5906 68.1722 62.3334 65.2669C61.1888 62.6231 60.1088 60.1285 56.4497 56.4666C52.7906 52.8047 50.2931 51.7275 47.6494 50.5828C44.7441 49.3256 41.7431 48.0263 37.4906 43.7766C37.1296 43.3571 36.9406 42.8167 36.9613 42.2636C36.982 41.7106 37.2109 41.1858 37.6023 40.7945C37.9936 40.4031 38.5184 40.1742 39.0714 40.1535C39.6245 40.1328 40.1649 40.3218 40.5844 40.6828C44.2406 44.3391 46.7409 45.4219 49.3819 46.5666C52.2872 47.821 55.2881 49.1203 59.5434 53.3728C63.7988 57.6253 65.0953 60.6291 66.3497 63.5344C67.4944 66.1753 68.5744 68.6728 72.2334 72.3319C75.8925 75.991 78.3928 77.0738 81.0338 78.2185C83.9391 79.4728 86.94 80.7722 91.1953 85.0247C95.4506 89.2772 96.7472 92.281 98.0072 95.1863C99.1322 97.785 100.195 100.249 103.703 103.795C104.006 104.103 104.213 104.494 104.295 104.919C104.377 105.344 104.332 105.783 104.165 106.182C103.999 106.582 103.717 106.923 103.357 107.162C102.997 107.402 102.574 107.53 102.142 107.53L102.15 107.522Z" fill="white"/>
<path d="M82.3894 108C82.0022 108.001 81.6218 107.899 81.2868 107.705C80.9519 107.51 80.6744 107.231 80.4825 106.895C79.7869 105.634 79.198 104.316 78.7219 102.957C77.8584 100.665 77.1103 98.685 74.1994 95.7712C71.2884 92.8575 69.3084 92.115 67.0163 91.2487C64.5975 90.3375 61.8553 89.3053 58.275 85.725C54.6947 82.1447 53.6597 79.4025 52.7484 76.9837C51.885 74.6916 51.1397 72.7116 48.2259 69.7978C45.3122 66.8841 43.3322 66.1416 41.04 65.2753C39.6805 64.7998 38.3634 64.2109 37.1025 63.5147C36.8526 63.3717 36.6334 63.181 36.4572 62.9533C36.2811 62.7257 36.1515 62.4655 36.0759 62.1878C36.0003 61.91 35.9802 61.6201 36.0166 61.3346C36.053 61.049 36.1454 60.7735 36.2883 60.5236C36.4312 60.2737 36.622 60.0545 36.8496 59.8783C37.0773 59.7022 37.3375 59.5726 37.6152 59.497C37.893 59.4214 38.1829 59.4012 38.4684 59.4377C38.754 59.4741 39.0295 59.5664 39.2794 59.7094C40.3404 60.2858 41.4465 60.7749 42.5869 61.1719C45.0056 62.0859 47.7478 63.1181 51.3281 66.7012C54.9084 70.2844 55.9434 73.0209 56.8547 75.4397C57.7181 77.7319 58.4663 79.7147 61.3772 82.6256C64.2881 85.5366 66.2681 86.2819 68.5631 87.1481C70.9791 88.0594 73.7213 89.0916 77.3016 92.6719C80.8819 96.2522 81.9169 99 82.8281 101.413C83.2249 102.554 83.715 103.66 84.2934 104.721C84.4834 105.054 84.5825 105.432 84.5809 105.815C84.5793 106.199 84.477 106.576 84.2843 106.908C84.0916 107.24 83.8152 107.515 83.4827 107.707C83.1502 107.899 82.7732 108 82.3894 108Z" fill="white"/>
</g>
</g>
<defs>
<clipPath id="clip0_11_136">
<rect width="144" height="144" fill="white"/>
</clipPath>
<clipPath id="clip1_11_136">
<rect width="72" height="72" fill="white" transform="translate(36 36)"/>
</clipPath>
</defs>
</svg>
