<svg width="1024" height="1024" viewBox="0 0 1024 1024" fill="none" xmlns="http://www.w3.org/2000/svg">
<g clip-path="url(#clip0_11_160)">
<rect width="1024" height="1024" fill="white"/>
<rect width="1024" height="1024" rx="150" fill="#2D69EB"/>
<g clip-path="url(#clip1_11_160)">
<path d="M752.4 485.26C750.353 485.262 748.327 484.86 746.436 484.078C744.545 483.295 742.827 482.147 741.38 480.7L543.38 282.7C540.813 279.717 539.468 275.874 539.615 271.941C539.763 268.008 541.391 264.277 544.174 261.494C546.956 258.711 550.688 257.083 554.621 256.936C558.554 256.788 562.397 258.133 565.38 260.7L763.38 458.7C765.558 460.883 767.041 463.662 767.641 466.687C768.24 469.713 767.929 472.848 766.748 475.696C765.567 478.545 763.567 480.979 761.003 482.692C758.438 484.405 755.424 485.32 752.34 485.32L752.4 485.26Z" fill="white"/>
<path d="M752.4 611.54C750.354 611.542 748.327 611.14 746.436 610.358C744.545 609.575 742.827 608.427 741.38 606.98L417.02 282.62C414.453 279.637 413.108 275.794 413.256 271.861C413.403 267.928 415.031 264.197 417.814 261.414C420.597 258.631 424.328 257.003 428.261 256.856C432.194 256.708 436.037 258.053 439.02 260.62L763.44 584.92C765.619 587.103 767.101 589.882 767.701 592.907C768.3 595.933 767.99 599.068 766.808 601.916C765.627 604.765 763.628 607.199 761.063 608.912C758.499 610.625 755.484 611.54 752.4 611.54Z" fill="white"/>
<path d="M448 768C445.95 768.005 443.92 767.604 442.025 766.822C440.13 766.039 438.409 764.89 436.96 763.44L260.56 587.1C257.993 584.117 256.648 580.274 256.796 576.341C256.943 572.408 258.571 568.677 261.354 565.894C264.137 563.111 267.868 561.483 271.801 561.336C275.734 561.188 279.577 562.533 282.56 565.1L458.9 741.44C461.05 743.617 462.512 746.379 463.105 749.381C463.697 752.383 463.394 755.493 462.232 758.324C461.07 761.155 459.102 763.582 456.571 765.302C454.04 767.023 451.06 767.961 448 768Z" fill="white"/>
<path d="M752.4 485.26C750.353 485.262 748.327 484.86 746.436 484.078C744.545 483.295 742.827 482.147 741.38 480.7L543.38 282.7C540.813 279.717 539.468 275.874 539.615 271.941C539.763 268.008 541.391 264.277 544.174 261.494C546.956 258.711 550.688 257.083 554.621 256.936C558.554 256.788 562.397 258.133 565.38 260.7L763.38 458.7C765.558 460.883 767.041 463.662 767.641 466.687C768.24 469.713 767.929 472.848 766.748 475.696C765.567 478.545 763.567 480.979 761.003 482.692C758.438 484.405 755.424 485.32 752.34 485.32L752.4 485.26Z" fill="white"/>
<path d="M752.4 611.54C750.354 611.542 748.327 611.14 746.436 610.358C744.545 609.575 742.827 608.427 741.38 606.98L417.02 282.62C414.453 279.637 413.108 275.794 413.256 271.861C413.403 267.928 415.031 264.197 417.814 261.414C420.597 258.631 424.328 257.003 428.261 256.856C432.194 256.708 436.037 258.053 439.02 260.62L763.44 584.92C765.619 587.103 767.101 589.882 767.701 592.907C768.3 595.933 767.99 599.068 766.808 601.916C765.627 604.765 763.628 607.199 761.063 608.912C758.499 610.625 755.484 611.54 752.4 611.54Z" fill="white"/>
<path d="M726.4 764.6C724.334 764.605 722.288 764.198 720.381 763.401C718.475 762.604 716.747 761.434 715.3 759.96C686.26 730.52 677.16 709.52 668.36 689.22C660.22 670.42 652.54 652.66 626.5 626.62C600.46 600.58 582.72 592.92 564 584.78C543.34 575.84 522 566.6 491.76 536.36C461.52 506.12 452.2 484.78 443.26 464.12C435.12 445.32 427.44 427.58 401.42 401.54C375.4 375.5 357.64 367.84 338.84 359.7C318.18 350.76 296.84 341.54 266.6 311.3C265.92 310.62 265.3 309.98 264.6 309.3L263.76 308.44C260.874 305.467 259.288 301.469 259.35 297.327C259.412 293.184 261.117 289.236 264.09 286.35C267.063 283.464 271.061 281.878 275.203 281.94C279.346 282.002 283.294 283.707 286.18 286.68L287.1 287.64L288.66 289.24C314.66 315.24 332.44 322.94 351.22 331.08C371.88 340 393.22 349.24 423.48 379.48C453.74 409.72 462.96 431.08 471.88 451.74C480.02 470.52 487.7 488.28 513.72 514.3C539.74 540.32 557.52 548.02 576.3 556.16C596.96 565.08 618.3 574.32 648.56 604.56C678.82 634.8 688.04 656.16 697 676.82C705 695.3 712.56 712.82 737.5 738.04C739.662 740.23 741.127 743.009 741.713 746.03C742.299 749.05 741.979 752.177 740.792 755.015C739.606 757.854 737.606 760.279 735.046 761.984C732.485 763.69 729.477 764.6 726.4 764.6Z" fill="white"/>
<path d="M585.88 768C583.127 768.005 580.421 767.28 578.04 765.899C575.658 764.519 573.684 762.531 572.32 760.14C567.374 751.172 563.186 741.806 559.8 732.14C553.66 715.84 548.34 701.76 527.64 681.04C506.94 660.32 492.86 655.04 476.56 648.88C459.36 642.4 439.86 635.06 414.4 609.6C388.94 584.14 381.58 564.64 375.1 547.44C368.96 531.14 363.66 517.06 342.94 496.34C322.22 475.62 308.14 470.34 291.84 464.18C282.172 460.799 272.806 456.611 263.84 451.66C262.063 450.644 260.504 449.287 259.251 447.668C257.999 446.049 257.077 444.199 256.54 442.224C256.002 440.249 255.859 438.187 256.118 436.157C256.377 434.126 257.033 432.167 258.05 430.39C259.066 428.613 260.423 427.054 262.042 425.801C263.661 424.549 265.511 423.627 267.486 423.09C269.461 422.552 271.522 422.409 273.553 422.668C275.584 422.927 277.543 423.584 279.32 424.6C286.865 428.699 294.731 432.177 302.84 435C320.04 441.5 339.54 448.84 365 474.32C390.46 499.8 397.82 519.26 404.3 536.46C410.44 552.76 415.76 566.86 436.46 587.56C457.16 608.26 471.24 613.56 487.56 619.72C504.74 626.2 524.24 633.54 549.7 659C575.16 684.46 582.52 704 589 721.16C591.821 729.273 595.307 737.139 599.42 744.68C600.771 747.052 601.475 749.736 601.464 752.465C601.452 755.194 600.725 757.873 599.355 760.233C597.985 762.593 596.019 764.553 593.654 765.916C591.29 767.279 588.609 767.997 585.88 768Z" fill="white"/>
<path d="M726.4 764.6C724.334 764.605 722.288 764.198 720.382 763.401C718.475 762.604 716.748 761.434 715.3 759.96C686.26 730.52 677.16 709.52 668.36 689.22C660.22 670.42 652.54 652.66 626.5 626.62C600.46 600.58 582.72 592.92 564 584.78C543.34 575.84 522 566.6 491.76 536.36C461.52 506.12 452.2 484.78 443.26 464.12C435.12 445.32 427.44 427.58 401.42 401.54C375.4 375.5 357.64 367.84 338.84 359.7C318.18 350.76 296.84 341.52 266.6 311.3C264.033 308.317 262.688 304.474 262.836 300.541C262.983 296.608 264.611 292.877 267.394 290.094C270.177 287.311 273.908 285.683 277.841 285.536C281.774 285.388 285.617 286.733 288.6 289.3C314.6 315.3 332.38 323 351.16 331.14C371.82 340.06 393.16 349.3 423.42 379.54C453.68 409.78 462.9 431.14 471.82 451.8C479.96 470.58 487.64 488.34 513.66 514.36C539.68 540.38 557.46 548.08 576.24 556.22C596.9 565.14 618.24 574.38 648.5 604.62C678.76 634.86 687.98 656.22 696.94 676.88C704.94 695.36 712.5 712.88 737.44 738.1C739.602 740.289 741.068 743.069 741.653 746.09C742.239 749.11 741.919 752.237 740.732 755.075C739.546 757.914 737.547 760.339 734.986 762.044C732.425 763.75 729.417 764.66 726.34 764.66L726.4 764.6Z" fill="white"/>
<path d="M585.88 768C583.127 768.005 580.421 767.28 578.04 765.899C575.658 764.519 573.684 762.531 572.32 760.14C567.374 751.172 563.186 741.806 559.8 732.14C553.66 715.84 548.34 701.76 527.64 681.04C506.94 660.32 492.86 655.04 476.56 648.88C459.36 642.4 439.86 635.06 414.4 609.6C388.94 584.14 381.58 564.64 375.1 547.44C368.96 531.14 363.66 517.06 342.94 496.34C322.22 475.62 308.14 470.34 291.84 464.18C282.172 460.799 272.806 456.611 263.84 451.66C262.063 450.644 260.504 449.287 259.251 447.668C257.999 446.049 257.077 444.199 256.54 442.224C256.002 440.249 255.859 438.187 256.118 436.157C256.377 434.126 257.033 432.167 258.05 430.39C259.066 428.613 260.423 427.054 262.042 425.801C263.661 424.549 265.511 423.627 267.486 423.09C269.461 422.552 271.522 422.409 273.553 422.668C275.584 422.927 277.543 423.584 279.32 424.6C286.865 428.699 294.731 432.177 302.84 435C320.04 441.5 339.54 448.84 365 474.32C390.46 499.8 397.82 519.26 404.3 536.46C410.44 552.76 415.76 566.86 436.46 587.56C457.16 608.26 471.24 613.56 487.56 619.72C504.74 626.2 524.24 633.54 549.7 659C575.16 684.46 582.52 704 589 721.16C591.821 729.273 595.307 737.139 599.42 744.68C600.771 747.052 601.475 749.736 601.464 752.465C601.452 755.194 600.725 757.873 599.355 760.233C597.985 762.593 596.019 764.553 593.654 765.916C591.29 767.279 588.609 767.997 585.88 768Z" fill="white"/>
</g>
</g>
<defs>
<clipPath id="clip0_11_160">
<rect width="1024" height="1024" fill="white"/>
</clipPath>
<clipPath id="clip1_11_160">
<rect width="512" height="512" fill="white" transform="translate(256 256)"/>
</clipPath>
</defs>
</svg>
