<svg width="64" height="64" viewBox="0 0 64 64" fill="none" xmlns="http://www.w3.org/2000/svg">
<g clip-path="url(#clip0_15_14)">
<rect width="64" height="64" fill="white"/>
<rect width="64" height="64" rx="10" fill="#2D69EB"/>
<g clip-path="url(#clip1_15_14)">
<path d="M47.025 30.3288C46.8971 30.3289 46.7704 30.3038 46.6522 30.2549C46.534 30.206 46.4267 30.1342 46.3363 30.0438L33.9613 17.6688C33.8008 17.4823 33.7168 17.2421 33.726 16.9963C33.7352 16.7505 33.8369 16.5173 34.0109 16.3434C34.1848 16.1694 34.418 16.0677 34.6638 16.0585C34.9096 16.0493 35.1498 16.1333 35.3363 16.2938L47.7113 28.6688C47.8474 28.8052 47.9401 28.9789 47.9775 29.168C48.015 29.357 47.9956 29.553 47.9218 29.731C47.8479 29.9091 47.723 30.0612 47.5627 30.1683C47.4024 30.2753 47.214 30.3325 47.0212 30.3325L47.025 30.3288Z" fill="white"/>
<path d="M47.025 38.2213C46.8971 38.2214 46.7704 38.1963 46.6522 38.1474C46.534 38.0985 46.4267 38.0267 46.3363 37.9363L26.0638 17.6638C25.9033 17.4773 25.8193 17.2371 25.8285 16.9913C25.8377 16.7455 25.9394 16.5123 26.1134 16.3384C26.2873 16.1644 26.5205 16.0627 26.7663 16.0535C27.0121 16.0443 27.2523 16.1283 27.4388 16.2888L47.715 36.5575C47.8512 36.6939 47.9438 36.8677 47.9813 37.0567C48.0188 37.2458 47.9994 37.4417 47.9255 37.6198C47.8517 37.7978 47.7267 37.95 47.5664 38.057C47.4062 38.1641 47.2177 38.2212 47.025 38.2213Z" fill="white"/>
<path d="M28 48C27.8719 48.0003 27.745 47.9752 27.6266 47.9263C27.5082 47.8774 27.4006 47.8056 27.31 47.715L16.285 36.6937C16.1246 36.5073 16.0405 36.2671 16.0497 36.0213C16.0589 35.7755 16.1607 35.5423 16.3346 35.3683C16.5085 35.1944 16.7418 35.0926 16.9876 35.0834C17.2334 35.0742 17.4736 35.1583 17.66 35.3187L28.6812 46.34C28.8156 46.4761 28.907 46.6487 28.9441 46.8363C28.9811 47.0239 28.9621 47.2183 28.8895 47.3952C28.8169 47.5722 28.6938 47.7238 28.5357 47.8314C28.3775 47.9389 28.1912 47.9975 28 48Z" fill="white"/>
<path d="M47.025 30.3288C46.8971 30.3289 46.7704 30.3038 46.6522 30.2549C46.534 30.206 46.4267 30.1342 46.3363 30.0438L33.9613 17.6688C33.8008 17.4823 33.7168 17.2421 33.726 16.9963C33.7352 16.7505 33.8369 16.5173 34.0109 16.3434C34.1848 16.1694 34.418 16.0677 34.6638 16.0585C34.9096 16.0493 35.1498 16.1333 35.3363 16.2938L47.7113 28.6688C47.8474 28.8052 47.9401 28.9789 47.9775 29.168C48.015 29.357 47.9956 29.553 47.9218 29.731C47.8479 29.9091 47.723 30.0612 47.5627 30.1683C47.4024 30.2753 47.214 30.3325 47.0212 30.3325L47.025 30.3288Z" fill="white"/>
<path d="M47.025 38.2213C46.8971 38.2214 46.7704 38.1963 46.6522 38.1474C46.534 38.0985 46.4267 38.0267 46.3363 37.9363L26.0638 17.6638C25.9033 17.4773 25.8193 17.2371 25.8285 16.9913C25.8377 16.7455 25.9394 16.5123 26.1134 16.3384C26.2873 16.1644 26.5205 16.0627 26.7663 16.0535C27.0121 16.0443 27.2523 16.1283 27.4388 16.2888L47.715 36.5575C47.8512 36.6939 47.9438 36.8677 47.9813 37.0567C48.0188 37.2458 47.9994 37.4417 47.9255 37.6198C47.8517 37.7978 47.7267 37.95 47.5664 38.057C47.4062 38.1641 47.2177 38.2212 47.025 38.2213Z" fill="white"/>
<path d="M45.4 47.7875C45.2709 47.7878 45.143 47.7624 45.0238 47.7126C44.9047 47.6628 44.7967 47.5896 44.7063 47.4975C42.8913 45.6575 42.3225 44.345 41.7725 43.0763C41.2638 41.9013 40.7838 40.7913 39.1563 39.1638C37.5288 37.5363 36.42 37.0575 35.25 36.5488C33.9588 35.99 32.625 35.4125 30.735 33.5225C28.845 31.6325 28.2625 30.2988 27.7038 29.0075C27.195 27.8325 26.715 26.7238 25.0888 25.0963C23.4625 23.4688 22.3525 22.99 21.1775 22.4813C19.8863 21.9225 18.5525 21.3463 16.6625 19.4563C16.62 19.4138 16.5813 19.3738 16.5375 19.3313L16.485 19.2775C16.3047 19.0917 16.2055 18.8418 16.2094 18.5829C16.2132 18.324 16.3198 18.0772 16.5056 17.8969C16.6914 17.7165 16.9413 17.6174 17.2002 17.6213C17.4591 17.6251 17.7059 17.7317 17.8863 17.9175L17.9438 17.9775L18.0413 18.0775C19.6663 19.7025 20.7775 20.1838 21.9513 20.6925C23.2425 21.25 24.5763 21.8275 26.4675 23.7175C28.3588 25.6075 28.935 26.9425 29.4925 28.2338C30.0013 29.4075 30.4813 30.5175 32.1075 32.1438C33.7338 33.77 34.845 34.2513 36.0188 34.76C37.31 35.3175 38.6438 35.895 40.535 37.785C42.4263 39.675 43.0025 41.01 43.5625 42.3013C44.0625 43.4563 44.535 44.5513 46.0938 46.1275C46.2289 46.2644 46.3205 46.4381 46.3571 46.6269C46.3937 46.8157 46.3737 47.011 46.2995 47.1885C46.2254 47.3659 46.1004 47.5174 45.9404 47.624C45.7803 47.7306 45.5923 47.7875 45.4 47.7875Z" fill="white"/>
<path d="M36.6175 48C36.4454 48.0003 36.2764 47.955 36.1275 47.8687C35.9786 47.7824 35.8553 47.6582 35.77 47.5088C35.4609 46.9483 35.1991 46.3629 34.9875 45.7588C34.6037 44.74 34.2713 43.86 32.9775 42.565C31.6838 41.27 30.8038 40.94 29.785 40.555C28.71 40.15 27.4912 39.6913 25.9 38.1C24.3088 36.5088 23.8488 35.29 23.4437 34.215C23.06 33.1963 22.7288 32.3163 21.4338 31.0213C20.1388 29.7263 19.2587 29.3963 18.24 29.0113C17.6358 28.7999 17.0504 28.5382 16.49 28.2288C16.379 28.1652 16.2815 28.0805 16.2032 27.9793C16.1249 27.8781 16.0673 27.7625 16.0337 27.639C16.0001 27.5156 15.9912 27.3867 16.0074 27.2598C16.0236 27.1329 16.0646 27.0105 16.1281 26.8994C16.1917 26.7884 16.2764 26.6909 16.3776 26.6126C16.4788 26.5343 16.5944 26.4767 16.7179 26.4431C16.8413 26.4095 16.9702 26.4006 17.0971 26.4168C17.224 26.433 17.3465 26.474 17.4575 26.5375C17.9291 26.7937 18.4207 27.0111 18.9275 27.1875C20.0025 27.5938 21.2213 28.0525 22.8125 29.645C24.4037 31.2375 24.8638 32.4538 25.2688 33.5288C25.6525 34.5475 25.985 35.4288 27.2788 36.7225C28.5725 38.0163 29.4525 38.3475 30.4725 38.7325C31.5462 39.1375 32.765 39.5963 34.3563 41.1875C35.9475 42.7788 36.4075 44 36.8125 45.0725C36.9888 45.5796 37.2067 46.0712 37.4638 46.5425C37.5482 46.6908 37.5922 46.8585 37.5915 47.0291C37.5908 47.1997 37.5453 47.3671 37.4597 47.5146C37.374 47.6621 37.2512 47.7846 37.1034 47.8697C36.9556 47.9549 36.7881 47.9999 36.6175 48Z" fill="white"/>
<path d="M45.4 47.7875C45.2709 47.7878 45.143 47.7623 45.0238 47.7125C44.9047 47.6627 44.7967 47.5896 44.7062 47.4975C42.8912 45.6575 42.3225 44.345 41.7725 43.0762C41.2637 41.9012 40.7837 40.7912 39.1562 39.1637C37.5287 37.5362 36.42 37.0575 35.25 36.5487C33.9587 35.99 32.625 35.4125 30.735 33.5225C28.845 31.6325 28.2625 30.2987 27.7037 29.0075C27.195 27.8325 26.715 26.7237 25.0887 25.0962C23.4625 23.4687 22.3525 22.99 21.1775 22.4812C19.8862 21.9225 18.5525 21.345 16.6625 19.4562C16.5021 19.2698 16.418 19.0296 16.4272 18.7838C16.4364 18.538 16.5382 18.3048 16.7121 18.1308C16.886 17.9569 17.1193 17.8552 17.3651 17.846C17.6109 17.8368 17.8511 17.9208 18.0375 18.0812C19.6625 19.7062 20.7737 20.1875 21.9475 20.6962C23.2387 21.2537 24.5725 21.8312 26.4637 23.7212C28.355 25.6112 28.9312 26.9462 29.4887 28.2375C29.9975 29.4112 30.4775 30.5212 32.1037 32.1475C33.73 33.7737 34.8412 34.255 36.015 34.7637C37.3062 35.3212 38.64 35.8987 40.5312 37.7887C42.4225 39.6787 42.9987 41.0137 43.5587 42.305C44.0587 43.46 44.5312 44.555 46.09 46.1312C46.2251 46.2681 46.3167 46.4418 46.3533 46.6306C46.3899 46.8194 46.3699 47.0148 46.2958 47.1922C46.2216 47.3696 46.0967 47.5212 45.9366 47.6278C45.7765 47.7343 45.5885 47.7912 45.3962 47.7912L45.4 47.7875Z" fill="white"/>
<path d="M36.6175 48C36.4454 48.0003 36.2764 47.955 36.1275 47.8687C35.9786 47.7824 35.8553 47.6582 35.77 47.5088C35.4609 46.9483 35.1991 46.3629 34.9875 45.7588C34.6037 44.74 34.2713 43.86 32.9775 42.565C31.6838 41.27 30.8038 40.94 29.785 40.555C28.71 40.15 27.4912 39.6913 25.9 38.1C24.3088 36.5088 23.8488 35.29 23.4437 34.215C23.06 33.1963 22.7288 32.3163 21.4338 31.0213C20.1388 29.7263 19.2587 29.3963 18.24 29.0113C17.6358 28.7999 17.0504 28.5382 16.49 28.2288C16.379 28.1652 16.2815 28.0805 16.2032 27.9793C16.1249 27.8781 16.0673 27.7625 16.0337 27.639C16.0001 27.5156 15.9912 27.3867 16.0074 27.2598C16.0236 27.1329 16.0646 27.0105 16.1281 26.8994C16.1917 26.7884 16.2764 26.6909 16.3776 26.6126C16.4788 26.5343 16.5944 26.4767 16.7179 26.4431C16.8413 26.4095 16.9702 26.4006 17.0971 26.4168C17.224 26.433 17.3465 26.474 17.4575 26.5375C17.9291 26.7937 18.4207 27.0111 18.9275 27.1875C20.0025 27.5938 21.2213 28.0525 22.8125 29.645C24.4037 31.2375 24.8638 32.4538 25.2688 33.5288C25.6525 34.5475 25.985 35.4288 27.2788 36.7225C28.5725 38.0163 29.4525 38.3475 30.4725 38.7325C31.5462 39.1375 32.765 39.5963 34.3563 41.1875C35.9475 42.7788 36.4075 44 36.8125 45.0725C36.9888 45.5796 37.2067 46.0712 37.4638 46.5425C37.5482 46.6908 37.5922 46.8585 37.5915 47.0291C37.5908 47.1997 37.5453 47.3671 37.4597 47.5146C37.374 47.6621 37.2512 47.7846 37.1034 47.8697C36.9556 47.9549 36.7881 47.9999 36.6175 48Z" fill="white"/>
</g>
</g>
<defs>
<clipPath id="clip0_15_14">
<rect width="64" height="64" fill="white"/>
</clipPath>
<clipPath id="clip1_15_14">
<rect width="32" height="32" fill="white" transform="translate(16 16)"/>
</clipPath>
</defs>
</svg>
