<svg width="512" height="512" viewBox="0 0 512 512" fill="none" xmlns="http://www.w3.org/2000/svg">
<g clip-path="url(#clip0_12_232)">
<rect width="512" height="512" fill="white"/>
<rect width="512" height="512" fill="#2D69EB"/>
<g clip-path="url(#clip1_12_232)">
<path d="M355.194 245.189C354.347 245.189 353.509 245.023 352.727 244.699C351.944 244.376 351.234 243.901 350.635 243.302L268.731 161.398C267.669 160.164 267.113 158.574 267.174 156.947C267.234 155.321 267.908 153.777 269.059 152.626C270.21 151.475 271.754 150.801 273.381 150.74C275.008 150.679 276.597 151.236 277.831 152.297L359.736 234.202C360.637 235.105 361.25 236.254 361.498 237.506C361.746 238.757 361.618 240.054 361.129 241.232C360.64 242.411 359.813 243.418 358.752 244.126C357.692 244.835 356.445 245.213 355.169 245.213L355.194 245.189Z" fill="white"/>
<path d="M355.194 297.425C354.347 297.426 353.509 297.26 352.727 296.936C351.944 296.613 351.234 296.138 350.635 295.539L216.461 161.365C215.399 160.131 214.843 158.541 214.904 156.914C214.965 155.287 215.638 153.744 216.789 152.593C217.94 151.442 219.484 150.768 221.111 150.707C222.738 150.646 224.327 151.202 225.561 152.264L359.76 286.414C360.662 287.317 361.275 288.466 361.523 289.718C361.771 290.969 361.642 292.266 361.154 293.444C360.665 294.623 359.838 295.63 358.777 296.338C357.716 297.047 356.469 297.425 355.194 297.425Z" fill="white"/>
<path d="M229.276 362.146C228.428 362.148 227.588 361.983 226.804 361.659C226.021 361.335 225.309 360.86 224.709 360.26L151.74 287.316C150.678 286.082 150.122 284.492 150.183 282.865C150.244 281.238 150.917 279.695 152.068 278.543C153.219 277.392 154.763 276.719 156.39 276.658C158.017 276.597 159.606 277.153 160.84 278.215L233.785 351.16C234.674 352.06 235.279 353.203 235.524 354.444C235.769 355.686 235.644 356.973 235.163 358.144C234.683 359.315 233.868 360.319 232.822 361.03C231.775 361.742 230.542 362.13 229.276 362.146Z" fill="white"/>
<path d="M355.194 245.189C354.347 245.189 353.509 245.023 352.727 244.699C351.944 244.376 351.234 243.901 350.635 243.302L268.731 161.398C267.669 160.164 267.113 158.574 267.174 156.947C267.234 155.321 267.908 153.777 269.059 152.626C270.21 151.475 271.754 150.801 273.381 150.74C275.008 150.679 276.597 151.236 277.831 152.297L359.736 234.202C360.637 235.105 361.25 236.254 361.498 237.506C361.746 238.757 361.618 240.054 361.129 241.232C360.64 242.411 359.813 243.418 358.752 244.126C357.692 244.835 356.445 245.213 355.169 245.213L355.194 245.189Z" fill="white"/>
<path d="M355.194 297.425C354.347 297.426 353.509 297.26 352.727 296.936C351.944 296.613 351.234 296.138 350.635 295.539L216.461 161.365C215.399 160.131 214.843 158.541 214.904 156.914C214.965 155.287 215.638 153.744 216.789 152.593C217.94 151.442 219.484 150.768 221.111 150.707C222.738 150.646 224.327 151.202 225.561 152.264L359.76 286.414C360.662 287.317 361.275 288.466 361.523 289.718C361.771 290.969 361.642 292.266 361.154 293.444C360.665 294.623 359.838 295.63 358.777 296.338C357.716 297.047 356.469 297.425 355.194 297.425Z" fill="white"/>
<path d="M344.439 360.74C343.584 360.742 342.737 360.573 341.949 360.244C341.16 359.914 340.446 359.43 339.847 358.821C327.834 346.642 324.07 337.956 320.43 329.558C317.063 321.782 313.886 314.435 303.114 303.663C292.342 292.892 285.004 289.723 277.26 286.356C268.714 282.658 259.887 278.836 247.378 266.326C234.869 253.817 231.013 244.99 227.315 236.444C223.948 228.667 220.771 221.329 210.008 210.557C199.244 199.785 191.898 196.617 184.121 193.25C175.575 189.551 166.747 185.738 154.238 173.228C153.957 172.947 153.701 172.682 153.411 172.401L153.064 172.045C151.87 170.816 151.214 169.162 151.239 167.448C151.265 165.735 151.97 164.101 153.2 162.908C154.43 161.714 156.084 161.058 157.797 161.083C159.511 161.109 161.144 161.814 162.338 163.044L162.718 163.441L163.364 164.103C174.119 174.858 181.474 178.043 189.242 181.411C197.788 185.1 206.616 188.923 219.133 201.432C231.65 213.941 235.464 222.777 239.154 231.323C242.521 239.091 245.698 246.438 256.462 257.201C267.225 267.965 274.58 271.15 282.348 274.517C290.895 278.207 299.722 282.029 312.239 294.538C324.757 307.047 328.571 315.883 332.277 324.429C335.586 332.073 338.714 339.321 349.03 349.753C349.924 350.659 350.531 351.809 350.773 353.058C351.015 354.308 350.883 355.601 350.392 356.775C349.901 357.949 349.074 358.952 348.015 359.658C346.956 360.363 345.711 360.74 344.439 360.74Z" fill="white"/>
<path d="M286.311 362.146C285.172 362.148 284.053 361.849 283.068 361.277C282.083 360.706 281.266 359.884 280.702 358.895C278.656 355.185 276.924 351.311 275.523 347.313C272.983 340.57 270.783 334.746 262.22 326.175C253.657 317.604 247.833 315.419 241.09 312.871C233.975 310.191 225.909 307.155 215.377 296.623C204.845 286.091 201.801 278.025 199.12 270.91C196.581 264.167 194.388 258.343 185.817 249.772C177.246 241.201 171.422 239.017 164.679 236.469C160.68 235.07 156.806 233.337 153.097 231.29C152.362 230.869 151.717 230.308 151.199 229.638C150.681 228.969 150.299 228.203 150.077 227.386C149.855 226.569 149.795 225.717 149.902 224.877C150.01 224.037 150.281 223.226 150.702 222.491C151.122 221.756 151.683 221.111 152.353 220.593C153.023 220.075 153.788 219.694 154.605 219.471C155.422 219.249 156.275 219.19 157.115 219.297C157.955 219.404 158.765 219.676 159.5 220.096C162.621 221.792 165.875 223.23 169.229 224.398C176.344 227.087 184.411 230.123 194.942 240.663C205.474 251.203 208.519 259.253 211.199 266.368C213.739 273.11 215.94 278.943 224.502 287.506C233.065 296.069 238.89 298.261 245.64 300.809C252.747 303.49 260.813 306.526 271.345 317.058C281.877 327.589 284.921 335.672 287.602 342.771C288.769 346.127 290.211 349.381 291.912 352.5C292.471 353.481 292.763 354.591 292.758 355.72C292.753 356.849 292.452 357.957 291.885 358.933C291.319 359.91 290.505 360.72 289.527 361.284C288.549 361.848 287.44 362.145 286.311 362.146Z" fill="white"/>
<path d="M344.439 360.74C343.584 360.742 342.737 360.574 341.949 360.244C341.16 359.914 340.446 359.43 339.847 358.821C327.834 346.642 324.07 337.956 320.43 329.558C317.063 321.782 313.886 314.435 303.114 303.663C292.342 292.892 285.004 289.723 277.26 286.356C268.714 282.658 259.887 278.836 247.378 266.326C234.869 253.817 231.013 244.99 227.315 236.444C223.948 228.667 220.771 221.329 210.008 210.557C199.244 199.785 191.898 196.617 184.121 193.25C175.575 189.551 166.747 185.729 154.238 173.228C153.176 171.995 152.62 170.405 152.681 168.778C152.742 167.151 153.416 165.607 154.567 164.456C155.718 163.305 157.262 162.632 158.888 162.571C160.515 162.51 162.105 163.066 163.339 164.128C174.094 174.883 181.449 178.068 189.217 181.435C197.764 185.125 206.591 188.948 219.108 201.457C231.626 213.966 235.44 222.801 239.129 231.348C242.497 239.116 245.673 246.463 256.437 257.226C267.2 267.989 274.555 271.175 282.324 274.542C290.87 278.232 299.697 282.054 312.215 294.563C324.732 307.072 328.546 315.908 332.252 324.454C335.561 332.098 338.689 339.346 349.005 349.778C349.899 350.684 350.506 351.834 350.748 353.083C350.991 354.332 350.858 355.626 350.367 356.8C349.876 357.974 349.049 358.977 347.99 359.683C346.931 360.388 345.686 360.765 344.414 360.765L344.439 360.74Z" fill="white"/>
<path d="M286.311 362.146C285.172 362.148 284.053 361.849 283.068 361.277C282.083 360.706 281.266 359.884 280.702 358.895C278.656 355.185 276.924 351.311 275.523 347.313C272.983 340.57 270.783 334.746 262.22 326.175C253.657 317.604 247.833 315.419 241.09 312.871C233.975 310.191 225.909 307.155 215.377 296.623C204.845 286.091 201.801 278.025 199.12 270.91C196.581 264.167 194.388 258.343 185.817 249.772C177.246 241.201 171.422 239.017 164.679 236.469C160.68 235.07 156.806 233.337 153.097 231.29C152.362 230.869 151.717 230.308 151.199 229.638C150.681 228.969 150.299 228.203 150.077 227.386C149.855 226.569 149.795 225.717 149.902 224.877C150.01 224.037 150.281 223.226 150.702 222.491C151.122 221.756 151.683 221.111 152.353 220.593C153.023 220.075 153.788 219.694 154.605 219.471C155.422 219.249 156.275 219.19 157.115 219.297C157.955 219.404 158.765 219.676 159.5 220.096C162.621 221.792 165.875 223.23 169.229 224.398C176.344 227.087 184.411 230.123 194.942 240.663C205.474 251.203 208.519 259.253 211.199 266.368C213.739 273.11 215.94 278.943 224.502 287.506C233.065 296.069 238.89 298.261 245.64 300.809C252.747 303.49 260.813 306.526 271.345 317.058C281.877 327.589 284.921 335.672 287.602 342.771C288.769 346.127 290.211 349.381 291.912 352.5C292.471 353.481 292.763 354.591 292.758 355.72C292.753 356.849 292.452 357.957 291.885 358.933C291.319 359.91 290.505 360.72 289.527 361.284C288.549 361.848 287.44 362.145 286.311 362.146Z" fill="white"/>
</g>
</g>
<defs>
<clipPath id="clip0_12_232">
<rect width="512" height="512" fill="white"/>
</clipPath>
<clipPath id="clip1_12_232">
<rect width="211.793" height="211.793" fill="white" transform="translate(149.854 150.353)"/>
</clipPath>
</defs>
</svg>
