<svg width="128" height="128" viewBox="0 0 128 128" fill="none" xmlns="http://www.w3.org/2000/svg">
<g clip-path="url(#clip0_12_268)">
<rect width="128" height="128" fill="white"/>
<rect width="128" height="128" fill="#2D69EB"/>
<g clip-path="url(#clip1_12_268)">
<path d="M88.7985 61.2971C88.5868 61.2973 88.3772 61.2558 88.1817 61.1749C87.9861 61.0939 87.8084 60.9752 87.6588 60.8255L67.1827 40.3495C66.9173 40.041 66.7782 39.6435 66.7934 39.2368C66.8087 38.8301 66.977 38.4442 67.2648 38.1564C67.5526 37.8686 67.9385 37.7003 68.3452 37.685C68.7519 37.6698 69.1494 37.8089 69.4578 38.0743L89.9339 58.5504C90.1592 58.7762 90.3126 59.0636 90.3746 59.3764C90.4366 59.6893 90.4044 60.0135 90.2823 60.3081C90.1601 60.6027 89.9533 60.8544 89.6881 61.0316C89.4229 61.2087 89.1112 61.3033 88.7922 61.3033L88.7985 61.2971Z" fill="white"/>
<path d="M88.7985 74.3563C88.5868 74.3565 88.3772 74.315 88.1817 74.2341C87.9861 74.1531 87.8084 74.0344 87.6588 73.8848L54.1153 40.3412C53.8498 40.0327 53.7107 39.6353 53.726 39.2286C53.7412 38.8219 53.9096 38.4359 54.1973 38.1481C54.4851 37.8604 54.871 37.692 55.2777 37.6768C55.6845 37.6615 56.0819 37.8006 56.3904 38.0661L89.9402 71.6034C90.1654 71.8292 90.3188 72.1166 90.3808 72.4294C90.4428 72.7423 90.4106 73.0665 90.2885 73.3611C90.1663 73.6557 89.9595 73.9074 89.6943 74.0846C89.4291 74.2617 89.1174 74.3563 88.7985 74.3563Z" fill="white"/>
<path d="M57.319 90.5366C57.1071 90.5371 56.8971 90.4956 56.7011 90.4147C56.5052 90.3338 56.3272 90.215 56.1773 90.065L37.935 71.8289C37.6695 71.5204 37.5305 71.123 37.5457 70.7163C37.5609 70.3096 37.7293 69.9236 38.0171 69.6358C38.3049 69.3481 38.6908 69.1797 39.0975 69.1645C39.5042 69.1492 39.9016 69.2883 40.2101 69.5538L58.4463 87.7899C58.6686 88.0151 58.8198 88.3006 58.8811 88.6111C58.9424 88.9216 58.911 89.2432 58.7908 89.536C58.6707 89.8287 58.4671 90.0797 58.2054 90.2576C57.9437 90.4355 57.6355 90.5325 57.319 90.5366Z" fill="white"/>
<path d="M88.7985 61.2971C88.5868 61.2973 88.3772 61.2558 88.1817 61.1749C87.9861 61.0939 87.8084 60.9752 87.6588 60.8255L67.1827 40.3495C66.9173 40.041 66.7782 39.6435 66.7934 39.2368C66.8087 38.8301 66.977 38.4442 67.2648 38.1564C67.5526 37.8686 67.9385 37.7003 68.3452 37.685C68.7519 37.6698 69.1494 37.8089 69.4578 38.0743L89.9339 58.5504C90.1592 58.7762 90.3126 59.0636 90.3746 59.3764C90.4366 59.6893 90.4044 60.0135 90.2823 60.3081C90.1601 60.6027 89.9533 60.8544 89.6881 61.0316C89.4229 61.2087 89.1112 61.3033 88.7922 61.3033L88.7985 61.2971Z" fill="white"/>
<path d="M88.7985 74.3563C88.5868 74.3565 88.3772 74.315 88.1817 74.2341C87.9861 74.1531 87.8084 74.0344 87.6588 73.8848L54.1153 40.3412C53.8498 40.0327 53.7107 39.6353 53.726 39.2286C53.7412 38.8219 53.9096 38.4359 54.1973 38.1481C54.4851 37.8604 54.871 37.692 55.2777 37.6768C55.6845 37.6615 56.0819 37.8006 56.3904 38.0661L89.9402 71.6034C90.1654 71.8292 90.3188 72.1166 90.3808 72.4294C90.4428 72.7423 90.4106 73.0665 90.2885 73.3611C90.1663 73.6557 89.9595 73.9074 89.6943 74.0846C89.4291 74.2617 89.1174 74.3563 88.7985 74.3563Z" fill="white"/>
<path d="M86.1097 90.185C85.896 90.1855 85.6844 90.1434 85.4873 90.061C85.2901 89.9786 85.1115 89.8576 84.9618 89.7051C81.9586 86.6606 81.0175 84.4889 80.1075 82.3896C79.2657 80.4454 78.4715 78.6087 75.7785 75.9158C73.0856 73.2229 71.251 72.4308 69.3151 71.589C67.1786 70.6644 64.9717 69.7089 61.8444 66.5816C58.7172 63.4544 57.7534 61.2475 56.8288 59.1109C55.987 57.1668 55.1928 55.3322 52.502 52.6393C49.8111 49.9463 47.9745 49.1542 46.0303 48.3124C43.8937 47.3879 41.6869 46.4344 38.5596 43.3071C38.4893 43.2368 38.4252 43.1706 38.3528 43.1003L38.2659 43.0114C37.9675 42.7039 37.8035 42.2905 37.8099 41.8621C37.8163 41.4337 37.9926 41.0253 38.3 40.7269C38.6075 40.4285 39.0209 40.2645 39.4493 40.2709C39.8777 40.2773 40.2861 40.4536 40.5845 40.7611L40.6796 40.8603L40.8409 41.0258C43.5297 43.7146 45.3684 44.5109 47.3106 45.3527C49.4471 46.2751 51.654 47.2307 54.7833 50.3579C57.9126 53.4852 58.8661 55.6941 59.7886 57.8307C60.6304 59.7728 61.4246 61.6094 64.1154 64.3003C66.8063 66.9911 68.645 67.7874 70.5871 68.6292C72.7237 69.5517 74.9305 70.5072 78.0599 73.6345C81.1892 76.7618 82.1427 78.9707 83.0693 81.1072C83.8966 83.0183 84.6784 84.8302 87.2576 87.4383C87.4811 87.6647 87.6327 87.9522 87.6933 88.2645C87.7539 88.5769 87.7207 88.9002 87.598 89.1938C87.4753 89.4874 87.2686 89.7381 87.0037 89.9145C86.7389 90.0908 86.4278 90.185 86.1097 90.185Z" fill="white"/>
<path d="M71.5779 90.5366C71.2931 90.5371 71.0134 90.4621 70.7671 90.3193C70.5207 90.1765 70.3166 89.971 70.1756 89.7237C69.664 88.7963 69.2309 87.8277 68.8808 86.8281C68.2458 85.1425 67.6957 83.6864 65.555 81.5436C63.4143 79.4009 61.9582 78.8549 60.2726 78.2178C58.4938 77.5477 56.4772 76.7886 53.8443 74.1557C51.2114 71.5228 50.4502 69.5062 49.7801 67.7274C49.1452 66.0418 48.5971 64.5857 46.4543 62.443C44.3116 60.3002 42.8555 59.7542 41.1698 59.1171C40.17 58.7675 39.2014 58.3344 38.2742 57.8224C38.0905 57.7173 37.9292 57.577 37.7997 57.4096C37.6701 57.2421 37.5749 57.0508 37.5193 56.8466C37.4637 56.6423 37.4488 56.4291 37.4756 56.2191C37.5024 56.0092 37.5703 55.8065 37.6754 55.6228C37.7805 55.439 37.9208 55.2778 38.0883 55.1482C38.2557 55.0187 38.447 54.9234 38.6512 54.8678C38.8555 54.8122 39.0687 54.7974 39.2787 54.8242C39.4887 54.851 39.6913 54.9189 39.8751 55.024C40.6553 55.4479 41.4688 55.8076 42.3074 56.0995C44.0861 56.7717 46.1027 57.5308 48.7356 60.1658C51.3686 62.8008 52.1297 64.8132 52.7998 66.5919C53.4348 68.2776 53.985 69.7358 56.1256 71.8764C58.2663 74.0171 59.7224 74.5652 61.4101 75.2022C63.1868 75.8724 65.2034 76.6314 67.8363 79.2644C70.4693 81.8973 71.2304 83.918 71.9005 85.6926C72.1923 86.5316 72.5527 87.3451 72.9781 88.1249C73.1178 88.3702 73.1906 88.6478 73.1895 88.93C73.1883 89.2123 73.1131 89.4893 72.9714 89.7333C72.8297 89.9774 72.6264 90.1801 72.3819 90.321C72.1373 90.462 71.8601 90.5363 71.5779 90.5366Z" fill="white"/>
<path d="M86.1097 90.185C85.896 90.1855 85.6844 90.1434 85.4873 90.061C85.2901 89.9786 85.1115 89.8576 84.9618 89.7051C81.9586 86.6606 81.0175 84.4889 80.1075 82.3896C79.2657 80.4454 78.4715 78.6087 75.7785 75.9158C73.0856 73.2229 71.251 72.4308 69.3151 71.589C67.1786 70.6644 64.9717 69.7089 61.8445 66.5816C58.7172 63.4544 57.7534 61.2475 56.8288 59.1109C55.9871 57.1668 55.1928 55.3322 52.502 52.6393C49.8111 49.9463 47.9745 49.1542 46.0303 48.3124C43.8937 47.3879 41.6869 46.4323 38.5596 43.3071C38.2942 42.9986 38.1551 42.6012 38.1703 42.1945C38.1855 41.7878 38.3539 41.4019 38.6417 41.1141C38.9295 40.8263 39.3154 40.6579 39.7221 40.6427C40.1288 40.6275 40.5262 40.7665 40.8347 41.032C43.5235 43.7208 45.3622 44.5171 47.3044 45.3589C49.4409 46.2813 51.6478 47.2369 54.7771 50.3641C57.9064 53.4914 58.8599 55.7003 59.7824 57.8369C60.6242 59.779 61.4184 61.6157 64.1092 64.3065C66.8001 66.9973 68.6388 67.7936 70.5809 68.6354C72.7175 69.5579 74.9243 70.5134 78.0537 73.6407C81.183 76.768 82.1365 78.9769 83.0631 81.1134C83.8904 83.0246 84.6722 84.8364 87.2514 87.4445C87.4749 87.6709 87.6265 87.9584 87.6871 88.2708C87.7477 88.5831 87.7145 88.9064 87.5918 89.2C87.4691 89.4936 87.2624 89.7443 86.9975 89.9207C86.7327 90.097 86.4216 90.1912 86.1035 90.1912L86.1097 90.185Z" fill="white"/>
<path d="M71.5779 90.5366C71.2931 90.5371 71.0134 90.4621 70.7671 90.3193C70.5207 90.1765 70.3166 89.971 70.1756 89.7237C69.664 88.7963 69.2309 87.8277 68.8808 86.8281C68.2458 85.1425 67.6957 83.6864 65.555 81.5436C63.4143 79.4009 61.9582 78.8549 60.2726 78.2178C58.4938 77.5477 56.4772 76.7886 53.8443 74.1557C51.2114 71.5228 50.4502 69.5062 49.7801 67.7274C49.1452 66.0418 48.5971 64.5857 46.4543 62.443C44.3116 60.3002 42.8555 59.7542 41.1698 59.1171C40.17 58.7675 39.2014 58.3344 38.2742 57.8224C38.0905 57.7173 37.9292 57.577 37.7997 57.4096C37.6701 57.2421 37.5749 57.0508 37.5193 56.8466C37.4637 56.6423 37.4488 56.4291 37.4756 56.2191C37.5024 56.0092 37.5703 55.8065 37.6754 55.6228C37.7805 55.439 37.9208 55.2778 38.0883 55.1482C38.2557 55.0187 38.447 54.9234 38.6512 54.8678C38.8555 54.8122 39.0687 54.7974 39.2787 54.8242C39.4887 54.851 39.6913 54.9189 39.8751 55.024C40.6553 55.4479 41.4688 55.8076 42.3074 56.0995C44.0861 56.7717 46.1027 57.5308 48.7356 60.1658C51.3686 62.8008 52.1297 64.8132 52.7998 66.5919C53.4348 68.2776 53.985 69.7358 56.1256 71.8764C58.2663 74.0171 59.7224 74.5652 61.4101 75.2022C63.1868 75.8724 65.2034 76.6314 67.8363 79.2644C70.4693 81.8973 71.2304 83.918 71.9005 85.6926C72.1923 86.5316 72.5527 87.3451 72.9781 88.1249C73.1178 88.3702 73.1906 88.6478 73.1895 88.93C73.1883 89.2123 73.1131 89.4893 72.9714 89.7333C72.8297 89.9774 72.6264 90.1801 72.3819 90.321C72.1373 90.462 71.8601 90.5363 71.5779 90.5366Z" fill="white"/>
</g>
</g>
<defs>
<clipPath id="clip0_12_268">
<rect width="128" height="128" fill="white"/>
</clipPath>
<clipPath id="clip1_12_268">
<rect width="52.9483" height="52.9483" fill="white" transform="translate(37.4634 37.5883)"/>
</clipPath>
</defs>
</svg>
