<svg width="144" height="144" viewBox="0 0 144 144" fill="none" xmlns="http://www.w3.org/2000/svg">
<g clip-path="url(#clip0_12_256)">
<rect width="144" height="144" fill="white"/>
<rect width="144" height="144" fill="#2D69EB"/>
<g clip-path="url(#clip1_12_256)">
<path d="M99.8983 68.9593C99.6602 68.9595 99.4244 68.9128 99.2044 68.8217C98.9844 68.7307 98.7845 68.5972 98.6162 68.4288L75.5806 45.3932C75.2819 45.0461 75.1255 44.599 75.1426 44.1415C75.1598 43.6839 75.3492 43.2497 75.6729 42.926C75.9967 42.6022 76.4309 42.4128 76.8884 42.3957C77.3459 42.3786 77.793 42.535 78.1401 42.8336L101.176 65.8693C101.429 66.1232 101.602 66.4466 101.671 66.7985C101.741 67.1505 101.705 67.5152 101.568 67.8466C101.43 68.178 101.198 68.4613 100.899 68.6606C100.601 68.8598 100.25 68.9662 99.8913 68.9663L99.8983 68.9593Z" fill="white"/>
<path d="M99.8983 83.6509C99.6602 83.6511 99.4244 83.6044 99.2044 83.5133C98.9844 83.4223 98.7845 83.2888 98.6162 83.1204L60.8797 45.3838C60.581 45.0368 60.4246 44.5897 60.4417 44.1321C60.4588 43.6746 60.6483 43.2404 60.972 42.9167C61.2958 42.5929 61.7299 42.4035 62.1875 42.3864C62.645 42.3692 63.0921 42.5257 63.4392 42.8243L101.183 80.5539C101.436 80.8078 101.609 81.1312 101.678 81.4831C101.748 81.8351 101.712 82.1998 101.575 82.5312C101.437 82.8627 101.204 83.1459 100.906 83.3452C100.608 83.5445 100.257 83.6508 99.8983 83.6509Z" fill="white"/>
<path d="M64.4839 101.854C64.2455 101.854 64.0092 101.808 63.7888 101.717C63.5684 101.626 63.3681 101.492 63.1995 101.323L42.6769 80.8075C42.3783 80.4604 42.2218 80.0133 42.2389 79.5558C42.2561 79.0982 42.4455 78.6641 42.7693 78.3403C43.093 78.0166 43.5272 77.8271 43.9847 77.81C44.4423 77.7929 44.8894 77.9493 45.2364 78.248L65.7521 98.7636C66.0022 99.0169 66.1723 99.3382 66.2413 99.6875C66.3102 100.037 66.2749 100.399 66.1397 100.728C66.0046 101.057 65.7755 101.34 65.4811 101.54C65.1867 101.74 64.8399 101.849 64.4839 101.854Z" fill="white"/>
<path d="M99.8983 68.9593C99.6602 68.9595 99.4244 68.9128 99.2044 68.8217C98.9844 68.7307 98.7845 68.5972 98.6162 68.4288L75.5806 45.3932C75.2819 45.0461 75.1255 44.599 75.1426 44.1415C75.1598 43.6839 75.3492 43.2497 75.6729 42.926C75.9967 42.6022 76.4309 42.4128 76.8884 42.3957C77.3459 42.3786 77.793 42.535 78.1401 42.8336L101.176 65.8693C101.429 66.1232 101.602 66.4466 101.671 66.7985C101.741 67.1505 101.705 67.5152 101.568 67.8466C101.43 68.178 101.198 68.4613 100.899 68.6606C100.601 68.8598 100.25 68.9662 99.8913 68.9663L99.8983 68.9593Z" fill="white"/>
<path d="M99.8983 83.6509C99.6602 83.6511 99.4244 83.6044 99.2044 83.5133C98.9844 83.4223 98.7845 83.2888 98.6162 83.1204L60.8797 45.3838C60.581 45.0368 60.4246 44.5897 60.4417 44.1321C60.4588 43.6746 60.6483 43.2404 60.972 42.9167C61.2958 42.5929 61.7299 42.4035 62.1875 42.3864C62.645 42.3692 63.0921 42.5257 63.4392 42.8243L101.183 80.5539C101.436 80.8078 101.609 81.1312 101.678 81.4831C101.748 81.8351 101.712 82.1998 101.575 82.5312C101.437 82.8627 101.204 83.1459 100.906 83.3452C100.608 83.5445 100.257 83.6508 99.8983 83.6509Z" fill="white"/>
<path d="M96.8734 101.458C96.633 101.459 96.3949 101.411 96.1732 101.319C95.9514 101.226 95.7504 101.09 95.582 100.918C92.2034 97.4932 91.1447 95.05 90.1209 92.6883C89.1739 90.5011 88.2804 88.4348 85.2509 85.4053C82.2213 82.3758 80.1574 81.4846 77.9795 80.5376C75.5759 79.4975 73.0932 78.4225 69.575 74.9043C66.0568 71.3862 64.9725 68.9034 63.9324 66.4998C62.9854 64.3126 62.0919 62.2487 59.0647 59.2192C56.0375 56.1896 53.9713 55.2985 51.7841 54.3514C49.3805 53.3114 46.8977 52.2387 43.3796 48.7205C43.3005 48.6414 43.2283 48.567 43.1469 48.4878L43.0492 48.3878C42.7134 48.0419 42.5289 47.5768 42.5361 47.0948C42.5433 46.6129 42.7417 46.1535 43.0875 45.8178C43.4334 45.4821 43.8985 45.2975 44.3805 45.3047C44.8625 45.3119 45.3218 45.5103 45.6575 45.8562L45.7646 45.9679L45.9461 46.154C48.9709 49.1789 51.0395 50.0747 53.2244 51.0218C55.628 52.0595 58.1107 53.1345 61.6312 56.6527C65.1517 60.1708 66.2244 62.6559 67.2621 65.0595C68.2092 67.2444 69.1027 69.3106 72.1299 72.3378C75.1571 75.365 77.2256 76.2609 79.4105 77.2079C81.8141 78.2457 84.2969 79.3207 87.8174 82.8388C91.3378 86.357 92.4105 88.842 93.4529 91.2457C94.3837 93.3956 95.2632 95.4339 98.1648 98.3681C98.4162 98.6228 98.5868 98.9462 98.6549 99.2976C98.7231 99.649 98.6858 100.013 98.5478 100.343C98.4098 100.673 98.1772 100.955 97.8792 101.154C97.5813 101.352 97.2313 101.458 96.8734 101.458Z" fill="white"/>
<path d="M80.5251 101.854C80.2048 101.854 79.8901 101.77 79.6129 101.609C79.3358 101.449 79.1062 101.217 78.9475 100.939C78.372 99.8958 77.8848 98.8062 77.4909 97.6816C76.7766 95.7853 76.1576 94.1472 73.7494 91.7366C71.3411 89.326 69.703 88.7117 67.8067 87.9951C65.8056 87.2412 63.5369 86.3872 60.5749 83.4252C57.6128 80.4631 56.7565 78.1945 56.0026 76.1934C55.2883 74.297 54.6717 72.6589 52.2611 70.2483C49.8505 67.8377 48.2124 67.2235 46.3161 66.5068C45.1913 66.1134 44.1016 65.6262 43.0585 65.0502C42.8518 64.9319 42.6704 64.7741 42.5247 64.5858C42.3789 64.3974 42.2717 64.1822 42.2092 63.9524C42.1466 63.7226 42.1299 63.4828 42.1601 63.2465C42.1902 63.0103 42.2666 62.7823 42.3849 62.5756C42.5031 62.3689 42.6609 62.1875 42.8493 62.0418C43.0377 61.8961 43.2529 61.7889 43.4827 61.7263C43.7124 61.6637 43.9523 61.6471 44.1885 61.6772C44.4248 61.7074 44.6527 61.7837 44.8595 61.902C45.7373 62.3789 46.6524 62.7835 47.5958 63.1119C49.5969 63.8682 51.8655 64.7221 54.8276 67.6865C57.7896 70.6509 58.6459 72.9149 59.3998 74.9159C60.1142 76.8123 60.7331 78.4527 63.1414 80.861C65.5496 83.2693 67.1877 83.8859 69.0864 84.6025C71.0852 85.3564 73.3538 86.2104 76.3159 89.1724C79.2779 92.1345 80.1342 94.4078 80.8881 96.4042C81.2164 97.3481 81.6218 98.2633 82.1004 99.1406C82.2575 99.4165 82.3395 99.7288 82.3382 100.046C82.3368 100.364 82.2522 100.675 82.0928 100.95C81.9334 101.225 81.7047 101.453 81.4296 101.611C81.1545 101.77 80.8426 101.853 80.5251 101.854Z" fill="white"/>
<path d="M96.8734 101.458C96.633 101.459 96.395 101.411 96.1732 101.319C95.9514 101.226 95.7504 101.09 95.582 100.918C92.2035 97.4932 91.1447 95.05 90.1209 92.6883C89.1739 90.5011 88.2804 88.4348 85.2509 85.4053C82.2214 82.3758 80.1575 81.4846 77.9795 80.5376C75.5759 79.4975 73.0932 78.4225 69.575 74.9043C66.0569 71.3862 64.9726 68.9034 63.9325 66.4998C62.9855 64.3126 62.092 62.2487 59.0648 59.2192C56.0376 56.1896 53.9713 55.2985 51.7841 54.3514C49.3805 53.3114 46.8978 52.2364 43.3796 48.7205C43.081 48.3735 42.9245 47.9264 42.9416 47.4688C42.9588 47.0113 43.1482 46.5771 43.4719 46.2534C43.7957 45.9296 44.2299 45.7402 44.6874 45.723C45.145 45.7059 45.5921 45.8624 45.9391 46.161C48.964 49.1859 51.0325 50.0817 53.2174 51.0287C55.6211 52.0665 58.1038 53.1415 61.6243 56.6597C65.1448 60.1778 66.2174 62.6629 67.2552 65.0665C68.2022 67.2514 69.0957 69.3176 72.1229 72.3448C75.1501 75.372 77.2187 76.2679 79.4036 77.2149C81.8072 78.2526 84.2899 79.3276 87.8104 82.8458C91.3309 86.364 92.4036 88.849 93.446 91.2526C94.3767 93.4026 95.2563 95.4409 98.1578 98.3751C98.4093 98.6298 98.5798 98.9532 98.648 99.3046C98.7162 99.656 98.6789 100.02 98.5408 100.35C98.4028 100.68 98.1702 100.962 97.8723 101.161C97.5743 101.359 97.2244 101.465 96.8664 101.465L96.8734 101.458Z" fill="white"/>
<path d="M80.5251 101.854C80.2048 101.854 79.8901 101.77 79.6129 101.609C79.3358 101.449 79.1062 101.217 78.9475 100.939C78.372 99.8958 77.8848 98.8062 77.4909 97.6816C76.7766 95.7853 76.1576 94.1472 73.7494 91.7366C71.3411 89.326 69.703 88.7117 67.8067 87.9951C65.8056 87.2412 63.5369 86.3872 60.5749 83.4252C57.6128 80.4631 56.7565 78.1945 56.0026 76.1934C55.2883 74.297 54.6717 72.6589 52.2611 70.2483C49.8505 67.8377 48.2124 67.2235 46.3161 66.5068C45.1913 66.1134 44.1016 65.6262 43.0585 65.0502C42.8518 64.9319 42.6704 64.7741 42.5247 64.5858C42.3789 64.3974 42.2717 64.1822 42.2092 63.9524C42.1466 63.7226 42.1299 63.4828 42.1601 63.2465C42.1902 63.0103 42.2666 62.7823 42.3849 62.5756C42.5031 62.3689 42.6609 62.1875 42.8493 62.0418C43.0377 61.8961 43.2529 61.7889 43.4827 61.7263C43.7124 61.6637 43.9523 61.6471 44.1885 61.6772C44.4248 61.7074 44.6527 61.7837 44.8595 61.902C45.7373 62.3789 46.6524 62.7835 47.5958 63.1119C49.5969 63.8682 51.8655 64.7221 54.8276 67.6865C57.7896 70.6509 58.6459 72.9149 59.3998 74.9159C60.1142 76.8123 60.7331 78.4527 63.1414 80.861C65.5496 83.2693 67.1877 83.8859 69.0864 84.6025C71.0852 85.3564 73.3538 86.2104 76.3159 89.1724C79.2779 92.1345 80.1342 94.4078 80.8881 96.4042C81.2164 97.3481 81.6218 98.2633 82.1004 99.1406C82.2575 99.4165 82.3395 99.7288 82.3382 100.046C82.3368 100.364 82.2522 100.675 82.0928 100.95C81.9334 101.225 81.7047 101.453 81.4296 101.611C81.1545 101.77 80.8426 101.853 80.5251 101.854Z" fill="white"/>
</g>
</g>
<defs>
<clipPath id="clip0_12_256">
<rect width="144" height="144" fill="white"/>
</clipPath>
<clipPath id="clip1_12_256">
<rect width="59.5668" height="59.5668" fill="white" transform="translate(42.1464 42.2868)"/>
</clipPath>
</defs>
</svg>
