<svg width="192" height="192" viewBox="0 0 192 192" fill="none" xmlns="http://www.w3.org/2000/svg">
<g clip-path="url(#clip0_12_244)">
<rect width="192" height="192" fill="white"/>
<rect width="192" height="192" fill="#2D69EB"/>
<g clip-path="url(#clip1_12_244)">
<path d="M133.198 91.9457C132.88 91.946 132.566 91.8837 132.272 91.7623C131.979 91.6409 131.713 91.4629 131.488 91.2383L100.774 60.5242C100.376 60.0615 100.167 59.4653 100.19 58.8553C100.213 58.2452 100.466 57.6663 100.897 57.2347C101.329 56.803 101.908 56.5504 102.518 56.5276C103.128 56.5047 103.724 56.7133 104.187 57.1115L134.901 87.8257C135.239 88.1643 135.469 88.5954 135.562 89.0647C135.655 89.534 135.607 90.0203 135.423 90.4621C135.24 90.904 134.93 91.2817 134.532 91.5474C134.134 91.8131 133.667 91.955 133.188 91.955L133.198 91.9457Z" fill="white"/>
<path d="M133.198 111.535C132.88 111.535 132.566 111.472 132.272 111.351C131.979 111.23 131.713 111.052 131.488 110.827L81.1729 60.5118C80.7747 60.049 80.5661 59.4529 80.5889 58.8428C80.6117 58.2328 80.8643 57.6539 81.296 57.2222C81.7277 56.7906 82.3066 56.538 82.9166 56.5152C83.5267 56.4923 84.1228 56.7009 84.5855 57.0991L134.91 107.405C135.248 107.744 135.478 108.175 135.571 108.644C135.664 109.113 135.616 109.6 135.433 110.042C135.249 110.484 134.939 110.861 134.541 111.127C134.144 111.393 133.676 111.534 133.198 111.535Z" fill="white"/>
<path d="M85.9785 135.805C85.6606 135.806 85.3456 135.743 85.0517 135.622C84.7578 135.501 84.4908 135.322 84.266 135.098L56.9025 107.743C56.5043 107.281 56.2957 106.684 56.3185 106.074C56.3414 105.464 56.5939 104.885 57.0256 104.454C57.4573 104.022 58.0362 103.77 58.6462 103.747C59.2563 103.724 59.8524 103.932 60.3152 104.331L87.6694 131.685C88.0029 132.023 88.2297 132.451 88.3216 132.917C88.4135 133.382 88.3664 133.865 88.1862 134.304C88.006 134.743 87.7006 135.119 87.3081 135.386C86.9155 135.653 86.4532 135.799 85.9785 135.805Z" fill="white"/>
<path d="M133.198 91.9457C132.88 91.946 132.566 91.8837 132.272 91.7623C131.979 91.6409 131.713 91.4629 131.488 91.2383L100.774 60.5242C100.376 60.0615 100.167 59.4653 100.19 58.8553C100.213 58.2452 100.466 57.6663 100.897 57.2347C101.329 56.803 101.908 56.5504 102.518 56.5276C103.128 56.5047 103.724 56.7133 104.187 57.1115L134.901 87.8257C135.239 88.1643 135.469 88.5954 135.562 89.0647C135.655 89.534 135.607 90.0203 135.423 90.4621C135.24 90.904 134.93 91.2817 134.532 91.5474C134.134 91.8131 133.667 91.955 133.188 91.955L133.198 91.9457Z" fill="white"/>
<path d="M133.198 111.535C132.88 111.535 132.566 111.472 132.272 111.351C131.979 111.23 131.713 111.052 131.488 110.827L81.1729 60.5118C80.7747 60.049 80.5661 59.4529 80.5889 58.8428C80.6117 58.2328 80.8643 57.6539 81.296 57.2222C81.7277 56.7906 82.3066 56.538 82.9166 56.5152C83.5267 56.4923 84.1228 56.7009 84.5855 57.0991L134.91 107.405C135.248 107.744 135.478 108.175 135.571 108.644C135.664 109.113 135.616 109.6 135.433 110.042C135.249 110.484 134.939 110.861 134.541 111.127C134.144 111.393 133.676 111.534 133.198 111.535Z" fill="white"/>
<path d="M129.165 135.277C128.844 135.278 128.527 135.215 128.231 135.091C127.935 134.968 127.667 134.786 127.443 134.558C122.938 129.991 121.526 126.733 120.161 123.584C118.899 120.668 117.707 117.913 113.668 113.874C109.628 109.834 106.877 108.646 103.973 107.383C100.768 105.997 97.4576 104.563 92.7667 99.8724C88.0758 95.1815 86.6301 91.8712 85.2433 88.6664C83.9806 85.7501 82.7893 82.9983 78.753 78.9589C74.7167 74.9195 71.9617 73.7313 69.0455 72.4686C65.8406 71.0818 62.5303 69.6516 57.8394 64.9607C57.734 64.8552 57.6378 64.7559 57.5292 64.6504L57.3989 64.517C56.9513 64.0558 56.7052 63.4357 56.7148 62.7931C56.7244 62.1505 56.9889 61.538 57.4501 61.0904C57.9113 60.6428 58.5314 60.3967 59.174 60.4063C59.8166 60.4159 60.4291 60.6804 60.8767 61.1416L61.0194 61.2905L61.2614 61.5387C65.2946 65.5719 68.0527 66.7663 70.9659 68.029C74.1707 69.4127 77.481 70.846 82.175 75.5369C86.869 80.2278 88.2992 83.5412 89.6829 86.746C90.9456 89.6592 92.1369 92.4142 96.1732 96.4504C100.209 100.487 102.968 101.681 105.881 102.944C109.086 104.328 112.396 105.761 117.09 110.452C121.784 115.143 123.214 118.456 124.604 121.661C125.845 124.528 127.018 127.245 130.886 131.157C131.222 131.497 131.449 131.928 131.54 132.397C131.631 132.865 131.581 133.35 131.397 133.791C131.213 134.231 130.903 134.607 130.506 134.872C130.108 135.136 129.642 135.277 129.165 135.277Z" fill="white"/>
<path d="M107.367 135.805C106.94 135.806 106.52 135.693 106.151 135.479C105.781 135.265 105.475 134.957 105.263 134.586C104.496 133.194 103.846 131.742 103.321 130.242C102.369 127.714 101.543 125.53 98.3325 122.315C95.1214 119.101 92.9373 118.282 90.4088 117.327C87.7407 116.322 84.7159 115.183 80.7664 111.234C76.817 107.284 75.6753 104.259 74.6702 101.591C73.7177 99.0627 72.8956 96.8786 69.6814 93.6645C66.4673 90.4503 64.2832 89.6313 61.7547 88.6757C60.255 88.1512 58.8021 87.5016 57.4113 86.7336C57.1357 86.5759 56.8938 86.3655 56.6995 86.1144C56.5052 85.8632 56.3623 85.5763 56.2789 85.2699C56.1955 84.9635 56.1732 84.6437 56.2134 84.3287C56.2536 84.0138 56.3555 83.7098 56.5131 83.4342C56.6708 83.1586 56.8812 82.9167 57.1324 82.7224C57.3835 82.5281 57.6705 82.3852 57.9768 82.3018C58.2832 82.2184 58.603 82.1961 58.918 82.2363C59.233 82.2765 59.537 82.3783 59.8126 82.536C60.983 83.1718 62.2031 83.7114 63.461 84.1493C66.1291 85.1576 69.154 86.2962 73.1034 90.2487C77.0528 94.2012 78.1945 97.2199 79.1997 99.888C80.1522 102.416 80.9774 104.604 84.1884 107.815C87.3995 111.026 89.5836 111.848 92.1152 112.803C94.7802 113.809 97.805 114.947 101.754 118.897C105.704 122.846 106.846 125.877 107.851 128.539C108.288 129.797 108.829 131.018 109.467 132.187C109.677 132.555 109.786 132.972 109.784 133.395C109.782 133.818 109.67 134.234 109.457 134.6C109.244 134.966 108.94 135.27 108.573 135.482C108.206 135.693 107.79 135.804 107.367 135.805Z" fill="white"/>
<path d="M129.164 135.277C128.844 135.278 128.527 135.215 128.231 135.091C127.935 134.968 127.667 134.786 127.443 134.558C122.938 129.991 121.526 126.733 120.161 123.584C118.899 120.668 117.707 117.913 113.668 113.874C109.628 109.834 106.877 108.646 103.973 107.383C100.768 105.997 97.4576 104.563 92.7667 99.8724C88.0758 95.1816 86.6301 91.8713 85.2433 88.6664C83.9806 85.7501 82.7892 82.9983 78.753 78.9589C74.7167 74.9195 71.9617 73.7313 69.0454 72.4686C65.8406 71.0818 62.5303 69.6485 57.8394 64.9607C57.4412 64.498 57.2326 63.9018 57.2555 63.2918C57.2783 62.6817 57.5309 62.1028 57.9626 61.6711C58.3942 61.2395 58.9731 60.9869 59.5832 60.9641C60.1932 60.9412 60.7894 61.1498 61.2521 61.548C65.2853 65.5812 68.0434 66.7756 70.9565 68.0383C74.1614 69.422 77.4717 70.8553 82.1657 75.5462C86.8596 80.2371 88.2899 83.5505 89.6736 86.7553C90.9362 89.6685 92.1276 92.4235 96.1639 96.4598C100.2 100.496 102.958 101.69 105.871 102.953C109.076 104.337 112.387 105.77 117.08 110.461C121.774 115.152 123.205 118.465 124.595 121.67C125.836 124.537 127.008 127.255 130.877 131.167C131.212 131.506 131.44 131.938 131.531 132.406C131.621 132.875 131.572 133.36 131.388 133.8C131.204 134.24 130.894 134.616 130.496 134.881C130.099 135.146 129.632 135.287 129.155 135.287L129.164 135.277Z" fill="white"/>
<path d="M107.367 135.805C106.94 135.806 106.52 135.693 106.151 135.479C105.781 135.265 105.475 134.957 105.263 134.586C104.496 133.194 103.846 131.742 103.321 130.242C102.369 127.714 101.543 125.53 98.3325 122.315C95.1214 119.101 92.9373 118.282 90.4088 117.327C87.7407 116.322 84.7159 115.183 80.7664 111.234C76.817 107.284 75.6753 104.259 74.6702 101.591C73.7177 99.0627 72.8956 96.8786 69.6814 93.6645C66.4673 90.4503 64.2832 89.6313 61.7547 88.6757C60.255 88.1512 58.8021 87.5016 57.4113 86.7336C57.1357 86.5759 56.8938 86.3655 56.6995 86.1144C56.5052 85.8632 56.3623 85.5763 56.2789 85.2699C56.1955 84.9635 56.1732 84.6437 56.2134 84.3287C56.2536 84.0138 56.3555 83.7098 56.5131 83.4342C56.6708 83.1586 56.8812 82.9167 57.1324 82.7224C57.3835 82.5281 57.6705 82.3852 57.9768 82.3018C58.2832 82.2184 58.603 82.1961 58.918 82.2363C59.233 82.2765 59.537 82.3783 59.8126 82.536C60.983 83.1718 62.2031 83.7114 63.461 84.1493C66.1291 85.1576 69.154 86.2962 73.1034 90.2487C77.0528 94.2012 78.1945 97.2199 79.1997 99.888C80.1522 102.416 80.9774 104.604 84.1884 107.815C87.3995 111.026 89.5836 111.848 92.1152 112.803C94.7802 113.809 97.805 114.947 101.754 118.897C105.704 122.846 106.846 125.877 107.851 128.539C108.288 129.797 108.829 131.018 109.467 132.187C109.677 132.555 109.786 132.972 109.784 133.395C109.782 133.818 109.67 134.234 109.457 134.6C109.244 134.966 108.94 135.27 108.573 135.482C108.206 135.693 107.79 135.804 107.367 135.805Z" fill="white"/>
</g>
</g>
<defs>
<clipPath id="clip0_12_244">
<rect width="192" height="192" fill="white"/>
</clipPath>
<clipPath id="clip1_12_244">
<rect width="79.4224" height="79.4224" fill="white" transform="translate(56.1951 56.3824)"/>
</clipPath>
</defs>
</svg>
