<svg width="512" height="512" viewBox="0 0 512 512" fill="none" xmlns="http://www.w3.org/2000/svg">
<g clip-path="url(#clip0_6_99)">
<rect width="512" height="512" fill="white"/>
<rect width="512" height="512" fill="#2D69EB"/>
<g clip-path="url(#clip1_6_99)">
<path d="M360.236 244.406C359.349 244.407 358.47 244.232 357.65 243.893C356.83 243.554 356.085 243.056 355.458 242.429L269.606 156.577C268.493 155.284 267.91 153.617 267.974 151.912C268.038 150.207 268.744 148.589 269.95 147.382C271.157 146.175 272.775 145.469 274.48 145.406C276.185 145.342 277.852 145.925 279.145 147.038L364.997 232.889C365.941 233.836 366.584 235.041 366.844 236.353C367.104 237.664 366.969 239.024 366.457 240.259C365.945 241.494 365.078 242.55 363.966 243.292C362.854 244.035 361.547 244.432 360.21 244.432L360.236 244.406Z" fill="white"/>
<path d="M360.236 299.16C359.349 299.161 358.47 298.987 357.65 298.647C356.83 298.308 356.085 297.81 355.458 297.183L214.817 156.542C213.704 155.249 213.121 153.582 213.185 151.877C213.249 150.172 213.955 148.554 215.161 147.347C216.368 146.141 217.986 145.435 219.691 145.371C221.397 145.307 223.063 145.89 224.356 147.003L365.023 287.618C365.967 288.564 366.61 289.769 366.87 291.081C367.13 292.393 366.996 293.752 366.483 294.987C365.971 296.222 365.104 297.278 363.992 298.021C362.88 298.763 361.573 299.16 360.236 299.16Z" fill="white"/>
<path d="M228.25 367C227.361 367.002 226.481 366.828 225.659 366.489C224.838 366.15 224.091 365.651 223.463 365.023L146.977 288.563C145.864 287.269 145.281 285.603 145.345 283.898C145.409 282.193 146.115 280.575 147.321 279.368C148.528 278.161 150.146 277.455 151.851 277.392C153.556 277.328 155.223 277.911 156.516 279.024L232.976 355.484C233.908 356.428 234.542 357.625 234.799 358.927C235.056 360.229 234.925 361.577 234.421 362.805C233.917 364.032 233.064 365.084 231.966 365.83C230.869 366.576 229.577 366.983 228.25 367Z" fill="white"/>
<path d="M360.236 244.406C359.349 244.407 358.47 244.232 357.65 243.893C356.83 243.554 356.085 243.056 355.458 242.429L269.606 156.577C268.493 155.284 267.91 153.617 267.974 151.912C268.038 150.207 268.744 148.589 269.95 147.382C271.157 146.175 272.775 145.469 274.48 145.406C276.185 145.342 277.852 145.925 279.145 147.038L364.997 232.889C365.941 233.836 366.584 235.041 366.844 236.353C367.104 237.664 366.969 239.024 366.457 240.259C365.945 241.494 365.078 242.55 363.966 243.292C362.854 244.035 361.547 244.432 360.21 244.432L360.236 244.406Z" fill="white"/>
<path d="M360.236 299.16C359.349 299.161 358.47 298.987 357.65 298.647C356.83 298.308 356.085 297.81 355.458 297.183L214.817 156.542C213.704 155.249 213.121 153.582 213.185 151.877C213.249 150.172 213.955 148.554 215.161 147.347C216.368 146.141 217.986 145.435 219.691 145.371C221.397 145.307 223.063 145.89 224.356 147.003L365.023 287.618C365.967 288.564 366.61 289.769 366.87 291.081C367.13 292.393 366.996 293.752 366.483 294.987C365.971 296.222 365.104 297.278 363.992 298.021C362.88 298.763 361.573 299.16 360.236 299.16Z" fill="white"/>
<path d="M348.962 365.526C348.067 365.528 347.179 365.351 346.353 365.006C345.526 364.66 344.777 364.153 344.15 363.514C331.558 350.749 327.612 341.643 323.797 332.841C320.267 324.69 316.937 316.989 305.646 305.699C294.356 294.408 286.664 291.086 278.547 287.557C269.589 283.681 260.336 279.674 247.224 266.562C234.112 253.45 230.071 244.198 226.195 235.24C222.665 227.088 219.335 219.396 208.053 208.105C196.771 196.814 189.07 193.493 180.919 189.964C171.961 186.087 162.708 182.09 149.596 168.978C149.301 168.683 149.032 168.405 148.729 168.111L148.365 167.738C147.114 166.449 146.426 164.715 146.453 162.919C146.479 161.123 147.219 159.411 148.508 158.16C149.797 156.908 151.53 156.221 153.326 156.247C155.123 156.274 156.835 157.014 158.086 158.303L158.485 158.719L159.161 159.413C170.435 170.686 178.144 174.025 186.287 177.554C195.245 181.422 204.498 185.428 217.618 198.54C230.739 211.652 234.737 220.914 238.604 229.872C242.134 238.015 245.464 245.715 256.746 256.997C268.028 268.279 275.737 271.618 283.88 275.148C292.838 279.015 302.091 283.022 315.212 296.133C328.332 309.245 332.33 318.507 336.215 327.465C339.684 335.478 342.962 343.074 353.775 354.01C354.713 354.959 355.348 356.164 355.602 357.474C355.856 358.784 355.717 360.139 355.203 361.37C354.688 362.601 353.822 363.652 352.711 364.392C351.601 365.131 350.297 365.526 348.962 365.526Z" fill="white"/>
<path d="M288.034 367C286.84 367.002 285.667 366.688 284.634 366.089C283.602 365.491 282.746 364.629 282.154 363.592C280.01 359.703 278.194 355.642 276.726 351.451C274.064 344.384 271.757 338.279 262.781 329.295C253.806 320.311 247.701 318.021 240.633 315.35C233.176 312.541 224.721 309.358 213.681 298.319C202.642 287.279 199.451 278.824 196.641 271.367C193.979 264.299 191.681 258.194 182.697 249.21C173.713 240.226 167.608 237.936 160.54 235.266C156.348 233.799 152.287 231.984 148.399 229.837C147.629 229.396 146.953 228.808 146.41 228.106C145.867 227.404 145.467 226.602 145.234 225.746C145.001 224.889 144.939 223.995 145.051 223.115C145.163 222.234 145.448 221.385 145.889 220.614C146.33 219.844 146.918 219.168 147.62 218.625C148.322 218.082 149.124 217.682 149.98 217.449C150.837 217.216 151.731 217.154 152.611 217.266C153.491 217.379 154.341 217.663 155.111 218.104C158.383 219.881 161.793 221.389 165.31 222.613C172.767 225.432 181.222 228.614 192.262 239.662C203.301 250.71 206.492 259.148 209.302 266.606C211.964 273.673 214.271 279.787 223.246 288.762C232.222 297.738 238.327 300.036 245.403 302.707C252.852 305.516 261.307 308.699 272.346 319.738C283.386 330.778 286.577 339.25 289.387 346.69C290.61 350.208 292.121 353.619 293.905 356.889C294.49 357.917 294.796 359.081 294.791 360.264C294.786 361.448 294.471 362.609 293.877 363.632C293.282 364.656 292.43 365.505 291.405 366.096C290.38 366.687 289.217 366.999 288.034 367Z" fill="white"/>
<path d="M348.962 365.526C348.067 365.528 347.179 365.351 346.353 365.006C345.526 364.66 344.777 364.153 344.15 363.514C331.558 350.749 327.612 341.643 323.797 332.842C320.267 324.69 316.937 316.989 305.646 305.699C294.356 294.408 286.664 291.086 278.547 287.557C269.589 283.681 260.336 279.674 247.224 266.562C234.112 253.45 230.071 244.198 226.195 235.24C222.665 227.088 219.335 219.396 208.053 208.105C196.771 196.814 189.07 193.493 180.919 189.964C171.961 186.087 162.708 182.081 149.596 168.978C148.483 167.684 147.9 166.018 147.964 164.313C148.028 162.608 148.734 160.989 149.94 159.783C151.147 158.576 152.765 157.87 154.47 157.806C156.175 157.743 157.842 158.326 159.135 159.439C170.409 170.712 178.118 174.051 186.261 177.58C195.219 181.448 204.472 185.454 217.592 198.566C230.713 211.678 234.711 220.94 238.578 229.898C242.108 238.041 245.438 245.741 256.72 257.023C268.002 268.305 275.711 271.644 283.854 275.174C292.812 279.041 302.065 283.048 315.186 296.159C328.306 309.271 332.304 318.533 336.189 327.491C339.658 335.504 342.936 343.1 353.749 354.036C354.687 354.985 355.322 356.19 355.576 357.5C355.83 358.81 355.691 360.165 355.177 361.396C354.662 362.627 353.796 363.678 352.685 364.418C351.575 365.157 350.271 365.552 348.936 365.552L348.962 365.526Z" fill="white"/>
<path d="M288.034 367C286.84 367.002 285.667 366.688 284.634 366.089C283.602 365.491 282.746 364.629 282.154 363.592C280.01 359.703 278.194 355.642 276.726 351.451C274.064 344.384 271.757 338.279 262.781 329.295C253.806 320.311 247.701 318.021 240.633 315.35C233.176 312.541 224.721 309.358 213.681 298.319C202.642 287.279 199.451 278.824 196.641 271.367C193.979 264.299 191.681 258.194 182.697 249.21C173.713 240.226 167.608 237.936 160.54 235.266C156.348 233.799 152.287 231.984 148.399 229.837C147.629 229.396 146.953 228.808 146.41 228.106C145.867 227.404 145.467 226.602 145.234 225.746C145.001 224.889 144.939 223.995 145.051 223.115C145.163 222.234 145.448 221.385 145.889 220.614C146.33 219.844 146.918 219.168 147.62 218.625C148.322 218.082 149.124 217.682 149.98 217.449C150.837 217.216 151.731 217.154 152.611 217.266C153.491 217.379 154.341 217.663 155.111 218.104C158.383 219.881 161.793 221.389 165.31 222.613C172.767 225.432 181.222 228.614 192.262 239.662C203.301 250.71 206.492 259.148 209.302 266.606C211.964 273.673 214.271 279.787 223.246 288.762C232.222 297.738 238.327 300.036 245.403 302.707C252.852 305.516 261.307 308.699 272.346 319.738C283.386 330.778 286.577 339.25 289.387 346.69C290.61 350.208 292.121 353.619 293.905 356.889C294.49 357.917 294.796 359.081 294.791 360.264C294.786 361.448 294.471 362.609 293.877 363.632C293.282 364.656 292.43 365.505 291.405 366.096C290.38 366.687 289.217 366.999 288.034 367Z" fill="white"/>
</g>
</g>
<defs>
<clipPath id="clip0_6_99">
<rect width="512" height="512" fill="white"/>
</clipPath>
<clipPath id="clip1_6_99">
<rect width="222" height="222" fill="white" transform="translate(145 145)"/>
</clipPath>
</defs>
</svg>
