<svg width="72" height="72" viewBox="0 0 72 72" fill="none" xmlns="http://www.w3.org/2000/svg">
<g clip-path="url(#clip0_10_88)">
<rect width="72" height="72" fill="white"/>
<rect width="72" height="72" fill="#2D69EB"/>
<g clip-path="url(#clip1_10_88)">
<path d="M50.6582 34.3695C50.5334 34.3697 50.4098 34.3452 50.2945 34.2975C50.1792 34.2497 50.0745 34.1798 49.9862 34.0915L37.9134 22.0186C37.7568 21.8367 37.6749 21.6024 37.6838 21.3626C37.6928 21.1228 37.7921 20.8953 37.9618 20.7256C38.1314 20.5559 38.359 20.4566 38.5988 20.4477C38.8386 20.4387 39.0729 20.5207 39.2548 20.6772L51.3277 32.7501C51.4605 32.8832 51.5509 33.0526 51.5875 33.2371C51.624 33.4216 51.6051 33.6127 51.533 33.7864C51.461 33.9601 51.3391 34.1085 51.1827 34.213C51.0264 34.3174 50.8426 34.3732 50.6545 34.3732L50.6582 34.3695Z" fill="white"/>
<path d="M50.6582 42.0694C50.5334 42.0695 50.4098 42.045 50.2945 41.9973C50.1792 41.9496 50.0744 41.8796 49.9862 41.7913L30.2087 22.0138C30.0521 21.8319 29.9701 21.5976 29.9791 21.3578C29.9881 21.118 30.0874 20.8904 30.2571 20.7207C30.4267 20.5511 30.6543 20.4518 30.8941 20.4428C31.1339 20.4338 31.3682 20.5158 31.5501 20.6723L51.3313 40.4463C51.4641 40.5793 51.5545 40.7488 51.5911 40.9333C51.6277 41.1177 51.6087 41.3089 51.5367 41.4826C51.4646 41.6563 51.3427 41.8047 51.1864 41.9092C51.03 42.0136 50.8462 42.0694 50.6582 42.0694Z" fill="white"/>
<path d="M32.0977 51.6094C31.9727 51.6097 31.8489 51.5852 31.7333 51.5375C31.6178 51.4898 31.5129 51.4197 31.4245 51.3313L20.6687 40.5792C20.5122 40.3973 20.4302 40.163 20.4391 39.9232C20.4481 39.6834 20.5474 39.4558 20.7171 39.2861C20.8868 39.1165 21.1143 39.0172 21.3541 39.0082C21.5939 38.9992 21.8282 39.0812 22.0101 39.2377L32.7623 49.9899C32.8934 50.1227 32.9825 50.2911 33.0187 50.4741C33.0548 50.6572 33.0363 50.8468 32.9654 51.0194C32.8946 51.192 32.7746 51.34 32.6203 51.4449C32.466 51.5498 32.2842 51.607 32.0977 51.6094Z" fill="white"/>
<path d="M50.6582 34.3695C50.5334 34.3697 50.4098 34.3452 50.2945 34.2975C50.1792 34.2497 50.0745 34.1798 49.9862 34.0915L37.9134 22.0186C37.7568 21.8367 37.6749 21.6024 37.6838 21.3626C37.6928 21.1228 37.7921 20.8953 37.9618 20.7256C38.1314 20.5559 38.359 20.4566 38.5988 20.4477C38.8386 20.4387 39.0729 20.5207 39.2548 20.6772L51.3277 32.7501C51.4605 32.8832 51.5509 33.0526 51.5875 33.2371C51.624 33.4216 51.6051 33.6127 51.533 33.7864C51.461 33.9601 51.3391 34.1085 51.1827 34.213C51.0264 34.3174 50.8426 34.3732 50.6545 34.3732L50.6582 34.3695Z" fill="white"/>
<path d="M50.6582 42.0694C50.5334 42.0695 50.4098 42.045 50.2945 41.9973C50.1792 41.9496 50.0744 41.8796 49.9862 41.7913L30.2087 22.0138C30.0521 21.8319 29.9701 21.5976 29.9791 21.3578C29.9881 21.118 30.0874 20.8904 30.2571 20.7207C30.4267 20.5511 30.6543 20.4518 30.8941 20.4428C31.1339 20.4338 31.3682 20.5158 31.5501 20.6723L51.3313 40.4463C51.4641 40.5793 51.5545 40.7488 51.5911 40.9333C51.6277 41.1177 51.6087 41.3089 51.5367 41.4826C51.4646 41.6563 51.3427 41.8047 51.1864 41.9092C51.03 42.0136 50.8462 42.0694 50.6582 42.0694Z" fill="white"/>
<path d="M49.0729 51.4021C48.9469 51.4024 48.8221 51.3775 48.7059 51.329C48.5897 51.2804 48.4843 51.209 48.396 51.1192C46.6254 49.3241 46.0705 48.0436 45.5339 46.8058C45.0376 45.6595 44.5693 44.5766 42.9815 42.9889C41.3938 41.4011 40.3121 40.934 39.1707 40.4377C37.9109 39.8926 36.6097 39.3292 34.7659 37.4853C32.922 35.6415 32.3538 34.3403 31.8086 33.0806C31.3123 31.9343 30.844 30.8526 29.2575 29.2648C27.6709 27.677 26.588 27.21 25.4417 26.7137C24.182 26.1685 22.8808 25.6064 21.037 23.7625C20.9955 23.721 20.9577 23.682 20.915 23.6406L20.8638 23.5881C20.6878 23.4068 20.5911 23.1631 20.5949 22.9105C20.5987 22.6579 20.7026 22.4171 20.8839 22.2412C21.0652 22.0653 21.3089 21.9685 21.5615 21.9723C21.8141 21.9761 22.0549 22.08 22.2308 22.2613L22.2869 22.3199L22.382 22.4174C23.9674 24.0027 25.0515 24.4722 26.1966 24.9686C27.4563 25.5125 28.7575 26.0759 30.6026 27.9197C32.4477 29.7636 33.0098 31.066 33.5537 32.3257C34.0501 33.4708 34.5183 34.5537 36.1049 36.1403C37.6914 37.7268 38.7755 38.1963 39.9206 38.6926C41.1804 39.2365 42.4816 39.7999 44.3266 41.6438C46.1717 43.4876 46.7339 44.79 47.2802 46.0498C47.768 47.1766 48.229 48.2448 49.7497 49.7826C49.8815 49.9161 49.9709 50.0856 50.0066 50.2698C50.0423 50.4539 50.0228 50.6446 49.9504 50.8177C49.8781 50.9908 49.7562 51.1386 49.6 51.2426C49.4439 51.3466 49.2605 51.4021 49.0729 51.4021Z" fill="white"/>
<path d="M40.5048 51.6094C40.3369 51.6097 40.172 51.5655 40.0267 51.4813C39.8815 51.3971 39.7612 51.2759 39.678 51.1301C39.3764 50.5833 39.121 50.0122 38.9146 49.4228C38.5402 48.429 38.2158 47.5704 36.9537 46.3071C35.6915 45.0437 34.833 44.7217 33.8391 44.3461C32.7904 43.951 31.6014 43.5035 30.049 41.9511C28.4966 40.3987 28.0478 39.2097 27.6527 38.1609C27.2783 37.167 26.9551 36.3085 25.6917 35.0451C24.4284 33.7818 23.5698 33.4598 22.576 33.0842C21.9865 32.878 21.4154 32.6227 20.8687 32.3208C20.7604 32.2588 20.6653 32.1761 20.5889 32.0774C20.5125 31.9787 20.4564 31.8659 20.4236 31.7455C20.3908 31.625 20.382 31.4993 20.3978 31.3755C20.4136 31.2517 20.4537 31.1322 20.5156 31.0239C20.5776 30.9156 20.6603 30.8205 20.7591 30.7441C20.8578 30.6677 20.9706 30.6116 21.091 30.5788C21.2114 30.546 21.3371 30.5373 21.4609 30.5531C21.5847 30.5689 21.7042 30.6089 21.8126 30.6709C22.2726 30.9208 22.7522 31.1329 23.2467 31.305C24.2954 31.7013 25.4844 32.1489 27.0368 33.7025C28.5892 35.2561 29.038 36.4427 29.4331 37.4914C29.8075 38.4853 30.1319 39.345 31.394 40.6072C32.6562 41.8694 33.5147 42.1925 34.5098 42.5681C35.5574 42.9632 36.7464 43.4108 38.2988 44.9632C39.8512 46.5156 40.2999 47.707 40.695 48.7533C40.8671 49.248 41.0796 49.7277 41.3304 50.1875C41.4127 50.3321 41.4557 50.4957 41.455 50.6622C41.4543 50.8286 41.41 50.9919 41.3264 51.1358C41.2429 51.2797 41.123 51.3992 40.9788 51.4823C40.8347 51.5654 40.6712 51.6092 40.5048 51.6094Z" fill="white"/>
<path d="M49.0729 51.4021C48.9469 51.4024 48.8221 51.3775 48.7059 51.3289C48.5897 51.2804 48.4843 51.209 48.3961 51.1191C46.6254 49.3241 46.0705 48.0436 45.5339 46.8058C45.0376 45.6595 44.5693 44.5766 42.9815 42.9888C41.3938 41.4011 40.3121 40.934 39.1707 40.4377C37.9109 39.8926 36.6098 39.3292 34.7659 37.4853C32.922 35.6415 32.3538 34.3403 31.8087 33.0806C31.3123 31.9342 30.844 30.8526 29.2575 29.2648C27.6709 27.677 26.588 27.21 25.4417 26.7136C24.182 26.1685 22.8808 25.6051 21.037 23.7625C20.8804 23.5806 20.7985 23.3463 20.8074 23.1065C20.8164 22.8667 20.9157 22.6391 21.0854 22.4695C21.255 22.2998 21.4826 22.2005 21.7224 22.1915C21.9622 22.1825 22.1965 22.2645 22.3784 22.4211C23.9637 24.0064 25.0478 24.4759 26.1929 24.9722C27.4527 25.5161 28.7538 26.0795 30.5989 27.9234C32.444 29.7672 33.0062 31.0696 33.5501 32.3294C34.0464 33.4744 34.5147 34.5573 36.1012 36.1439C37.6878 37.7304 38.7719 38.1999 39.917 38.6963C41.1767 39.2402 42.4779 39.8036 44.323 41.6474C46.1681 43.4913 46.7302 44.7937 47.2766 46.0534C47.7644 47.1802 48.2253 48.2485 49.746 49.7862C49.8778 49.9197 49.9672 50.0892 50.0029 50.2734C50.0386 50.4576 50.0191 50.6482 49.9468 50.8213C49.8744 50.9944 49.7525 51.1422 49.5964 51.2462C49.4402 51.3502 49.2568 51.4057 49.0692 51.4057L49.0729 51.4021Z" fill="white"/>
<path d="M40.5048 51.6094C40.3369 51.6097 40.172 51.5655 40.0267 51.4813C39.8815 51.3971 39.7612 51.2759 39.678 51.1301C39.3764 50.5833 39.121 50.0122 38.9146 49.4228C38.5402 48.429 38.2158 47.5704 36.9537 46.3071C35.6915 45.0437 34.833 44.7217 33.8391 44.3461C32.7904 43.951 31.6014 43.5035 30.049 41.9511C28.4966 40.3987 28.0478 39.2097 27.6527 38.1609C27.2783 37.167 26.9551 36.3085 25.6917 35.0451C24.4284 33.7818 23.5698 33.4598 22.576 33.0842C21.9865 32.878 21.4154 32.6227 20.8687 32.3208C20.7604 32.2588 20.6653 32.1761 20.5889 32.0774C20.5125 31.9787 20.4564 31.8659 20.4236 31.7455C20.3908 31.625 20.382 31.4993 20.3978 31.3755C20.4136 31.2517 20.4537 31.1322 20.5156 31.0239C20.5776 30.9156 20.6603 30.8205 20.7591 30.7441C20.8578 30.6677 20.9706 30.6116 21.091 30.5788C21.2114 30.546 21.3371 30.5373 21.4609 30.5531C21.5847 30.5689 21.7042 30.6089 21.8126 30.6709C22.2726 30.9208 22.7522 31.1329 23.2467 31.305C24.2954 31.7013 25.4844 32.1489 27.0368 33.7025C28.5892 35.2561 29.038 36.4427 29.4331 37.4914C29.8075 38.4853 30.1319 39.345 31.394 40.6072C32.6562 41.8694 33.5147 42.1925 34.5098 42.5681C35.5574 42.9632 36.7464 43.4108 38.2988 44.9632C39.8512 46.5156 40.2999 47.707 40.695 48.7533C40.8671 49.248 41.0796 49.7277 41.3304 50.1875C41.4127 50.3321 41.4557 50.4957 41.455 50.6622C41.4543 50.8286 41.41 50.9919 41.3264 51.1358C41.2429 51.2797 41.123 51.3992 40.9788 51.4823C40.8347 51.5654 40.6712 51.6092 40.5048 51.6094Z" fill="white"/>
</g>
</g>
<defs>
<clipPath id="clip0_10_88">
<rect width="72" height="72" fill="white"/>
</clipPath>
<clipPath id="clip1_10_88">
<rect width="31.2188" height="31.2188" fill="white" transform="translate(20.3906 20.3906)"/>
</clipPath>
</defs>
</svg>
