<svg width="256" height="256" viewBox="0 0 256 256" fill="none" xmlns="http://www.w3.org/2000/svg">
<g clip-path="url(#clip0_17_26)">
<rect width="256" height="256" fill="white"/>
<rect width="256" height="256" fill="#2D69EB"/>
<g clip-path="url(#clip1_17_26)">
<path d="M177.597 122.594C177.174 122.595 176.754 122.512 176.363 122.35C175.972 122.188 175.617 121.95 175.318 121.651L134.365 80.6989C133.834 80.0819 133.556 79.2871 133.587 78.4737C133.617 77.6602 133.954 76.8884 134.53 76.3128C135.105 75.7373 135.877 75.4005 136.69 75.3701C137.504 75.3396 138.299 75.6177 138.916 76.1487L179.868 117.101C180.318 117.552 180.625 118.127 180.749 118.753C180.873 119.379 180.809 120.027 180.564 120.616C180.32 121.205 179.907 121.709 179.376 122.063C178.846 122.417 178.222 122.607 177.584 122.607L177.597 122.594Z" fill="white"/>
<path d="M177.597 148.713C177.174 148.713 176.754 148.63 176.363 148.468C175.972 148.306 175.617 148.069 175.318 147.77L108.23 80.6824C107.7 80.0654 107.421 79.2705 107.452 78.4571C107.482 77.6437 107.819 76.8719 108.395 76.2963C108.97 75.7207 109.742 75.384 110.555 75.3535C111.369 75.3231 112.164 75.6012 112.781 76.1321L179.88 143.207C180.331 143.658 180.637 144.233 180.761 144.859C180.885 145.485 180.821 146.133 180.577 146.722C180.333 147.311 179.919 147.815 179.389 148.169C178.858 148.523 178.235 148.713 177.597 148.713Z" fill="white"/>
<path d="M114.638 181.073C114.214 181.074 113.794 180.991 113.402 180.829C113.01 180.668 112.654 180.43 112.355 180.13L75.87 143.658C75.339 143.041 75.0609 142.246 75.0914 141.432C75.1218 140.619 75.4586 139.847 76.0341 139.272C76.6097 138.696 77.3816 138.359 78.195 138.329C79.0084 138.298 79.8032 138.577 80.4202 139.107L116.892 175.58C117.337 176.03 117.64 176.601 117.762 177.222C117.885 177.843 117.822 178.486 117.582 179.072C117.341 179.657 116.934 180.159 116.411 180.515C115.887 180.871 115.271 181.065 114.638 181.073Z" fill="white"/>
<path d="M177.597 122.594C177.174 122.595 176.754 122.512 176.363 122.35C175.972 122.188 175.617 121.95 175.318 121.651L134.365 80.6989C133.834 80.0819 133.556 79.2871 133.587 78.4737C133.617 77.6602 133.954 76.8884 134.53 76.3128C135.105 75.7373 135.877 75.4005 136.69 75.3701C137.504 75.3396 138.299 75.6177 138.916 76.1487L179.868 117.101C180.318 117.552 180.625 118.127 180.749 118.753C180.873 119.379 180.809 120.027 180.564 120.616C180.32 121.205 179.907 121.709 179.376 122.063C178.846 122.417 178.222 122.607 177.584 122.607L177.597 122.594Z" fill="white"/>
<path d="M177.597 148.713C177.174 148.713 176.754 148.63 176.363 148.468C175.972 148.306 175.617 148.069 175.318 147.77L108.23 80.6824C107.7 80.0654 107.421 79.2705 107.452 78.4571C107.482 77.6437 107.819 76.8719 108.395 76.2963C108.97 75.7207 109.742 75.384 110.555 75.3535C111.369 75.3231 112.164 75.6012 112.781 76.1321L179.88 143.207C180.331 143.658 180.637 144.233 180.761 144.859C180.885 145.485 180.821 146.133 180.577 146.722C180.333 147.311 179.919 147.815 179.389 148.169C178.858 148.523 178.235 148.713 177.597 148.713Z" fill="white"/>
<path d="M172.219 180.37C171.792 180.371 171.369 180.287 170.974 180.122C170.58 179.957 170.223 179.715 169.923 179.41C163.917 173.321 162.035 168.978 160.215 164.779C158.531 160.891 156.943 157.217 151.557 151.832C146.171 146.446 142.502 144.862 138.63 143.178C134.357 141.329 129.943 139.418 123.689 133.163C117.434 126.909 115.507 122.495 113.658 118.222C111.974 114.334 110.386 110.664 105.004 105.279C99.6222 99.8927 95.9489 98.3084 92.0605 96.6248C87.7874 94.7757 83.3737 92.8688 77.1192 86.6142C76.9786 86.4736 76.8503 86.3412 76.7055 86.2006L76.5318 86.0227C75.935 85.4078 75.6069 84.581 75.6197 83.7242C75.6325 82.8673 75.9851 82.0507 76.6001 81.4539C77.215 80.857 78.0418 80.5289 78.8986 80.5417C79.7554 80.5545 80.5721 80.9072 81.1689 81.5221L81.3592 81.7207L81.6818 82.0516C87.0594 87.4292 90.7368 89.0217 94.6211 90.7053C98.8942 92.5502 103.308 94.4613 109.567 100.716C115.825 106.97 117.732 111.388 119.577 115.661C121.261 119.546 122.849 123.219 128.231 128.601C133.613 133.982 137.29 135.575 141.174 137.258C145.447 139.103 149.861 141.014 156.12 147.269C162.378 153.524 164.285 157.941 166.139 162.214C167.793 166.037 169.357 169.66 174.515 174.877C174.962 175.329 175.265 175.904 175.387 176.529C175.508 177.154 175.441 177.8 175.196 178.388C174.951 178.975 174.537 179.476 174.007 179.829C173.478 180.182 172.856 180.37 172.219 180.37Z" fill="white"/>
<path d="M143.156 181.073C142.586 181.074 142.027 180.924 141.534 180.639C141.041 180.353 140.633 179.942 140.351 179.447C139.328 177.593 138.462 175.655 137.762 173.656C136.492 170.285 135.391 167.373 131.11 163.087C126.829 158.802 123.916 157.71 120.545 156.436C116.988 155.095 112.954 153.577 107.689 148.311C102.423 143.046 100.9 139.012 99.5602 135.455C98.2903 132.084 97.1941 129.171 92.9086 124.886C88.6231 120.6 85.7109 119.508 82.3396 118.234C80.34 117.535 78.4028 116.669 76.5484 115.645C76.1809 115.435 75.8584 115.154 75.5993 114.819C75.3403 114.484 75.1497 114.102 75.0385 113.693C74.9273 113.285 74.8976 112.858 74.9512 112.438C75.0048 112.018 75.1406 111.613 75.3508 111.246C75.5611 110.878 75.8416 110.556 76.1765 110.296C76.5113 110.037 76.8939 109.847 77.3024 109.736C77.711 109.624 78.1374 109.595 78.5573 109.648C78.9773 109.702 79.3826 109.838 79.7501 110.048C81.3106 110.896 82.9375 111.615 84.6147 112.199C88.1722 113.543 92.2054 115.062 97.4712 120.332C102.737 125.602 104.259 129.626 105.6 133.184C106.87 136.555 107.97 139.472 112.251 143.753C116.533 148.034 119.445 149.13 122.82 150.404C126.374 151.745 130.407 153.263 135.673 158.529C140.938 163.795 142.461 167.836 143.801 171.385C144.385 173.063 145.105 174.69 145.956 176.25C146.235 176.74 146.381 177.296 146.379 177.86C146.377 178.425 146.226 178.979 145.943 179.467C145.659 179.955 145.253 180.36 144.764 180.642C144.275 180.924 143.72 181.073 143.156 181.073Z" fill="white"/>
<path d="M172.219 180.37C171.792 180.371 171.369 180.287 170.974 180.122C170.58 179.957 170.223 179.715 169.923 179.41C163.917 173.321 162.035 168.978 160.215 164.779C158.531 160.891 156.943 157.217 151.557 151.832C146.171 146.446 142.502 144.862 138.63 143.178C134.357 141.329 129.943 139.418 123.689 133.163C117.434 126.909 115.507 122.495 113.658 118.222C111.974 114.334 110.386 110.664 105.004 105.279C99.6222 99.8927 95.9489 98.3084 92.0605 96.6248C87.7874 94.7757 83.3737 92.8646 77.1192 86.6142C76.5882 85.9973 76.3101 85.2024 76.3406 84.389C76.371 83.5756 76.7078 82.8037 77.2834 82.2282C77.8589 81.6526 78.6308 81.3158 79.4442 81.2854C80.2576 81.255 81.0524 81.5331 81.6694 82.064C87.047 87.4416 90.7244 89.0341 94.6087 90.7177C98.8818 92.5627 103.295 94.4738 109.554 100.728C115.813 106.983 117.72 111.401 119.565 115.674C121.248 119.558 122.837 123.231 128.218 128.613C133.6 133.995 137.278 135.587 141.162 137.271C145.435 139.116 149.849 141.027 156.107 147.281C162.366 153.536 164.273 157.954 166.126 162.227C167.781 166.049 169.344 169.673 174.503 174.889C174.95 175.342 175.253 175.917 175.374 176.542C175.495 177.166 175.429 177.813 175.184 178.4C174.938 178.987 174.525 179.489 173.995 179.841C173.465 180.194 172.843 180.382 172.207 180.382L172.219 180.37Z" fill="white"/>
<path d="M143.156 181.073C142.586 181.074 142.027 180.924 141.534 180.639C141.041 180.353 140.633 179.942 140.351 179.447C139.328 177.593 138.462 175.655 137.762 173.656C136.492 170.285 135.391 167.373 131.11 163.087C126.829 158.802 123.916 157.71 120.545 156.436C116.988 155.095 112.954 153.577 107.689 148.311C102.423 143.046 100.9 139.012 99.5602 135.455C98.2903 132.084 97.1941 129.171 92.9086 124.886C88.6231 120.6 85.7109 119.508 82.3396 118.234C80.34 117.535 78.4028 116.669 76.5484 115.645C76.1809 115.435 75.8584 115.154 75.5993 114.819C75.3403 114.484 75.1497 114.102 75.0385 113.693C74.9273 113.285 74.8976 112.858 74.9512 112.438C75.0048 112.018 75.1406 111.613 75.3508 111.246C75.5611 110.878 75.8416 110.556 76.1765 110.296C76.5113 110.037 76.8939 109.847 77.3024 109.736C77.711 109.624 78.1374 109.595 78.5573 109.648C78.9773 109.702 79.3826 109.838 79.7501 110.048C81.3106 110.896 82.9375 111.615 84.6147 112.199C88.1722 113.543 92.2054 115.062 97.4712 120.332C102.737 125.602 104.259 129.626 105.6 133.184C106.87 136.555 107.97 139.472 112.251 143.753C116.533 148.034 119.445 149.13 122.82 150.404C126.374 151.745 130.407 153.263 135.673 158.529C140.938 163.795 142.461 167.836 143.801 171.385C144.385 173.063 145.105 174.69 145.956 176.25C146.235 176.74 146.381 177.296 146.379 177.86C146.377 178.425 146.226 178.979 145.943 179.467C145.659 179.955 145.253 180.36 144.764 180.642C144.275 180.924 143.72 181.073 143.156 181.073Z" fill="white"/>
</g>
</g>
<defs>
<clipPath id="clip0_17_26">
<rect width="256" height="256" fill="white"/>
</clipPath>
<clipPath id="clip1_17_26">
<rect width="105.897" height="105.897" fill="white" transform="translate(74.9268 75.1766)"/>
</clipPath>
</defs>
</svg>
