<svg width="1024" height="1024" viewBox="0 0 1024 1024" fill="none" xmlns="http://www.w3.org/2000/svg">
<g clip-path="url(#clip0_11_172)">
<rect width="1024" height="1024" fill="white"/>
<rect width="1024" height="1024" fill="#2D69EB"/>
<g clip-path="url(#clip1_11_172)">
<path d="M710.387 490.377C708.694 490.379 707.018 490.046 705.453 489.399C703.889 488.752 702.467 487.802 701.27 486.604L537.462 322.796C535.338 320.328 534.225 317.148 534.347 313.895C534.469 310.641 535.816 307.554 538.118 305.251C540.421 302.949 543.508 301.602 546.762 301.48C550.015 301.359 553.195 302.471 555.663 304.595L719.471 468.404C721.274 470.209 722.5 472.509 722.996 475.012C723.492 477.514 723.235 480.108 722.258 482.465C721.281 484.822 719.626 486.836 717.505 488.253C715.383 489.67 712.889 490.426 710.338 490.427L710.387 490.377Z" fill="white"/>
<path d="M710.387 594.851C708.694 594.852 707.017 594.52 705.453 593.873C703.889 593.225 702.467 592.276 701.27 591.078L432.922 322.73C430.798 320.262 429.686 317.082 429.807 313.829C429.929 310.575 431.276 307.488 433.578 305.185C435.881 302.883 438.968 301.536 442.222 301.414C445.475 301.292 448.655 302.405 451.123 304.529L719.521 572.828C721.323 574.633 722.55 576.933 723.046 579.436C723.542 581.938 723.285 584.532 722.308 586.889C721.33 589.245 719.676 591.26 717.554 592.677C715.433 594.094 712.939 594.85 710.387 594.851Z" fill="white"/>
<path d="M458.552 724.293C456.856 724.296 455.176 723.965 453.609 723.318C452.042 722.67 450.618 721.72 449.419 720.52L303.48 574.631C301.356 572.163 300.244 568.984 300.365 565.73C300.487 562.476 301.834 559.389 304.137 557.087C306.439 554.785 309.526 553.437 312.78 553.316C316.033 553.194 319.213 554.306 321.681 556.43L467.57 702.319C469.349 704.12 470.559 706.405 471.049 708.889C471.539 711.373 471.288 713.946 470.327 716.288C469.365 718.63 467.737 720.637 465.643 722.061C463.55 723.484 461.084 724.26 458.552 724.293Z" fill="white"/>
<path d="M710.387 490.377C708.694 490.379 707.018 490.046 705.453 489.399C703.889 488.752 702.467 487.802 701.27 486.604L537.462 322.796C535.338 320.328 534.225 317.148 534.347 313.895C534.469 310.641 535.816 307.554 538.118 305.251C540.421 302.949 543.508 301.602 546.762 301.48C550.015 301.359 553.195 302.471 555.663 304.595L719.471 468.404C721.274 470.209 722.5 472.509 722.996 475.012C723.492 477.514 723.235 480.108 722.258 482.465C721.281 484.822 719.626 486.836 717.505 488.253C715.383 489.67 712.889 490.426 710.338 490.427L710.387 490.377Z" fill="white"/>
<path d="M710.387 594.851C708.694 594.852 707.017 594.52 705.453 593.873C703.889 593.225 702.467 592.276 701.27 591.078L432.922 322.73C430.798 320.262 429.686 317.082 429.807 313.829C429.929 310.575 431.276 307.488 433.578 305.185C435.881 302.883 438.968 301.536 442.222 301.414C445.475 301.292 448.655 302.405 451.123 304.529L719.521 572.828C721.323 574.633 722.55 576.933 723.046 579.436C723.542 581.938 723.285 584.532 722.308 586.889C721.33 589.245 719.676 591.26 717.554 592.677C715.433 594.094 712.939 594.85 710.387 594.851Z" fill="white"/>
<path d="M688.877 721.48C687.168 721.484 685.475 721.147 683.898 720.488C682.321 719.829 680.892 718.861 679.694 717.641C655.669 693.285 648.14 675.911 640.86 659.117C634.125 643.563 627.772 628.87 606.228 607.327C584.685 585.783 570.008 579.446 554.521 572.712C537.428 565.315 519.774 557.671 494.755 532.653C469.737 507.635 462.027 489.98 454.631 472.888C447.896 457.334 441.542 442.657 420.016 421.114C398.489 399.571 383.796 393.233 368.242 386.499C351.15 379.103 333.495 371.475 308.477 346.457C307.914 345.894 307.401 345.365 306.822 344.802L306.127 344.091C303.74 341.631 302.428 338.324 302.479 334.897C302.53 331.469 303.941 328.203 306.4 325.815C308.86 323.428 312.167 322.116 315.594 322.167C319.022 322.218 322.288 323.629 324.676 326.088L325.437 326.883L326.727 328.206C348.238 349.717 362.947 356.087 378.484 362.821C395.577 370.201 413.232 377.845 438.266 402.863C463.301 427.882 470.929 445.553 478.308 462.645C485.043 478.182 491.397 492.876 512.923 514.402C534.45 535.929 549.16 542.299 564.697 549.034C581.789 556.414 599.444 564.058 624.479 589.076C649.513 614.094 657.141 631.766 664.554 648.858C671.173 664.147 677.427 678.641 698.06 699.506C699.849 701.318 701.061 703.617 701.546 706.116C702.031 708.615 701.766 711.202 700.784 713.55C699.803 715.899 698.148 717.905 696.03 719.316C693.911 720.727 691.423 721.48 688.877 721.48Z" fill="white"/>
<path d="M572.623 724.293C570.345 724.297 568.107 723.697 566.136 722.555C564.166 721.412 562.533 719.768 561.404 717.79C557.312 710.371 553.847 702.622 551.046 694.625C545.967 681.14 541.565 669.491 524.44 652.349C507.314 635.207 495.666 630.839 482.18 625.743C467.951 620.382 451.818 614.309 430.754 593.246C409.691 572.182 403.602 556.05 398.241 541.82C393.161 528.334 388.776 516.686 371.634 499.544C354.492 482.402 342.844 478.034 329.358 472.937C321.36 470.14 313.611 466.675 306.194 462.579C304.724 461.738 303.434 460.616 302.397 459.277C301.361 457.937 300.599 456.407 300.154 454.773C299.709 453.139 299.591 451.433 299.805 449.753C300.019 448.073 300.562 446.452 301.403 444.982C302.244 443.512 303.366 442.222 304.706 441.186C306.045 440.15 307.576 439.387 309.21 438.943C310.844 438.498 312.549 438.379 314.229 438.594C315.909 438.808 317.53 439.351 319 440.192C325.242 443.583 331.75 446.461 338.459 448.796C352.689 454.174 368.821 460.246 389.885 481.326C410.948 502.406 417.037 518.506 422.398 532.736C427.478 546.221 431.88 557.886 449.005 575.012C466.13 592.137 477.779 596.522 491.281 601.618C505.494 606.979 521.627 613.052 542.69 634.115C563.754 655.179 569.843 671.344 575.204 685.541C577.538 692.253 580.422 698.761 583.825 705C584.942 706.962 585.525 709.183 585.516 711.44C585.506 713.698 584.905 715.914 583.771 717.867C582.637 719.82 581.011 721.441 579.055 722.568C577.098 723.696 574.881 724.29 572.623 724.293Z" fill="white"/>
<path d="M688.877 721.48C687.168 721.484 685.475 721.147 683.898 720.488C682.321 719.829 680.891 718.861 679.694 717.641C655.669 693.285 648.14 675.911 640.86 659.117C634.125 643.563 627.771 628.87 606.228 607.327C584.685 585.783 570.008 579.446 554.521 572.712C537.428 565.315 519.773 557.671 494.755 532.653C469.737 507.635 462.027 489.98 454.631 472.888C447.896 457.334 441.542 442.657 420.016 421.114C398.489 399.571 383.796 393.233 368.242 386.499C351.15 379.103 333.495 371.459 308.477 346.457C306.353 343.989 305.241 340.81 305.362 337.556C305.484 334.302 306.831 331.215 309.133 328.913C311.436 326.61 314.523 325.263 317.777 325.142C321.03 325.02 324.21 326.132 326.678 328.256C348.188 349.766 362.898 356.137 378.435 362.871C395.527 370.251 413.182 377.895 438.217 402.913C463.251 427.931 470.879 445.603 478.259 462.695C484.993 478.232 491.347 492.925 512.874 514.452C534.4 535.979 549.11 542.349 564.647 549.084C581.74 556.463 599.394 564.108 624.429 589.126C649.464 614.144 657.092 631.815 664.504 648.908C671.123 664.196 677.377 678.691 698.011 699.556C699.799 701.367 701.012 703.667 701.496 706.166C701.981 708.665 701.716 711.251 700.734 713.6C699.753 715.949 698.099 717.954 695.98 719.365C693.861 720.776 691.373 721.529 688.827 721.529L688.877 721.48Z" fill="white"/>
<path d="M572.623 724.293C570.345 724.297 568.107 723.697 566.136 722.555C564.166 721.412 562.533 719.768 561.404 717.79C557.312 710.371 553.847 702.622 551.046 694.625C545.967 681.14 541.565 669.491 524.44 652.349C507.314 635.207 495.666 630.839 482.18 625.743C467.951 620.382 451.818 614.309 430.754 593.246C409.691 572.182 403.602 556.05 398.241 541.82C393.161 528.334 388.776 516.686 371.634 499.544C354.492 482.402 342.844 478.034 329.358 472.937C321.36 470.14 313.611 466.675 306.194 462.579C304.724 461.738 303.434 460.616 302.397 459.277C301.361 457.937 300.599 456.407 300.154 454.773C299.709 453.139 299.591 451.433 299.805 449.753C300.019 448.073 300.562 446.452 301.403 444.982C302.244 443.512 303.366 442.222 304.706 441.186C306.045 440.15 307.576 439.387 309.21 438.943C310.844 438.498 312.549 438.379 314.229 438.594C315.909 438.808 317.53 439.351 319 440.192C325.242 443.583 331.75 446.461 338.459 448.796C352.689 454.174 368.821 460.246 389.885 481.326C410.948 502.406 417.037 518.506 422.398 532.736C427.478 546.221 431.88 557.886 449.005 575.012C466.13 592.137 477.779 596.522 491.281 601.618C505.494 606.979 521.627 613.052 542.69 634.115C563.754 655.179 569.843 671.344 575.204 685.541C577.538 692.253 580.422 698.761 583.825 705C584.942 706.962 585.525 709.183 585.516 711.44C585.506 713.698 584.905 715.914 583.771 717.867C582.637 719.82 581.011 721.441 579.055 722.568C577.098 723.696 574.881 724.29 572.623 724.293Z" fill="white"/>
</g>
</g>
<defs>
<clipPath id="clip0_11_172">
<rect width="1024" height="1024" fill="white"/>
</clipPath>
<clipPath id="clip1_11_172">
<rect width="423.586" height="423.586" fill="white" transform="translate(299.707 300.706)"/>
</clipPath>
</defs>
</svg>
