<svg width="192" height="192" viewBox="0 0 192 192" fill="none" xmlns="http://www.w3.org/2000/svg">
<g clip-path="url(#clip0_10_40)">
<rect width="192" height="192" fill="white"/>
<rect width="192" height="192" fill="#2D69EB"/>
<g clip-path="url(#clip1_10_40)">
<path d="M135.088 91.6521C134.756 91.6524 134.426 91.5871 134.119 91.4599C133.811 91.3327 133.532 91.146 133.297 90.9107L101.102 58.7163C100.685 58.2313 100.466 57.6064 100.49 56.967C100.514 56.3275 100.779 55.7207 101.231 55.2683C101.684 54.8158 102.291 54.551 102.93 54.5271C103.57 54.5032 104.194 54.7218 104.679 55.1392L136.874 87.3335C137.228 87.6885 137.469 88.1404 137.567 88.6323C137.664 89.1242 137.614 89.6339 137.421 90.0971C137.229 90.5603 136.904 90.9561 136.487 91.2346C136.07 91.5131 135.58 91.6618 135.079 91.6619L135.088 91.6521Z" fill="white"/>
<path d="M135.088 112.185C134.756 112.185 134.426 112.12 134.119 111.993C133.811 111.866 133.532 111.679 133.297 111.444L80.5565 58.7033C80.1391 58.2183 79.9204 57.5934 79.9444 56.954C79.9683 56.3145 80.2331 55.7077 80.6855 55.2553C81.138 54.8028 81.7448 54.538 82.3843 54.5141C83.0237 54.4902 83.6486 54.7088 84.1336 55.1262L136.884 107.857C137.238 108.212 137.479 108.663 137.576 109.155C137.674 109.647 137.623 110.157 137.431 110.62C137.239 111.083 136.914 111.479 136.497 111.758C136.08 112.036 135.59 112.185 135.088 112.185Z" fill="white"/>
<path d="M85.5938 137.625C85.2605 137.626 84.9303 137.561 84.6222 137.433C84.3142 137.306 84.0343 137.119 83.7987 136.884L55.1164 108.211C54.6991 107.726 54.4804 107.101 54.5044 106.462C54.5283 105.822 54.793 105.215 55.2455 104.763C55.698 104.311 56.3048 104.046 56.9442 104.022C57.5837 103.998 58.2086 104.217 58.6936 104.634L87.3661 133.306C87.7157 133.66 87.9534 134.109 88.0498 134.598C88.1461 135.086 88.0967 135.591 87.9078 136.052C87.7189 136.512 87.3988 136.907 86.9874 137.186C86.5759 137.466 86.0913 137.619 85.5938 137.625Z" fill="white"/>
<path d="M135.088 91.6521C134.756 91.6524 134.426 91.5871 134.119 91.4599C133.811 91.3327 133.532 91.146 133.297 90.9107L101.102 58.7163C100.685 58.2313 100.466 57.6064 100.49 56.967C100.514 56.3275 100.779 55.7207 101.231 55.2683C101.684 54.8158 102.291 54.551 102.93 54.5271C103.57 54.5032 104.194 54.7218 104.679 55.1392L136.874 87.3335C137.228 87.6885 137.469 88.1404 137.567 88.6323C137.664 89.1242 137.614 89.6339 137.421 90.0971C137.229 90.5603 136.904 90.9561 136.487 91.2346C136.07 91.5131 135.58 91.6618 135.079 91.6619L135.088 91.6521Z" fill="white"/>
<path d="M135.088 112.185C134.756 112.185 134.426 112.12 134.119 111.993C133.811 111.866 133.532 111.679 133.297 111.444L80.5565 58.7033C80.1391 58.2183 79.9204 57.5934 79.9444 56.954C79.9683 56.3145 80.2331 55.7077 80.6855 55.2553C81.138 54.8028 81.7448 54.538 82.3843 54.5141C83.0237 54.4902 83.6486 54.7088 84.1336 55.1262L136.884 107.857C137.238 108.212 137.479 108.663 137.576 109.155C137.674 109.647 137.623 110.157 137.431 110.62C137.239 111.083 136.914 111.479 136.497 111.758C136.08 112.036 135.59 112.185 135.088 112.185Z" fill="white"/>
<path d="M130.861 137.072C130.525 137.073 130.192 137.007 129.882 136.877C129.572 136.748 129.291 136.557 129.056 136.318C124.334 131.531 122.855 128.116 121.424 124.816C120.1 121.759 118.851 118.871 114.617 114.637C110.383 110.403 107.499 109.157 104.455 107.834C101.096 106.38 97.626 104.878 92.709 99.9609C87.7921 95.0439 86.2767 91.5741 84.823 88.2148C83.4995 85.158 82.2507 82.2735 78.02 78.0395C73.7892 73.8054 70.9014 72.5599 67.8446 71.2364C64.4853 69.7828 61.0155 68.2836 56.0985 63.3666C55.988 63.2561 55.8872 63.152 55.7733 63.0415L55.6368 62.9016C55.1676 62.4182 54.9096 61.7682 54.9197 61.0946C54.9298 60.421 55.207 59.779 55.6904 59.3098C56.1738 58.8407 56.8238 58.5827 57.4974 58.5928C58.171 58.6028 58.813 58.8801 59.2822 59.3635L59.4318 59.5196L59.6854 59.7797C63.913 64.0073 66.804 65.2593 69.8575 66.5828C73.2168 68.0332 76.6866 69.5356 81.6069 74.4526C86.5271 79.3695 88.0262 82.8426 89.4766 86.2019C90.8001 89.2555 92.0489 92.1432 96.2797 96.374C100.51 100.605 103.401 101.857 106.455 103.18C109.814 104.631 113.284 106.133 118.204 111.05C123.125 115.967 124.624 119.44 126.081 122.799C127.381 125.804 128.611 128.653 132.666 132.754C133.017 133.11 133.256 133.562 133.351 134.053C133.446 134.544 133.394 135.052 133.201 135.514C133.008 135.975 132.683 136.37 132.267 136.647C131.85 136.924 131.361 137.072 130.861 137.072Z" fill="white"/>
<path d="M108.013 137.625C107.565 137.626 107.125 137.508 106.738 137.283C106.351 137.059 106.03 136.736 105.808 136.347C105.004 134.889 104.323 133.366 103.772 131.794C102.774 129.144 101.909 126.855 98.543 123.486C95.1773 120.116 92.8879 119.258 90.2375 118.256C87.4409 117.203 84.2702 116.009 80.1305 111.87C75.9907 107.73 74.794 104.559 73.7404 101.762C72.742 99.1121 71.8803 96.8228 68.5112 93.4537C65.1422 90.0847 62.8528 89.2262 60.2025 88.2246C58.6306 87.6748 57.1076 86.9938 55.6498 86.1889C55.3609 86.0236 55.1073 85.803 54.9037 85.5398C54.7 85.2765 54.5502 84.9758 54.4628 84.6546C54.3754 84.3335 54.352 83.9982 54.3942 83.6681C54.4363 83.3379 54.5431 83.0193 54.7083 82.7304C54.8736 82.4415 55.0941 82.188 55.3574 81.9843C55.6206 81.7807 55.9214 81.6308 56.2426 81.5434C56.5637 81.456 56.8989 81.4327 57.2291 81.4748C57.5593 81.517 57.8779 81.6237 58.1668 81.789C59.3936 82.4554 60.6726 83.021 61.9911 83.48C64.7878 84.5369 67.9584 85.7303 72.0981 89.8733C76.2379 94.0163 77.4346 97.1805 78.4882 99.9771C79.4866 102.627 80.3516 104.92 83.7174 108.286C87.0831 111.652 89.3725 112.513 92.0261 113.515C94.8195 114.569 97.9902 115.762 102.13 119.902C106.27 124.042 107.466 127.219 108.52 130.009C108.979 131.328 109.545 132.607 110.214 133.833C110.434 134.219 110.548 134.655 110.547 135.099C110.545 135.543 110.427 135.978 110.204 136.362C109.981 136.746 109.661 137.064 109.277 137.286C108.892 137.508 108.456 137.625 108.013 137.625Z" fill="white"/>
<path d="M130.861 137.072C130.525 137.073 130.192 137.007 129.882 136.877C129.572 136.748 129.291 136.557 129.056 136.318C124.334 131.531 122.855 128.116 121.424 124.816C120.1 121.759 118.851 118.871 114.617 114.637C110.383 110.403 107.499 109.157 104.455 107.834C101.096 106.38 97.626 104.878 92.709 99.9609C87.7921 95.0439 86.2767 91.5741 84.823 88.2148C83.4995 85.158 82.2507 82.2735 78.0199 78.0395C73.7892 73.8054 70.9014 72.5599 67.8446 71.2364C64.4853 69.7827 61.0155 68.2803 56.0985 63.3666C55.6811 62.8816 55.4625 62.2567 55.4864 61.6173C55.5104 60.9778 55.7751 60.371 56.2276 59.9186C56.6801 59.4661 57.2869 59.2013 57.9263 59.1774C58.5658 59.1535 59.1906 59.3721 59.6757 59.7895C63.9032 64.017 66.7942 65.269 69.8478 66.5926C73.2071 68.043 76.6769 69.5454 81.5971 74.4623C86.5173 79.3793 88.0165 82.8523 89.4668 86.2116C90.7904 89.2652 92.0391 92.1529 96.2699 96.3837C100.501 100.615 103.392 101.867 106.445 103.19C109.805 104.64 113.274 106.143 118.195 111.06C123.115 115.977 124.614 119.45 126.071 122.809C127.372 125.814 128.601 128.663 132.656 132.763C133.007 133.119 133.246 133.571 133.341 134.062C133.436 134.554 133.384 135.062 133.191 135.523C132.998 135.985 132.673 136.379 132.257 136.657C131.841 136.934 131.351 137.082 130.851 137.082L130.861 137.072Z" fill="white"/>
<path d="M108.013 137.625C107.565 137.626 107.125 137.508 106.738 137.283C106.351 137.059 106.03 136.736 105.808 136.347C105.004 134.889 104.323 133.366 103.772 131.794C102.774 129.144 101.909 126.855 98.543 123.486C95.1773 120.116 92.8879 119.258 90.2375 118.256C87.4409 117.203 84.2702 116.009 80.1305 111.87C75.9907 107.73 74.794 104.559 73.7404 101.762C72.742 99.1121 71.8803 96.8228 68.5112 93.4537C65.1422 90.0847 62.8528 89.2262 60.2025 88.2246C58.6306 87.6748 57.1076 86.9938 55.6498 86.1889C55.3609 86.0236 55.1073 85.803 54.9037 85.5398C54.7 85.2765 54.5502 84.9758 54.4628 84.6546C54.3754 84.3335 54.352 83.9982 54.3942 83.6681C54.4363 83.3379 54.5431 83.0193 54.7083 82.7304C54.8736 82.4415 55.0941 82.188 55.3574 81.9843C55.6206 81.7807 55.9214 81.6308 56.2426 81.5434C56.5637 81.456 56.8989 81.4327 57.2291 81.4748C57.5593 81.517 57.8779 81.6237 58.1668 81.789C59.3936 82.4554 60.6726 83.021 61.9911 83.48C64.7878 84.5369 67.9584 85.7303 72.0981 89.8733C76.2379 94.0163 77.4346 97.1805 78.4882 99.9771C79.4866 102.627 80.3516 104.92 83.7174 108.286C87.0831 111.652 89.3725 112.513 92.0261 113.515C94.8195 114.569 97.9902 115.762 102.13 119.902C106.27 124.042 107.466 127.219 108.52 130.009C108.979 131.328 109.545 132.607 110.214 133.833C110.434 134.219 110.548 134.655 110.547 135.099C110.545 135.543 110.427 135.978 110.204 136.362C109.981 136.746 109.661 137.064 109.277 137.286C108.892 137.508 108.456 137.625 108.013 137.625Z" fill="white"/>
</g>
</g>
<defs>
<clipPath id="clip0_10_40">
<rect width="192" height="192" fill="white"/>
</clipPath>
<clipPath id="clip1_10_40">
<rect width="83.25" height="83.25" fill="white" transform="translate(54.375 54.375)"/>
</clipPath>
</defs>
</svg>
