<svg width="64" height="64" viewBox="0 0 64 64" fill="none" xmlns="http://www.w3.org/2000/svg">
<g clip-path="url(#clip0_15_2)">
<rect width="64" height="64" fill="white"/>
<rect width="64" height="64" fill="#2D69EB"/>
<g clip-path="url(#clip1_15_2)">
<path d="M44.3992 30.6486C44.2934 30.6487 44.1886 30.6279 44.0908 30.5875C43.9931 30.547 43.9042 30.4876 43.8294 30.4128L33.5914 20.1748C33.4586 20.0205 33.3891 19.8218 33.3967 19.6184C33.4043 19.4151 33.4885 19.2221 33.6324 19.0782C33.7763 18.9343 33.9693 18.8502 34.1726 18.8425C34.376 18.8349 34.5747 18.9045 34.7289 19.0372L44.967 29.2752C45.0796 29.3881 45.1563 29.5318 45.1873 29.6883C45.2183 29.8447 45.2022 30.0068 45.1411 30.1541C45.08 30.3014 44.9767 30.4273 44.8441 30.5158C44.7115 30.6044 44.5556 30.6517 44.3961 30.6517L44.3992 30.6486Z" fill="white"/>
<path d="M44.3992 37.1782C44.2934 37.1783 44.1886 37.1575 44.0908 37.117C43.9931 37.0766 43.9042 37.0172 43.8294 36.9424L27.0576 20.1706C26.9249 20.0164 26.8554 19.8176 26.863 19.6143C26.8706 19.4109 26.9548 19.218 27.0987 19.0741C27.2426 18.9302 27.4355 18.846 27.6389 18.8384C27.8422 18.8308 28.0409 18.9003 28.1952 19.033L44.9701 35.8017C45.0827 35.9146 45.1594 36.0583 45.1904 36.2147C45.2214 36.3712 45.2053 36.5333 45.1442 36.6806C45.0831 36.8279 44.9798 36.9537 44.8472 37.0423C44.7146 37.1309 44.5587 37.1782 44.3992 37.1782Z" fill="white"/>
<path d="M28.6595 45.2683C28.5535 45.2685 28.4485 45.2478 28.3506 45.2074C28.2526 45.1669 28.1636 45.1075 28.0887 45.0325L18.9675 35.9144C18.8348 35.7602 18.7652 35.5615 18.7729 35.3581C18.7805 35.1548 18.8647 34.9618 19.0085 34.8179C19.1524 34.674 19.3454 34.5898 19.5487 34.5822C19.7521 34.5746 19.9508 34.6441 20.1051 34.7769L29.2231 43.8949C29.3343 44.0075 29.4099 44.1503 29.4405 44.3056C29.4712 44.4608 29.4555 44.6216 29.3954 44.768C29.3353 44.9144 29.2335 45.0398 29.1027 45.1288C28.9719 45.2178 28.8177 45.2663 28.6595 45.2683Z" fill="white"/>
<path d="M44.3992 30.6486C44.2934 30.6487 44.1886 30.6279 44.0908 30.5875C43.9931 30.547 43.9042 30.4876 43.8294 30.4128L33.5914 20.1748C33.4586 20.0205 33.3891 19.8218 33.3967 19.6184C33.4043 19.4151 33.4885 19.2221 33.6324 19.0782C33.7763 18.9343 33.9693 18.8502 34.1726 18.8425C34.376 18.8349 34.5747 18.9045 34.7289 19.0372L44.967 29.2752C45.0796 29.3881 45.1563 29.5318 45.1873 29.6883C45.2183 29.8447 45.2022 30.0068 45.1411 30.1541C45.08 30.3014 44.9767 30.4273 44.8441 30.5158C44.7115 30.6044 44.5556 30.6517 44.3961 30.6517L44.3992 30.6486Z" fill="white"/>
<path d="M44.3992 37.1782C44.2934 37.1783 44.1886 37.1575 44.0908 37.117C43.9931 37.0766 43.9042 37.0172 43.8294 36.9424L27.0576 20.1706C26.9249 20.0164 26.8554 19.8176 26.863 19.6143C26.8706 19.4109 26.9548 19.218 27.0987 19.0741C27.2426 18.9302 27.4355 18.846 27.6389 18.8384C27.8422 18.8308 28.0409 18.9003 28.1952 19.033L44.9701 35.8017C45.0827 35.9146 45.1594 36.0583 45.1904 36.2147C45.2214 36.3712 45.2053 36.5333 45.1442 36.6806C45.0831 36.8279 44.9798 36.9537 44.8472 37.0423C44.7146 37.1309 44.5587 37.1782 44.3992 37.1782Z" fill="white"/>
<path d="M43.0548 45.0925C42.948 45.0928 42.8422 45.0717 42.7436 45.0305C42.6451 44.9893 42.5557 44.9288 42.4809 44.8526C40.9793 43.3303 40.5088 42.2444 40.0537 41.1948C39.6328 40.2227 39.2357 39.3044 37.8893 37.9579C36.5428 36.6115 35.6255 36.2154 34.6576 35.7945C33.5893 35.3322 32.4859 34.8544 30.9222 33.2908C29.3586 31.7272 28.8767 30.6237 28.4144 29.5555C27.9935 28.5834 27.5964 27.6661 26.251 26.3196C24.9056 24.9732 23.9872 24.5771 23.0151 24.1562C21.9469 23.6939 20.8434 23.2172 19.2798 21.6536C19.2446 21.6184 19.2126 21.5853 19.1764 21.5501L19.133 21.5057C18.9838 21.3519 18.9017 21.1452 18.9049 20.931C18.9081 20.7168 18.9963 20.5127 19.15 20.3635C19.3038 20.2143 19.5105 20.1322 19.7247 20.1354C19.9389 20.1386 20.143 20.2268 20.2922 20.3805L20.3398 20.4302L20.4205 20.5129C21.7649 21.8573 22.6842 22.2554 23.6553 22.6763C24.7236 23.1376 25.827 23.6153 27.3917 25.179C28.9563 26.7426 29.4331 27.8471 29.8943 28.9153C30.3152 29.8864 30.7123 30.8047 32.0577 32.1501C33.4031 33.4956 34.3225 33.8937 35.2936 34.3146C36.3618 34.7758 37.4653 35.2536 39.0299 36.8172C40.5946 38.3809 41.0713 39.4853 41.5346 40.5536C41.9483 41.5092 42.3392 42.4151 43.6288 43.7191C43.7406 43.8324 43.8164 43.9761 43.8466 44.1323C43.8769 44.2885 43.8604 44.4501 43.799 44.5969C43.7377 44.7437 43.6343 44.8691 43.5019 44.9572C43.3695 45.0454 43.2139 45.0925 43.0548 45.0925Z" fill="white"/>
<path d="M35.7889 45.2683C35.6466 45.2686 35.5067 45.2311 35.3835 45.1597C35.2604 45.0883 35.1583 44.9855 35.0878 44.8619C34.832 44.3982 34.6155 43.9139 34.4404 43.4141C34.1229 42.5713 33.8478 41.8432 32.7775 40.7718C31.7072 39.7005 30.9791 39.4275 30.1363 39.1089C29.2469 38.7739 28.2386 38.3943 26.9222 37.0779C25.6057 35.7614 25.2251 34.7531 24.8901 33.8638C24.5726 33.0209 24.2985 32.2929 23.2272 31.2215C22.1558 30.1501 21.4277 29.8771 20.5849 29.5586C20.085 29.3838 19.6007 29.1672 19.1371 28.9112C19.0452 28.8587 18.9646 28.7885 18.8998 28.7048C18.8351 28.6211 18.7874 28.5254 18.7596 28.4233C18.7318 28.3212 18.7244 28.2146 18.7378 28.1096C18.7512 28.0046 18.7852 27.9033 18.8377 27.8114C18.8903 27.7195 18.9604 27.6389 19.0441 27.5741C19.1278 27.5094 19.2235 27.4617 19.3256 27.4339C19.4277 27.4061 19.5343 27.3987 19.6393 27.4121C19.7443 27.4255 19.8457 27.4595 19.9375 27.512C20.3277 27.724 20.7344 27.9038 21.1537 28.0498C22.0431 28.3859 23.0513 28.7654 24.3678 30.0829C25.6843 31.4004 26.0648 32.4066 26.3999 33.296C26.7174 34.1388 26.9925 34.8679 28.0628 35.9382C29.1332 37.0086 29.8612 37.2826 30.7051 37.6012C31.5934 37.9362 32.6017 38.3157 33.9182 39.6322C35.2346 40.9487 35.6152 41.959 35.9503 42.8463C36.0962 43.2658 36.2764 43.6726 36.489 44.0625C36.5589 44.1851 36.5953 44.3239 36.5947 44.4651C36.5941 44.6062 36.5565 44.7447 36.4857 44.8667C36.4148 44.9887 36.3132 45.0901 36.1909 45.1605C36.0687 45.231 35.93 45.2682 35.7889 45.2683Z" fill="white"/>
<path d="M43.0548 45.0925C42.948 45.0928 42.8422 45.0717 42.7436 45.0305C42.6451 44.9893 42.5557 44.9288 42.4809 44.8526C40.9793 43.3303 40.5088 42.2445 40.0537 41.1948C39.6328 40.2227 39.2357 39.3044 37.8893 37.9579C36.5428 36.6115 35.6255 36.2154 34.6576 35.7945C33.5893 35.3322 32.4859 34.8545 30.9222 33.2908C29.3586 31.7272 28.8767 30.6238 28.4144 29.5555C27.9935 28.5834 27.5964 27.6661 26.251 26.3196C24.9056 24.9732 23.9872 24.5771 23.0151 24.1562C21.9469 23.6939 20.8434 23.2162 19.2798 21.6536C19.1471 21.4993 19.0775 21.3006 19.0852 21.0973C19.0928 20.8939 19.177 20.701 19.3209 20.5571C19.4647 20.4132 19.6577 20.329 19.8611 20.3214C20.0644 20.3138 20.2631 20.3833 20.4174 20.516C21.7618 21.8604 22.6811 22.2586 23.6522 22.6795C24.7205 23.1407 25.8239 23.6185 27.3885 25.1821C28.9532 26.7457 29.43 27.8502 29.8912 28.9185C30.3121 29.8895 30.7092 30.8078 32.0546 32.1533C33.4 33.4987 34.3194 33.8968 35.2905 34.3177C36.3587 34.779 37.4622 35.2567 39.0268 36.8204C40.5915 38.384 41.0682 39.4885 41.5315 40.5567C41.9452 41.5123 42.3361 42.4182 43.6257 43.7223C43.7375 43.8355 43.8132 43.9792 43.8435 44.1354C43.8738 44.2916 43.8573 44.4532 43.7959 44.6C43.7346 44.7468 43.6312 44.8722 43.4988 44.9604C43.3664 45.0485 43.2108 45.0956 43.0517 45.0956L43.0548 45.0925Z" fill="white"/>
<path d="M35.7889 45.2683C35.6466 45.2686 35.5067 45.2311 35.3835 45.1597C35.2604 45.0883 35.1583 44.9855 35.0878 44.8619C34.832 44.3982 34.6155 43.9139 34.4404 43.4141C34.1229 42.5713 33.8478 41.8432 32.7775 40.7718C31.7072 39.7005 30.9791 39.4275 30.1363 39.1089C29.2469 38.7739 28.2386 38.3943 26.9222 37.0779C25.6057 35.7614 25.2251 34.7531 24.8901 33.8638C24.5726 33.0209 24.2985 32.2929 23.2272 31.2215C22.1558 30.1501 21.4277 29.8771 20.5849 29.5586C20.085 29.3838 19.6007 29.1672 19.1371 28.9112C19.0452 28.8587 18.9646 28.7885 18.8998 28.7048C18.8351 28.6211 18.7874 28.5254 18.7596 28.4233C18.7318 28.3212 18.7244 28.2146 18.7378 28.1096C18.7512 28.0046 18.7852 27.9033 18.8377 27.8114C18.8903 27.7195 18.9604 27.6389 19.0441 27.5741C19.1278 27.5094 19.2235 27.4617 19.3256 27.4339C19.4277 27.4061 19.5343 27.3987 19.6393 27.4121C19.7443 27.4255 19.8457 27.4595 19.9375 27.512C20.3277 27.724 20.7344 27.9038 21.1537 28.0498C22.0431 28.3859 23.0513 28.7654 24.3678 30.0829C25.6843 31.4004 26.0648 32.4066 26.3999 33.296C26.7174 34.1388 26.9925 34.8679 28.0628 35.9382C29.1332 37.0086 29.8612 37.2826 30.7051 37.6012C31.5934 37.9362 32.6017 38.3157 33.9182 39.6322C35.2346 40.9487 35.6152 41.959 35.9503 42.8463C36.0962 43.2658 36.2764 43.6726 36.489 44.0625C36.5589 44.1851 36.5953 44.3239 36.5947 44.4651C36.5941 44.6062 36.5565 44.7447 36.4857 44.8667C36.4148 44.9887 36.3132 45.0901 36.1909 45.1605C36.0687 45.231 35.93 45.2682 35.7889 45.2683Z" fill="white"/>
</g>
</g>
<defs>
<clipPath id="clip0_15_2">
<rect width="64" height="64" fill="white"/>
</clipPath>
<clipPath id="clip1_15_2">
<rect width="26.4741" height="26.4741" fill="white" transform="translate(18.7317 18.7942)"/>
</clipPath>
</defs>
</svg>
