<svg width="128" height="128" viewBox="0 0 128 128" fill="none" xmlns="http://www.w3.org/2000/svg">
<g clip-path="url(#clip0_10_76)">
<rect width="128" height="128" fill="white"/>
<rect width="128" height="128" fill="#2D69EB"/>
<g clip-path="url(#clip1_10_76)">
<path d="M90.059 61.1014C89.8372 61.1016 89.6175 61.0581 89.4125 60.9733C89.2075 60.8884 89.0213 60.764 88.8644 60.6071L67.4016 39.1442C67.1233 38.8209 66.9775 38.4043 66.9935 37.978C67.0095 37.5517 67.1859 37.1472 67.4876 36.8455C67.7893 36.5439 68.1938 36.3674 68.6201 36.3514C69.0464 36.3354 69.463 36.4812 69.7863 36.7595L91.2492 58.2224C91.4854 58.459 91.6461 58.7603 91.7111 59.0882C91.776 59.4161 91.7424 59.7559 91.6143 60.0647C91.4863 60.3735 91.2695 60.6374 90.9916 60.8231C90.7136 61.0088 90.3868 61.1079 90.0525 61.1079L90.059 61.1014Z" fill="white"/>
<path d="M90.059 74.79C89.8371 74.7902 89.6174 74.7466 89.4124 74.6618C89.2075 74.577 89.0212 74.4526 88.8644 74.2957L53.7043 39.1356C53.426 38.8122 53.2803 38.3956 53.2962 37.9693C53.3122 37.543 53.4887 37.1385 53.7903 36.8368C54.092 36.5352 54.4965 36.3587 54.9228 36.3427C55.3491 36.3268 55.7657 36.4725 56.0891 36.7508L91.2557 71.9044C91.4918 72.141 91.6525 72.4423 91.7175 72.7702C91.7825 73.0982 91.7488 73.438 91.6208 73.7468C91.4927 74.0556 91.276 74.3195 90.998 74.5052C90.72 74.6908 90.3933 74.7899 90.059 74.79Z" fill="white"/>
<path d="M57.0625 91.75C56.8403 91.7505 56.6202 91.7071 56.4148 91.6223C56.2095 91.5374 56.0229 91.4129 55.8658 91.2557L36.7443 72.1407C36.466 71.8174 36.3203 71.4008 36.3362 70.9745C36.3522 70.5482 36.5287 70.1437 36.8303 69.842C37.132 69.5403 37.5365 69.3639 37.9628 69.3479C38.3891 69.3319 38.8057 69.4777 39.1291 69.756L58.244 88.8709C58.4771 89.107 58.6356 89.4063 58.6998 89.7317C58.7641 90.0572 58.7312 90.3943 58.6052 90.7011C58.4793 91.008 58.2659 91.2711 57.9916 91.4575C57.7173 91.644 57.3942 91.7457 57.0625 91.75Z" fill="white"/>
<path d="M90.059 61.1014C89.8372 61.1016 89.6175 61.0581 89.4125 60.9733C89.2075 60.8884 89.0213 60.764 88.8644 60.6071L67.4016 39.1442C67.1233 38.8209 66.9775 38.4043 66.9935 37.978C67.0095 37.5517 67.1859 37.1472 67.4876 36.8455C67.7893 36.5439 68.1938 36.3674 68.6201 36.3514C69.0464 36.3354 69.463 36.4812 69.7863 36.7595L91.2492 58.2224C91.4854 58.459 91.6461 58.7603 91.7111 59.0882C91.776 59.4161 91.7424 59.7559 91.6143 60.0647C91.4863 60.3735 91.2695 60.6374 90.9916 60.8231C90.7136 61.0088 90.3868 61.1079 90.0525 61.1079L90.059 61.1014Z" fill="white"/>
<path d="M90.059 74.79C89.8371 74.7902 89.6174 74.7466 89.4124 74.6618C89.2075 74.577 89.0212 74.4526 88.8644 74.2957L53.7043 39.1356C53.426 38.8122 53.2803 38.3956 53.2962 37.9693C53.3122 37.543 53.4887 37.1385 53.7903 36.8368C54.092 36.5352 54.4965 36.3587 54.9228 36.3427C55.3491 36.3268 55.7657 36.4725 56.0891 36.7508L91.2557 71.9044C91.4918 72.141 91.6525 72.4423 91.7175 72.7702C91.7825 73.0982 91.7488 73.438 91.6208 73.7468C91.4927 74.0556 91.276 74.3195 90.998 74.5052C90.72 74.6908 90.3933 74.7899 90.059 74.79Z" fill="white"/>
<path d="M87.2406 91.3815C87.0167 91.382 86.7949 91.3379 86.5882 91.2515C86.3816 91.1651 86.1943 91.0383 86.0374 90.8785C82.8895 87.6872 81.9031 85.4109 80.9492 83.2104C80.0668 81.1725 79.2343 79.2473 76.4116 76.4246C73.5889 73.6019 71.6659 72.7716 69.6367 71.8892C67.3972 70.9202 65.084 69.9186 61.806 66.6406C58.528 63.3626 57.5178 61.0494 56.5487 58.8099C55.6663 56.772 54.8338 54.849 52.0133 52.0263C49.1928 49.2036 47.2676 48.3733 45.2297 47.4909C42.9902 46.5218 40.677 45.5224 37.399 42.2444C37.3253 42.1707 37.2581 42.1014 37.1822 42.0276L37.0912 41.9344C36.7784 41.6121 36.6064 41.1788 36.6131 40.7298C36.6198 40.2807 36.8047 39.8527 37.1269 39.5399C37.4492 39.2271 37.8826 39.0552 38.3316 39.0619C38.7807 39.0686 39.2087 39.2534 39.5215 39.5757L39.6212 39.6797L39.7903 39.8532C42.6087 42.6715 44.536 43.5062 46.5717 44.3886C48.8112 45.3555 51.1244 46.3571 54.4046 49.635C57.6847 52.913 58.6841 55.2284 59.6511 57.4679C60.5334 59.5036 61.3659 61.4288 64.1864 64.2493C67.007 67.0699 68.9343 67.9045 70.97 68.7869C73.2095 69.7538 75.5228 70.7554 78.8029 74.0334C82.083 77.3113 83.0825 79.6267 84.0537 81.8662C84.9209 83.8694 85.7404 85.7686 88.4438 88.5024C88.6782 88.7397 88.8371 89.0411 88.9006 89.3685C88.9641 89.6959 88.9293 90.0348 88.8007 90.3425C88.6721 90.6502 88.4554 90.913 88.1778 91.0979C87.9002 91.2828 87.5741 91.3814 87.2406 91.3815Z" fill="white"/>
<path d="M72.0085 91.75C71.7101 91.7505 71.4168 91.6719 71.1586 91.5223C70.9004 91.3726 70.6865 91.1572 70.5386 90.898C70.0024 89.9259 69.5485 88.9106 69.1815 87.8628C68.5159 86.0959 67.9392 84.5697 65.6954 82.3237C63.4515 80.0777 61.9253 79.5053 60.1584 78.8376C58.2939 78.1352 56.1802 77.3395 53.4203 74.5797C50.6605 71.8199 49.8627 69.7061 49.1603 67.8416C48.4947 66.0747 47.9202 64.5485 45.6742 62.3025C43.4282 60.0565 41.9019 59.4841 40.135 58.8164C39.0871 58.4499 38.0718 57.9959 37.0999 57.4592C36.9073 57.3491 36.7382 57.202 36.6025 57.0265C36.4667 56.851 36.3668 56.6505 36.3085 56.4364C36.2503 56.2223 36.2347 55.9988 36.2628 55.7787C36.2909 55.5586 36.3621 55.3462 36.4722 55.1536C36.5824 54.961 36.7294 54.792 36.9049 54.6562C37.0804 54.5204 37.281 54.4206 37.4951 54.3623C37.7092 54.304 37.9326 54.2885 38.1527 54.3165C38.3728 54.3446 38.5853 54.4158 38.7779 54.526C39.5957 54.9703 40.4484 55.3473 41.3274 55.6533C43.1919 56.3579 45.3056 57.1536 48.0654 59.9155C50.8253 62.6775 51.6231 64.787 52.3255 66.6514C52.9911 68.4183 53.5677 69.9467 55.8116 72.1906C58.0554 74.4344 59.5817 75.0089 61.3508 75.6767C63.213 76.3791 65.3268 77.1747 68.0866 79.9346C70.8465 82.6944 71.6443 84.8125 72.3467 86.6726C72.6526 87.552 73.0303 88.4048 73.4762 89.2221C73.6226 89.4792 73.699 89.7702 73.6978 90.066C73.6965 90.3619 73.6177 90.6522 73.4692 90.9081C73.3206 91.1639 73.1075 91.3763 72.8512 91.524C72.5949 91.6718 72.3043 91.7497 72.0085 91.75Z" fill="white"/>
<path d="M87.2406 91.3814C87.0167 91.382 86.7949 91.3378 86.5882 91.2515C86.3816 91.1651 86.1943 91.0383 86.0374 90.8785C82.8895 87.6872 81.9031 85.4108 80.9492 83.2104C80.0668 81.1725 79.2343 79.2473 76.4116 76.4246C73.5889 73.6019 71.6659 72.7716 69.6367 71.8892C67.3972 70.9201 65.084 69.9185 61.806 66.6406C58.528 63.3626 57.5178 61.0494 56.5487 58.8099C55.6663 56.772 54.8338 54.849 52.0133 52.0263C49.1928 49.2036 47.2676 48.3733 45.2297 47.4909C42.9902 46.5218 40.677 45.5202 37.399 42.2444C37.1208 41.9211 36.975 41.5045 36.991 41.0782C37.0069 40.6519 37.1834 40.2474 37.4851 39.9457C37.7867 39.644 38.1912 39.4675 38.6175 39.4516C39.0438 39.4356 39.4604 39.5814 39.7838 39.8597C42.6021 42.678 44.5295 43.5127 46.5652 44.395C48.8047 45.362 51.1179 46.3636 54.3981 49.6415C57.6782 52.9195 58.6776 55.2349 59.6446 57.4744C60.5269 59.5101 61.3594 61.4353 64.1799 64.2558C67.0005 67.0763 68.9278 67.911 70.9635 68.7934C73.203 69.7603 75.5163 70.7619 78.7964 74.0399C82.0765 77.3178 83.076 79.6332 84.0472 81.8727C84.9144 83.8759 85.7339 85.7751 88.4373 88.5089C88.6717 88.7462 88.8306 89.0475 88.8941 89.375C88.9576 89.7024 88.9228 90.0413 88.7942 90.349C88.6656 90.6567 88.4489 90.9195 88.1713 91.1044C87.8937 91.2893 87.5676 91.3879 87.2341 91.3879L87.2406 91.3814Z" fill="white"/>
<path d="M72.0085 91.75C71.7101 91.7505 71.4168 91.6719 71.1586 91.5223C70.9004 91.3726 70.6865 91.1572 70.5386 90.898C70.0024 89.9259 69.5485 88.9106 69.1815 87.8628C68.5159 86.0959 67.9392 84.5697 65.6954 82.3237C63.4515 80.0777 61.9253 79.5053 60.1584 78.8376C58.2939 78.1352 56.1802 77.3395 53.4203 74.5797C50.6605 71.8199 49.8627 69.7061 49.1603 67.8416C48.4947 66.0747 47.9202 64.5485 45.6742 62.3025C43.4282 60.0565 41.9019 59.4841 40.135 58.8164C39.0871 58.4499 38.0718 57.9959 37.0999 57.4592C36.9073 57.3491 36.7382 57.202 36.6025 57.0265C36.4667 56.851 36.3668 56.6505 36.3085 56.4364C36.2503 56.2223 36.2347 55.9988 36.2628 55.7787C36.2909 55.5586 36.3621 55.3462 36.4722 55.1536C36.5824 54.961 36.7294 54.792 36.9049 54.6562C37.0804 54.5204 37.281 54.4206 37.4951 54.3623C37.7092 54.304 37.9326 54.2885 38.1527 54.3165C38.3728 54.3446 38.5853 54.4158 38.7779 54.526C39.5957 54.9703 40.4484 55.3473 41.3274 55.6533C43.1919 56.3579 45.3056 57.1536 48.0654 59.9155C50.8253 62.6775 51.6231 64.787 52.3255 66.6514C52.9911 68.4183 53.5677 69.9467 55.8116 72.1906C58.0554 74.4344 59.5817 75.0089 61.3508 75.6767C63.213 76.3791 65.3268 77.1747 68.0866 79.9346C70.8465 82.6944 71.6443 84.8125 72.3467 86.6726C72.6526 87.552 73.0303 88.4048 73.4762 89.2221C73.6226 89.4792 73.699 89.7702 73.6978 90.066C73.6965 90.3619 73.6177 90.6522 73.4692 90.9081C73.3206 91.1639 73.1075 91.3763 72.8512 91.524C72.5949 91.6718 72.3043 91.7497 72.0085 91.75Z" fill="white"/>
</g>
</g>
<defs>
<clipPath id="clip0_10_76">
<rect width="128" height="128" fill="white"/>
</clipPath>
<clipPath id="clip1_10_76">
<rect width="55.5" height="55.5" fill="white" transform="translate(36.25 36.25)"/>
</clipPath>
</defs>
</svg>
