<svg width="72" height="72" viewBox="0 0 72 72" fill="none" xmlns="http://www.w3.org/2000/svg">
<g clip-path="url(#clip0_6_147)">
<rect width="72" height="72" fill="white"/>
<rect width="72" height="72" fill="#2D69EB"/>
<g clip-path="url(#clip1_6_147)">
<path d="M52.9031 34.1198C52.7592 34.12 52.6167 34.0917 52.4837 34.0367C52.3508 33.9817 52.23 33.901 52.1283 33.7992L38.2064 19.8773C38.0259 19.6676 37.9313 19.3974 37.9417 19.1209C37.952 18.8443 38.0665 18.5819 38.2622 18.3863C38.4579 18.1906 38.7202 18.0761 38.9968 18.0658C39.2733 18.0554 39.5435 18.15 39.7533 18.3305L53.6751 32.2523C53.8283 32.4058 53.9326 32.6013 53.9747 32.814C54.0169 33.0267 53.995 33.2471 53.912 33.4474C53.8289 33.6477 53.6883 33.8189 53.508 33.9393C53.3277 34.0597 53.1157 34.124 52.8989 34.1241L52.9031 34.1198Z" fill="white"/>
<path d="M52.9031 42.9989C52.7592 42.999 52.6167 42.9708 52.4838 42.9158C52.3508 42.8608 52.23 42.7801 52.1283 42.6783L29.3217 19.8717C29.1412 19.662 29.0467 19.3918 29.057 19.1152C29.0674 18.8387 29.1819 18.5763 29.3775 18.3807C29.5732 18.185 29.8356 18.0705 30.1121 18.0602C30.3886 18.0498 30.6589 18.1444 30.8686 18.3248L53.6794 41.1272C53.8326 41.2807 53.9368 41.4761 53.979 41.6888C54.0211 41.9015 53.9993 42.1219 53.9162 42.3222C53.8331 42.5225 53.6926 42.6937 53.5123 42.8142C53.3319 42.9346 53.12 42.9989 52.9031 42.9989Z" fill="white"/>
<path d="M31.5 54C31.3559 54.0003 31.2131 53.9722 31.0799 53.9171C30.9467 53.8621 30.8256 53.7813 30.7238 53.6794L18.3206 41.2805C18.1401 41.0707 18.0456 40.8005 18.0559 40.524C18.0663 40.2475 18.1808 39.9851 18.3764 39.7894C18.5721 39.5937 18.8345 39.4793 19.111 39.4689C19.3875 39.4586 19.6578 39.5531 19.8675 39.7336L32.2664 52.1325C32.4176 52.2856 32.5204 52.4798 32.5621 52.6909C32.6037 52.9019 32.5824 53.1206 32.5007 53.3197C32.419 53.5187 32.2806 53.6893 32.1027 53.8103C31.9247 53.9313 31.7151 53.9972 31.5 54Z" fill="white"/>
<path d="M52.9031 34.1198C52.7592 34.12 52.6167 34.0917 52.4837 34.0367C52.3508 33.9817 52.23 33.901 52.1283 33.7992L38.2064 19.8773C38.0259 19.6676 37.9313 19.3974 37.9417 19.1209C37.952 18.8443 38.0665 18.5819 38.2622 18.3863C38.4579 18.1906 38.7202 18.0761 38.9968 18.0658C39.2733 18.0554 39.5435 18.15 39.7533 18.3305L53.6751 32.2523C53.8283 32.4058 53.9326 32.6013 53.9747 32.814C54.0169 33.0267 53.995 33.2471 53.912 33.4474C53.8289 33.6477 53.6883 33.8189 53.508 33.9393C53.3277 34.0597 53.1157 34.124 52.8989 34.1241L52.9031 34.1198Z" fill="white"/>
<path d="M52.9031 42.9989C52.7592 42.999 52.6167 42.9708 52.4838 42.9158C52.3508 42.8608 52.23 42.7801 52.1283 42.6783L29.3217 19.8717C29.1412 19.662 29.0467 19.3918 29.057 19.1152C29.0674 18.8387 29.1819 18.5763 29.3775 18.3807C29.5732 18.185 29.8356 18.0705 30.1121 18.0602C30.3886 18.0498 30.6589 18.1444 30.8686 18.3248L53.6794 41.1272C53.8326 41.2807 53.9368 41.4761 53.979 41.6888C54.0211 41.9015 53.9993 42.1219 53.9162 42.3222C53.8331 42.5225 53.6926 42.6937 53.5123 42.8142C53.3319 42.9346 53.12 42.9989 52.9031 42.9989Z" fill="white"/>
<path d="M51.075 53.7609C50.9297 53.7613 50.7858 53.7327 50.6518 53.6766C50.5178 53.6206 50.3963 53.5383 50.2945 53.4347C48.2526 51.3647 47.6128 49.8881 46.994 48.4608C46.4217 47.1389 45.8817 45.8902 44.0508 44.0592C42.2198 42.2283 40.9725 41.6897 39.6562 41.1174C38.2036 40.4888 36.7031 39.8391 34.5769 37.7128C32.4506 35.5866 31.7953 34.0861 31.1667 32.6334C30.5944 31.3116 30.0544 30.0642 28.2248 28.2333C26.3953 26.4023 25.1465 25.8638 23.8247 25.2914C22.372 24.6628 20.8716 24.0145 18.7453 21.8883C18.6975 21.8405 18.6539 21.7955 18.6047 21.7477L18.5456 21.6872C18.3427 21.4782 18.2312 21.1971 18.2355 20.9058C18.2399 20.6145 18.3598 20.3369 18.5688 20.134C18.7779 19.9311 19.0589 19.8196 19.3502 19.8239C19.6415 19.8283 19.9191 19.9482 20.122 20.1572L20.1867 20.2247L20.2964 20.3372C22.1245 22.1653 23.3747 22.7067 24.6951 23.2791C26.1478 23.9063 27.6483 24.5559 29.7759 26.6822C31.9036 28.8084 32.5519 30.3103 33.1791 31.763C33.7514 33.0834 34.2914 34.3322 36.1209 36.1617C37.9505 37.9913 39.2006 38.5327 40.5211 39.105C41.9737 39.7322 43.4742 40.3819 45.6019 42.5081C47.7295 44.6344 48.3778 46.1363 49.0078 47.5889C49.5703 48.8883 50.1019 50.1202 51.8555 51.8934C52.0074 52.0474 52.1105 52.2428 52.1517 52.4552C52.1929 52.6676 52.1704 52.8874 52.0869 53.087C52.0035 53.2866 51.8629 53.4571 51.6829 53.577C51.5028 53.6969 51.2913 53.7609 51.075 53.7609Z" fill="white"/>
<path d="M41.1947 54C41.0011 54.0003 40.8109 53.9494 40.6434 53.8523C40.4759 53.7552 40.3371 53.6155 40.2412 53.4473C39.8934 52.8168 39.599 52.1582 39.3609 51.4786C38.9292 50.3325 38.5551 49.3425 37.0997 47.8856C35.6442 46.4288 34.6542 46.0575 33.5081 45.6244C32.2987 45.1687 30.9276 44.6527 29.1375 42.8625C27.3473 41.0723 26.8298 39.7012 26.3742 38.4919C25.9425 37.3458 25.5698 36.3558 24.1129 34.8989C22.6561 33.442 21.6661 33.0708 20.52 32.6377C19.8402 32.3999 19.1816 32.1054 18.5512 31.7573C18.4263 31.6859 18.3167 31.5905 18.2286 31.4767C18.1405 31.3628 18.0757 31.2328 18.0379 31.0939C18.0001 30.955 17.99 30.81 18.0083 30.6673C18.0265 30.5245 18.0726 30.3867 18.1441 30.2618C18.2156 30.1369 18.311 30.0272 18.4248 29.9392C18.5386 29.8511 18.6687 29.7863 18.8076 29.7485C18.9464 29.7107 19.0914 29.7006 19.2342 29.7188C19.3769 29.7371 19.5147 29.7832 19.6397 29.8547C20.1702 30.1429 20.7232 30.3874 21.2934 30.5859C22.5028 31.043 23.8739 31.5591 25.664 33.3506C27.4542 35.1422 27.9717 36.5105 28.4273 37.7198C28.859 38.8659 29.2331 39.8573 30.6886 41.3128C32.144 42.7683 33.134 43.1409 34.2815 43.5741C35.4895 44.0297 36.8606 44.5458 38.6508 46.3359C40.4409 48.1261 40.9584 49.5 41.414 50.7066C41.6124 51.277 41.8575 51.8301 42.1467 52.3603C42.2417 52.5271 42.2912 52.7158 42.2904 52.9077C42.2896 53.0996 42.2385 53.2879 42.1421 53.4539C42.0458 53.6198 41.9076 53.7576 41.7413 53.8534C41.575 53.9493 41.3866 53.9998 41.1947 54Z" fill="white"/>
<path d="M51.075 53.7609C50.9297 53.7613 50.7859 53.7327 50.6518 53.6766C50.5178 53.6206 50.3963 53.5383 50.2945 53.4347C48.2527 51.3647 47.6128 49.8881 46.9941 48.4608C46.4217 47.1389 45.8817 45.8902 44.0508 44.0592C42.2198 42.2283 40.9725 41.6897 39.6563 41.1174C38.2036 40.4888 36.7031 39.8391 34.5769 37.7128C32.4506 35.5866 31.7953 34.0861 31.1667 32.6334C30.5944 31.3116 30.0544 30.0642 28.2248 28.2333C26.3953 26.4024 25.1466 25.8638 23.8247 25.2914C22.372 24.6628 20.8716 24.0131 18.7453 21.8883C18.5648 21.6785 18.4703 21.4083 18.4806 21.1318C18.491 20.8553 18.6055 20.5929 18.8011 20.3972C18.9968 20.2016 19.2592 20.0871 19.5357 20.0767C19.8122 20.0664 20.0824 20.1609 20.2922 20.3414C22.1203 22.1695 23.3705 22.7109 24.6909 23.2833C26.1436 23.9105 27.6441 24.5602 29.7717 26.6864C31.8994 28.8127 32.5477 30.3145 33.1748 31.7672C33.7472 33.0877 34.2872 34.3364 36.1167 36.1659C37.9463 37.9955 39.1964 38.5369 40.5169 39.1092C41.9695 39.7364 43.47 40.3861 45.5977 42.5124C47.7253 44.6386 48.3736 46.1405 49.0036 47.5931C49.5661 48.8925 50.0977 50.1244 51.8513 51.8977C52.0032 52.0516 52.1063 52.2471 52.1475 52.4594C52.1887 52.6718 52.1662 52.8916 52.0827 53.0912C51.9993 53.2909 51.8587 53.4613 51.6787 53.5812C51.4986 53.7012 51.2871 53.7651 51.0708 53.7652L51.075 53.7609Z" fill="white"/>
<path d="M41.1947 54C41.0011 54.0003 40.8109 53.9494 40.6434 53.8523C40.4759 53.7552 40.3371 53.6155 40.2412 53.4473C39.8934 52.8168 39.599 52.1582 39.3609 51.4786C38.9292 50.3325 38.5551 49.3425 37.0997 47.8856C35.6442 46.4288 34.6542 46.0575 33.5081 45.6244C32.2987 45.1687 30.9276 44.6527 29.1375 42.8625C27.3473 41.0723 26.8298 39.7012 26.3742 38.4919C25.9425 37.3458 25.5698 36.3558 24.1129 34.8989C22.6561 33.442 21.6661 33.0708 20.52 32.6377C19.8402 32.3999 19.1816 32.1054 18.5512 31.7573C18.4263 31.6859 18.3167 31.5905 18.2286 31.4767C18.1405 31.3628 18.0757 31.2328 18.0379 31.0939C18.0001 30.955 17.99 30.81 18.0083 30.6673C18.0265 30.5245 18.0726 30.3867 18.1441 30.2618C18.2156 30.1369 18.311 30.0272 18.4248 29.9392C18.5386 29.8511 18.6687 29.7863 18.8076 29.7485C18.9464 29.7107 19.0914 29.7006 19.2342 29.7188C19.3769 29.7371 19.5147 29.7832 19.6397 29.8547C20.1702 30.1429 20.7232 30.3874 21.2934 30.5859C22.5028 31.043 23.8739 31.5591 25.664 33.3506C27.4542 35.1422 27.9717 36.5105 28.4273 37.7198C28.859 38.8659 29.2331 39.8573 30.6886 41.3128C32.144 42.7683 33.134 43.1409 34.2815 43.5741C35.4895 44.0297 36.8606 44.5458 38.6508 46.3359C40.4409 48.1261 40.9584 49.5 41.414 50.7066C41.6124 51.277 41.8575 51.8301 42.1467 52.3603C42.2417 52.5271 42.2912 52.7158 42.2904 52.9077C42.2896 53.0996 42.2385 53.2879 42.1421 53.4539C42.0458 53.6198 41.9076 53.7576 41.7413 53.8534C41.575 53.9493 41.3866 53.9998 41.1947 54Z" fill="white"/>
</g>
</g>
<defs>
<clipPath id="clip0_6_147">
<rect width="72" height="72" fill="white"/>
</clipPath>
<clipPath id="clip1_6_147">
<rect width="36" height="36" fill="white" transform="translate(18 18)"/>
</clipPath>
</defs>
</svg>
