<svg width="144" height="144" viewBox="0 0 144 144" fill="none" xmlns="http://www.w3.org/2000/svg">
<g clip-path="url(#clip0_10_64)">
<rect width="144" height="144" fill="white"/>
<rect width="144" height="144" fill="#2D69EB"/>
<g clip-path="url(#clip1_10_64)">
<path d="M101.316 68.7391C101.067 68.7393 100.82 68.6904 100.589 68.5949C100.358 68.4995 100.149 68.3595 99.9725 68.183L75.8267 44.0373C75.5137 43.6735 75.3497 43.2048 75.3677 42.7252C75.3856 42.2457 75.5842 41.7906 75.9235 41.4512C76.2629 41.1119 76.718 40.9133 77.1976 40.8953C77.6772 40.8774 78.1458 41.0414 78.5096 41.3544L102.655 65.5002C102.921 65.7664 103.102 66.1053 103.175 66.4742C103.248 66.8431 103.21 67.2254 103.066 67.5728C102.922 67.9202 102.678 68.2171 102.365 68.426C102.053 68.6349 101.685 68.7464 101.309 68.7464L101.316 68.7391Z" fill="white"/>
<path d="M101.316 84.1387C101.067 84.139 100.82 84.09 100.589 83.9946C100.358 83.8991 100.149 83.7592 99.9725 83.5826L60.4174 44.0275C60.1043 43.6637 59.9404 43.1951 59.9583 42.7155C59.9763 42.2359 60.1748 41.7808 60.5142 41.4414C60.8535 41.1021 61.3086 40.9035 61.7882 40.8856C62.2678 40.8676 62.7365 41.0316 63.1002 41.3446L102.663 80.8925C102.928 81.1587 103.109 81.4976 103.182 81.8665C103.255 82.2354 103.218 82.6177 103.073 82.9651C102.929 83.3125 102.686 83.6094 102.373 83.8183C102.06 84.0272 101.692 84.1387 101.316 84.1387Z" fill="white"/>
<path d="M64.1953 103.219C63.9453 103.219 63.6977 103.17 63.4667 103.075C63.2356 102.98 63.0257 102.839 62.849 102.663L41.3373 81.1583C41.0243 80.7945 40.8603 80.3259 40.8783 79.8463C40.8962 79.3667 41.0948 78.9116 41.4341 78.5722C41.7735 78.2329 42.2286 78.0343 42.7082 78.0164C43.1878 77.9984 43.6564 78.1624 44.0202 78.4754L65.5245 99.9798C65.7867 100.245 65.9651 100.582 66.0373 100.948C66.1096 101.314 66.0725 101.694 65.9309 102.039C65.7892 102.384 65.5491 102.68 65.2405 102.89C64.9319 103.1 64.5684 103.214 64.1953 103.219Z" fill="white"/>
<path d="M101.316 68.7391C101.067 68.7393 100.82 68.6904 100.589 68.5949C100.358 68.4995 100.149 68.3595 99.9725 68.183L75.8267 44.0373C75.5137 43.6735 75.3497 43.2048 75.3677 42.7252C75.3856 42.2457 75.5842 41.7906 75.9235 41.4512C76.2629 41.1119 76.718 40.9133 77.1976 40.8953C77.6772 40.8774 78.1458 41.0414 78.5096 41.3544L102.655 65.5002C102.921 65.7664 103.102 66.1053 103.175 66.4742C103.248 66.8431 103.21 67.2254 103.066 67.5728C102.922 67.9202 102.678 68.2171 102.365 68.426C102.053 68.6349 101.685 68.7464 101.309 68.7464L101.316 68.7391Z" fill="white"/>
<path d="M101.316 84.1387C101.067 84.139 100.82 84.09 100.589 83.9946C100.358 83.8991 100.149 83.7592 99.9725 83.5826L60.4174 44.0275C60.1043 43.6637 59.9404 43.1951 59.9583 42.7155C59.9763 42.2359 60.1748 41.7808 60.5142 41.4414C60.8535 41.1021 61.3086 40.9035 61.7882 40.8856C62.2678 40.8676 62.7365 41.0316 63.1002 41.3446L102.663 80.8925C102.928 81.1587 103.109 81.4976 103.182 81.8665C103.255 82.2354 103.218 82.6177 103.073 82.9651C102.929 83.3125 102.686 83.6094 102.373 83.8183C102.06 84.0272 101.692 84.1387 101.316 84.1387Z" fill="white"/>
<path d="M98.1457 102.804C97.8938 102.805 97.6442 102.755 97.4118 102.658C97.1793 102.561 96.9686 102.418 96.7921 102.238C93.2507 98.6481 92.141 96.0872 91.0678 93.6117C90.0752 91.319 89.1386 89.1532 85.9631 85.9777C82.7876 82.8022 80.6242 81.868 78.3413 80.8754C75.8219 79.7852 73.2195 78.6584 69.5318 74.9707C65.8441 71.2829 64.7075 68.6806 63.6173 66.1611C62.6246 63.8685 61.6881 61.7051 58.515 58.5296C55.3419 55.3541 53.1761 54.4199 50.8835 53.4273C48.364 52.3371 45.7616 51.2127 42.0739 47.525C41.991 47.4421 41.9154 47.364 41.83 47.2811L41.7276 47.1762C41.3757 46.8136 41.1822 46.3261 41.1898 45.821C41.1973 45.3158 41.4053 44.8343 41.7678 44.4824C42.1304 44.1305 42.6179 43.937 43.1231 43.9446C43.6283 43.9521 44.1098 44.1601 44.4617 44.5226L44.5739 44.6397L44.7641 44.8348C47.9347 48.0055 50.103 48.9445 52.3932 49.9371C54.9126 51.0249 57.515 52.1517 61.2052 55.8394C64.8953 59.5271 66.0197 62.1319 67.1074 64.6514C68.1001 66.9416 69.0367 69.1074 72.2098 72.2805C75.3829 75.4536 77.5511 76.3926 79.8413 77.3852C82.3607 78.473 84.9631 79.5998 88.6533 83.2875C92.3434 86.9752 93.4678 89.5801 94.5604 92.0995C95.536 94.3531 96.4579 96.4896 99.4993 99.5652C99.7629 99.8322 99.9417 100.171 100.013 100.54C100.085 100.908 100.046 101.289 99.9008 101.635C99.7561 101.981 99.5123 102.277 99.2 102.485C98.8877 102.693 98.5209 102.804 98.1457 102.804Z" fill="white"/>
<path d="M81.0095 103.219C80.6738 103.219 80.3439 103.131 80.0534 102.963C79.7629 102.794 79.5223 102.552 79.3559 102.26C78.7527 101.167 78.242 100.024 77.8291 98.8457C77.0804 96.8579 76.4316 95.1409 73.9073 92.6141C71.3829 90.0874 69.6659 89.4435 67.6781 88.6923C65.5806 87.902 63.2026 87.0069 60.0978 83.9021C56.993 80.7973 56.0955 78.4194 55.3053 76.3218C54.5565 74.3341 53.9102 72.6171 51.3834 70.0903C48.8567 67.5635 47.1396 66.9196 45.1519 66.1684C43.9729 65.7561 42.8307 65.2454 41.7373 64.6416C41.5206 64.5177 41.3305 64.3523 41.1778 64.1548C41.025 63.9574 40.9126 63.7318 40.8471 63.491C40.7815 63.2501 40.764 62.9987 40.7956 62.7511C40.8272 62.5034 40.9073 62.2645 41.0312 62.0478C41.1552 61.8311 41.3206 61.641 41.518 61.4882C41.7155 61.3355 41.9411 61.2231 42.1819 61.1576C42.4228 61.092 42.6742 61.0745 42.9218 61.1061C43.1694 61.1377 43.4084 61.2178 43.6251 61.3417C44.5452 61.8416 45.5044 62.2657 46.4933 62.61C48.5908 63.4026 50.9688 64.2977 54.0736 67.405C57.1784 70.5122 58.0759 72.8853 58.8662 74.9829C59.6149 76.9706 60.2637 78.6901 62.788 81.2144C65.3124 83.7387 67.0294 84.3851 69.0196 85.1363C71.1146 85.9265 73.4926 86.8216 76.5974 89.9264C79.7022 93.0312 80.5998 95.4141 81.39 97.5067C81.7341 98.496 82.1591 99.4554 82.6607 100.375C82.8254 100.664 82.9114 100.991 82.91 101.324C82.9086 101.657 82.8199 101.984 82.6528 102.272C82.4857 102.559 82.246 102.798 81.9576 102.965C81.6693 103.131 81.3424 103.218 81.0095 103.219Z" fill="white"/>
<path d="M98.1457 102.804C97.8937 102.805 97.6442 102.755 97.4117 102.658C97.1793 102.561 96.9686 102.418 96.7921 102.238C93.2507 98.6481 92.141 96.0872 91.0678 93.6117C90.0752 91.319 89.1386 89.1532 85.9631 85.9777C82.7875 82.8022 80.6242 81.868 78.3413 80.8754C75.8219 79.7852 73.2195 78.6584 69.5318 74.9706C65.844 71.2829 64.7075 68.6806 63.6173 66.1611C62.6246 63.8685 61.6881 61.7051 58.515 58.5296C55.3419 55.3541 53.1761 54.4199 50.8834 53.4273C48.364 52.3371 45.7616 51.2103 42.0739 47.525C41.7609 47.1612 41.5969 46.6925 41.6148 46.213C41.6328 45.7334 41.8313 45.2783 42.1707 44.9389C42.5101 44.5996 42.9651 44.401 43.4447 44.383C43.9243 44.3651 44.393 44.5291 44.7568 44.8421C47.9274 48.0128 50.0957 48.9518 52.3858 49.9444C54.9053 51.0322 57.5077 52.159 61.1978 55.8467C64.888 59.5344 66.0123 62.1393 67.1001 64.6587C68.0928 66.9489 69.0293 69.1147 72.2024 72.2878C75.3755 75.4609 77.5438 76.3999 79.8339 77.3925C82.3534 78.4803 84.9558 79.6071 88.6459 83.2948C92.3361 86.9826 93.4604 89.5874 94.5531 92.1068C95.5287 94.3604 96.4506 96.497 99.492 99.5725C99.7556 99.8395 99.9344 100.178 100.006 100.547C100.077 100.915 100.038 101.296 99.8935 101.643C99.7488 101.989 99.505 102.284 99.1927 102.492C98.8804 102.7 98.5136 102.811 98.1384 102.811L98.1457 102.804Z" fill="white"/>
<path d="M81.0095 103.219C80.6738 103.219 80.3439 103.131 80.0534 102.963C79.7629 102.794 79.5223 102.552 79.3559 102.26C78.7527 101.167 78.242 100.024 77.8291 98.8457C77.0804 96.8579 76.4316 95.1409 73.9073 92.6141C71.3829 90.0874 69.6659 89.4435 67.6781 88.6923C65.5806 87.902 63.2026 87.0069 60.0978 83.9021C56.993 80.7973 56.0955 78.4194 55.3053 76.3218C54.5565 74.3341 53.9102 72.6171 51.3834 70.0903C48.8567 67.5635 47.1396 66.9196 45.1519 66.1684C43.9729 65.7561 42.8307 65.2454 41.7373 64.6416C41.5206 64.5177 41.3305 64.3523 41.1778 64.1548C41.025 63.9574 40.9126 63.7318 40.8471 63.491C40.7815 63.2501 40.764 62.9987 40.7956 62.7511C40.8272 62.5034 40.9073 62.2645 41.0312 62.0478C41.1552 61.8311 41.3206 61.641 41.518 61.4882C41.7155 61.3355 41.9411 61.2231 42.1819 61.1576C42.4228 61.092 42.6742 61.0745 42.9218 61.1061C43.1694 61.1377 43.4084 61.2178 43.6251 61.3417C44.5452 61.8416 45.5044 62.2657 46.4933 62.61C48.5908 63.4026 50.9688 64.2977 54.0736 67.405C57.1784 70.5122 58.0759 72.8853 58.8662 74.9829C59.6149 76.9706 60.2637 78.6901 62.788 81.2144C65.3124 83.7387 67.0294 84.3851 69.0196 85.1363C71.1146 85.9265 73.4926 86.8216 76.5974 89.9264C79.7022 93.0312 80.5998 95.4141 81.39 97.5067C81.7341 98.496 82.1591 99.4554 82.6607 100.375C82.8254 100.664 82.9114 100.991 82.91 101.324C82.9086 101.657 82.8199 101.984 82.6528 102.272C82.4857 102.559 82.246 102.798 81.9576 102.965C81.6693 103.131 81.3424 103.218 81.0095 103.219Z" fill="white"/>
</g>
</g>
<defs>
<clipPath id="clip0_10_64">
<rect width="144" height="144" fill="white"/>
</clipPath>
<clipPath id="clip1_10_64">
<rect width="62.4375" height="62.4375" fill="white" transform="translate(40.7812 40.7812)"/>
</clipPath>
</defs>
</svg>
